G04 MADE WITH FRITZING*
G04 WWW.FRITZING.ORG*
G04 DOUBLE SIDED*
G04 HOLES PLATED*
G04 CONTOUR ON CENTER OF CONTOUR VECTOR*
%ASAXBY*%
%FSLAX23Y23*%
%MOIN*%
%OFA0B0*%
%SFA1.0B1.0*%
%ADD10C,0.087778*%
%ADD11C,0.010000*%
%ADD12C,0.085000*%
%ADD13C,0.088000*%
%ADD14C,0.049370*%
%ADD15R,0.088000X0.088000*%
%ADD16R,0.001000X0.001000*%
%LNMASK1*%
G90*
G70*
G54D10*
X950Y305D03*
X950Y405D03*
X950Y505D03*
X950Y604D03*
X950Y704D03*
X950Y804D03*
X950Y904D03*
X950Y1004D03*
X50Y1004D03*
X50Y904D03*
X50Y804D03*
X50Y704D03*
X50Y604D03*
X50Y505D03*
X50Y405D03*
X50Y305D03*
G54D11*
X750Y305D03*
X750Y405D03*
X750Y505D03*
X750Y604D03*
X750Y704D03*
X750Y804D03*
X750Y904D03*
X750Y1004D03*
X750Y1104D03*
X650Y305D03*
X650Y405D03*
X650Y505D03*
X650Y604D03*
X650Y704D03*
X650Y804D03*
X650Y904D03*
X650Y1004D03*
X650Y1104D03*
X550Y305D03*
X550Y405D03*
X550Y505D03*
X550Y604D03*
X550Y704D03*
X550Y804D03*
X550Y904D03*
X550Y1004D03*
X550Y1104D03*
X450Y305D03*
X450Y405D03*
X450Y505D03*
X450Y604D03*
X450Y704D03*
X450Y804D03*
X450Y904D03*
X450Y1004D03*
X450Y1104D03*
X350Y305D03*
X350Y405D03*
X350Y505D03*
X350Y604D03*
X350Y704D03*
X350Y804D03*
X350Y904D03*
X350Y1004D03*
X350Y1104D03*
X250Y305D03*
X250Y405D03*
X250Y505D03*
X250Y604D03*
X250Y704D03*
X250Y804D03*
X250Y904D03*
X250Y1004D03*
X250Y1104D03*
X150Y1104D03*
G54D12*
X250Y1004D03*
X650Y1004D03*
G54D13*
X450Y704D03*
X450Y604D03*
X450Y504D03*
X750Y704D03*
X750Y604D03*
X750Y504D03*
X250Y704D03*
X250Y604D03*
X250Y504D03*
X250Y404D03*
X250Y304D03*
X750Y204D03*
X650Y204D03*
G54D14*
X444Y920D03*
G54D15*
X450Y704D03*
X750Y704D03*
G54D16*
D02*
G04 End of Mask1*
M02*