G04 MADE WITH FRITZING*
G04 WWW.FRITZING.ORG*
G04 DOUBLE SIDED*
G04 HOLES PLATED*
G04 CONTOUR ON CENTER OF CONTOUR VECTOR*
%ASAXBY*%
%FSLAX23Y23*%
%MOIN*%
%OFA0B0*%
%SFA1.0B1.0*%
%ADD10C,0.077778*%
%ADD11C,0.000000*%
%ADD12C,0.075000*%
%ADD13C,0.078000*%
%ADD14C,0.039370*%
%ADD15R,0.078000X0.078000*%
%ADD16C,0.024000*%
%ADD17R,0.001000X0.001000*%
%LNCOPPER0*%
G90*
G70*
G54D10*
X950Y305D03*
X950Y405D03*
X950Y505D03*
X950Y604D03*
X950Y704D03*
X950Y804D03*
X950Y904D03*
X950Y1004D03*
X50Y1004D03*
X50Y904D03*
X50Y804D03*
X50Y704D03*
X50Y604D03*
X50Y505D03*
X50Y405D03*
X50Y305D03*
G54D11*
X750Y305D03*
X750Y405D03*
X750Y505D03*
X750Y604D03*
X750Y704D03*
X750Y804D03*
X750Y904D03*
X750Y1004D03*
X750Y1104D03*
X650Y305D03*
X650Y405D03*
X650Y505D03*
X650Y604D03*
X650Y704D03*
X650Y804D03*
X650Y904D03*
X650Y1004D03*
X650Y1104D03*
X550Y305D03*
X550Y405D03*
X550Y505D03*
X550Y604D03*
X550Y704D03*
X550Y804D03*
X550Y904D03*
X550Y1004D03*
X550Y1104D03*
X450Y305D03*
X450Y405D03*
X450Y505D03*
X450Y604D03*
X450Y704D03*
X450Y804D03*
X450Y904D03*
X450Y1004D03*
X450Y1104D03*
X350Y305D03*
X350Y405D03*
X350Y505D03*
X350Y604D03*
X350Y704D03*
X350Y804D03*
X350Y904D03*
X350Y1004D03*
X350Y1104D03*
X250Y305D03*
X250Y405D03*
X250Y505D03*
X250Y604D03*
X250Y704D03*
X250Y804D03*
X250Y904D03*
X250Y1004D03*
X250Y1104D03*
X150Y1104D03*
G54D12*
X250Y1004D03*
X650Y1004D03*
G54D13*
X450Y704D03*
X450Y604D03*
X450Y504D03*
X750Y704D03*
X750Y604D03*
X750Y504D03*
X250Y704D03*
X250Y604D03*
X250Y504D03*
X250Y404D03*
X250Y304D03*
X750Y204D03*
X650Y204D03*
G54D14*
X444Y920D03*
G54D15*
X450Y704D03*
X750Y704D03*
G54D16*
X76Y591D02*
X223Y518D01*
D02*
X924Y891D02*
X516Y680D01*
X516Y680D02*
X516Y536D01*
X516Y536D02*
X477Y517D01*
D02*
X424Y589D02*
X372Y560D01*
X372Y560D02*
X396Y440D01*
X396Y440D02*
X564Y440D01*
X564Y440D02*
X564Y584D01*
X564Y584D02*
X720Y601D01*
D02*
X79Y1002D02*
X180Y992D01*
X180Y992D02*
X372Y632D01*
X372Y632D02*
X422Y614D01*
D02*
X921Y1004D02*
X679Y1004D01*
D02*
X922Y699D02*
X828Y680D01*
X828Y680D02*
X828Y464D01*
X828Y464D02*
X279Y312D01*
D02*
X445Y901D02*
X449Y734D01*
D02*
X766Y230D02*
X876Y416D01*
X876Y416D02*
X876Y584D01*
X876Y584D02*
X922Y597D01*
G54D17*
D02*
G04 End of Copper0*
M02*