; NON-PLATED HOLES START AT T1
; THROUGH (PLATED) HOLES START AT T100
M48
INCH
T1C0.000000
T100C0.015748
T101C0.038000
T102C0.035000
T103C0.036111
%
T1
X003502Y011041
X007502Y006044
X007502Y003046
X007502Y011041
X005502Y011041
X002502Y011041
X006502Y004045
X003502Y005045
X005502Y004045
X004502Y005045
X002502Y009043
X005502Y007044
X002502Y004045
X006502Y005045
X007502Y009043
X004502Y009043
X007502Y008043
X004502Y007044
X005502Y003046
X004502Y011041
X006502Y008043
X003502Y007044
X003502Y006044
X007502Y007044
X004502Y006044
X004502Y004045
X004502Y010042
X005502Y009043
X003502Y004045
X006502Y007044
X006502Y011041
X002502Y007044
X006502Y003046
X004502Y003046
X007502Y010042
X005502Y010042
X006502Y006044
X002502Y006044
X002502Y005045
X002502Y003046
X003502Y003046
X003502Y009043
X006502Y010042
X001502Y011041
X004502Y008043
X005502Y008043
X003502Y010042
X003502Y008043
X007502Y005045
X002502Y008043
X005502Y005045
X007502Y004045
X006502Y009043
X002502Y010042
X005502Y006044
T100
X004440Y009201
T101
X002502Y007041
X004502Y005041
X002502Y006041
X007502Y002041
X007502Y007041
X004502Y007041
X002502Y003041
X002502Y005041
X006502Y002041
X002502Y004041
X007502Y006041
X007502Y005041
X004502Y006041
T102
X006502Y010041
X002502Y010041
T103
X000502Y009043
X009502Y006044
X000502Y007044
X000502Y005045
X009502Y004045
X009502Y003046
X009502Y005045
X000502Y004045
X009502Y010042
X009502Y008043
X009502Y009043
X000502Y003046
X000502Y010042
X000502Y008043
X000502Y006044
X009502Y007044
T00
M30
