G04 MADE WITH FRITZING*
G04 WWW.FRITZING.ORG*
G04 DOUBLE SIDED*
G04 HOLES PLATED*
G04 CONTOUR ON CENTER OF CONTOUR VECTOR*
%ASAXBY*%
%FSLAX23Y23*%
%MOIN*%
%OFA0B0*%
%SFA1.0B1.0*%
%ADD10C,0.010000*%
%ADD11C,0.005000*%
%ADD12R,0.001000X0.001000*%
%LNSILK1*%
G90*
G70*
G54D10*
X360Y1037D02*
X560Y1037D01*
D02*
X560Y1037D02*
X560Y971D01*
D02*
X560Y971D02*
X360Y971D01*
D02*
X360Y971D02*
X360Y1037D01*
D02*
X400Y754D02*
X400Y454D01*
D02*
X400Y454D02*
X500Y454D01*
D02*
X500Y454D02*
X500Y754D01*
D02*
X500Y754D02*
X400Y754D01*
D02*
X700Y754D02*
X700Y454D01*
D02*
X700Y454D02*
X800Y454D01*
D02*
X800Y454D02*
X800Y754D01*
D02*
X800Y754D02*
X700Y754D01*
D02*
X200Y754D02*
X200Y254D01*
D02*
X200Y254D02*
X300Y254D01*
D02*
X300Y254D02*
X300Y754D01*
D02*
X300Y754D02*
X200Y754D01*
G54D11*
D02*
X200Y719D02*
X235Y754D01*
G54D10*
D02*
X800Y254D02*
X600Y254D01*
D02*
X600Y254D02*
X600Y154D01*
D02*
X600Y154D02*
X800Y154D01*
D02*
X800Y154D02*
X800Y254D01*
G54D12*
X0Y1196D02*
X1001Y1196D01*
X0Y1195D02*
X1001Y1195D01*
X0Y1194D02*
X1001Y1194D01*
X0Y1193D02*
X1001Y1193D01*
X0Y1192D02*
X1001Y1192D01*
X0Y1191D02*
X1001Y1191D01*
X0Y1190D02*
X1001Y1190D01*
X0Y1189D02*
X1001Y1189D01*
X0Y1188D02*
X7Y1188D01*
X994Y1188D02*
X1001Y1188D01*
X0Y1187D02*
X7Y1187D01*
X994Y1187D02*
X1001Y1187D01*
X0Y1186D02*
X7Y1186D01*
X994Y1186D02*
X1001Y1186D01*
X0Y1185D02*
X7Y1185D01*
X994Y1185D02*
X1001Y1185D01*
X0Y1184D02*
X7Y1184D01*
X994Y1184D02*
X1001Y1184D01*
X0Y1183D02*
X7Y1183D01*
X994Y1183D02*
X1001Y1183D01*
X0Y1182D02*
X7Y1182D01*
X994Y1182D02*
X1001Y1182D01*
X0Y1181D02*
X7Y1181D01*
X994Y1181D02*
X1001Y1181D01*
X0Y1180D02*
X7Y1180D01*
X994Y1180D02*
X1001Y1180D01*
X0Y1179D02*
X7Y1179D01*
X994Y1179D02*
X1001Y1179D01*
X0Y1178D02*
X7Y1178D01*
X994Y1178D02*
X1001Y1178D01*
X0Y1177D02*
X7Y1177D01*
X994Y1177D02*
X1001Y1177D01*
X0Y1176D02*
X7Y1176D01*
X994Y1176D02*
X1001Y1176D01*
X0Y1175D02*
X7Y1175D01*
X994Y1175D02*
X1001Y1175D01*
X0Y1174D02*
X7Y1174D01*
X994Y1174D02*
X1001Y1174D01*
X0Y1173D02*
X7Y1173D01*
X994Y1173D02*
X1001Y1173D01*
X0Y1172D02*
X7Y1172D01*
X994Y1172D02*
X1001Y1172D01*
X0Y1171D02*
X7Y1171D01*
X994Y1171D02*
X1001Y1171D01*
X0Y1170D02*
X7Y1170D01*
X994Y1170D02*
X1001Y1170D01*
X0Y1169D02*
X7Y1169D01*
X994Y1169D02*
X1001Y1169D01*
X0Y1168D02*
X7Y1168D01*
X994Y1168D02*
X1001Y1168D01*
X0Y1167D02*
X7Y1167D01*
X994Y1167D02*
X1001Y1167D01*
X0Y1166D02*
X7Y1166D01*
X994Y1166D02*
X1001Y1166D01*
X0Y1165D02*
X7Y1165D01*
X994Y1165D02*
X1001Y1165D01*
X0Y1164D02*
X7Y1164D01*
X994Y1164D02*
X1001Y1164D01*
X0Y1163D02*
X7Y1163D01*
X994Y1163D02*
X1001Y1163D01*
X0Y1162D02*
X7Y1162D01*
X994Y1162D02*
X1001Y1162D01*
X0Y1161D02*
X7Y1161D01*
X994Y1161D02*
X1001Y1161D01*
X0Y1160D02*
X7Y1160D01*
X994Y1160D02*
X1001Y1160D01*
X0Y1159D02*
X7Y1159D01*
X994Y1159D02*
X1001Y1159D01*
X0Y1158D02*
X7Y1158D01*
X994Y1158D02*
X1001Y1158D01*
X0Y1157D02*
X7Y1157D01*
X994Y1157D02*
X1001Y1157D01*
X0Y1156D02*
X7Y1156D01*
X994Y1156D02*
X1001Y1156D01*
X0Y1155D02*
X7Y1155D01*
X994Y1155D02*
X1001Y1155D01*
X0Y1154D02*
X7Y1154D01*
X994Y1154D02*
X1001Y1154D01*
X0Y1153D02*
X7Y1153D01*
X994Y1153D02*
X1001Y1153D01*
X0Y1152D02*
X7Y1152D01*
X994Y1152D02*
X1001Y1152D01*
X0Y1151D02*
X7Y1151D01*
X994Y1151D02*
X1001Y1151D01*
X0Y1150D02*
X7Y1150D01*
X994Y1150D02*
X1001Y1150D01*
X0Y1149D02*
X7Y1149D01*
X994Y1149D02*
X1001Y1149D01*
X0Y1148D02*
X7Y1148D01*
X994Y1148D02*
X1001Y1148D01*
X0Y1147D02*
X7Y1147D01*
X994Y1147D02*
X1001Y1147D01*
X0Y1146D02*
X7Y1146D01*
X994Y1146D02*
X1001Y1146D01*
X0Y1145D02*
X7Y1145D01*
X392Y1145D02*
X410Y1145D01*
X442Y1145D02*
X444Y1145D01*
X994Y1145D02*
X1001Y1145D01*
X0Y1144D02*
X7Y1144D01*
X391Y1144D02*
X410Y1144D01*
X441Y1144D02*
X445Y1144D01*
X994Y1144D02*
X1001Y1144D01*
X0Y1143D02*
X7Y1143D01*
X391Y1143D02*
X410Y1143D01*
X441Y1143D02*
X446Y1143D01*
X994Y1143D02*
X1001Y1143D01*
X0Y1142D02*
X7Y1142D01*
X390Y1142D02*
X410Y1142D01*
X440Y1142D02*
X446Y1142D01*
X501Y1142D02*
X512Y1142D01*
X994Y1142D02*
X1001Y1142D01*
X0Y1141D02*
X7Y1141D01*
X390Y1141D02*
X410Y1141D01*
X440Y1141D02*
X446Y1141D01*
X498Y1141D02*
X515Y1141D01*
X994Y1141D02*
X1001Y1141D01*
X0Y1140D02*
X7Y1140D01*
X391Y1140D02*
X410Y1140D01*
X440Y1140D02*
X446Y1140D01*
X496Y1140D02*
X517Y1140D01*
X994Y1140D02*
X1001Y1140D01*
X0Y1139D02*
X7Y1139D01*
X392Y1139D02*
X410Y1139D01*
X440Y1139D02*
X446Y1139D01*
X494Y1139D02*
X519Y1139D01*
X994Y1139D02*
X1001Y1139D01*
X0Y1138D02*
X7Y1138D01*
X404Y1138D02*
X410Y1138D01*
X440Y1138D02*
X446Y1138D01*
X493Y1138D02*
X520Y1138D01*
X994Y1138D02*
X1001Y1138D01*
X0Y1137D02*
X7Y1137D01*
X404Y1137D02*
X410Y1137D01*
X440Y1137D02*
X446Y1137D01*
X491Y1137D02*
X521Y1137D01*
X994Y1137D02*
X1001Y1137D01*
X0Y1136D02*
X7Y1136D01*
X404Y1136D02*
X410Y1136D01*
X440Y1136D02*
X446Y1136D01*
X490Y1136D02*
X500Y1136D01*
X512Y1136D02*
X522Y1136D01*
X994Y1136D02*
X1001Y1136D01*
X0Y1135D02*
X7Y1135D01*
X404Y1135D02*
X410Y1135D01*
X440Y1135D02*
X446Y1135D01*
X490Y1135D02*
X498Y1135D01*
X515Y1135D02*
X523Y1135D01*
X994Y1135D02*
X1001Y1135D01*
X0Y1134D02*
X7Y1134D01*
X404Y1134D02*
X410Y1134D01*
X440Y1134D02*
X446Y1134D01*
X489Y1134D02*
X497Y1134D01*
X516Y1134D02*
X524Y1134D01*
X994Y1134D02*
X1001Y1134D01*
X0Y1133D02*
X7Y1133D01*
X404Y1133D02*
X410Y1133D01*
X440Y1133D02*
X446Y1133D01*
X488Y1133D02*
X495Y1133D01*
X517Y1133D02*
X525Y1133D01*
X994Y1133D02*
X1001Y1133D01*
X0Y1132D02*
X7Y1132D01*
X404Y1132D02*
X410Y1132D01*
X440Y1132D02*
X446Y1132D01*
X488Y1132D02*
X494Y1132D01*
X518Y1132D02*
X525Y1132D01*
X994Y1132D02*
X1001Y1132D01*
X0Y1131D02*
X7Y1131D01*
X404Y1131D02*
X410Y1131D01*
X440Y1131D02*
X446Y1131D01*
X487Y1131D02*
X494Y1131D01*
X519Y1131D02*
X526Y1131D01*
X994Y1131D02*
X1001Y1131D01*
X0Y1130D02*
X7Y1130D01*
X404Y1130D02*
X410Y1130D01*
X440Y1130D02*
X446Y1130D01*
X466Y1130D02*
X469Y1130D01*
X487Y1130D02*
X493Y1130D01*
X520Y1130D02*
X526Y1130D01*
X994Y1130D02*
X1001Y1130D01*
X0Y1129D02*
X7Y1129D01*
X404Y1129D02*
X410Y1129D01*
X440Y1129D02*
X446Y1129D01*
X465Y1129D02*
X470Y1129D01*
X486Y1129D02*
X493Y1129D01*
X520Y1129D02*
X526Y1129D01*
X994Y1129D02*
X1001Y1129D01*
X0Y1128D02*
X7Y1128D01*
X404Y1128D02*
X410Y1128D01*
X440Y1128D02*
X446Y1128D01*
X464Y1128D02*
X470Y1128D01*
X486Y1128D02*
X492Y1128D01*
X520Y1128D02*
X527Y1128D01*
X994Y1128D02*
X1001Y1128D01*
X0Y1127D02*
X7Y1127D01*
X404Y1127D02*
X410Y1127D01*
X440Y1127D02*
X446Y1127D01*
X462Y1127D02*
X470Y1127D01*
X486Y1127D02*
X492Y1127D01*
X521Y1127D02*
X527Y1127D01*
X994Y1127D02*
X1001Y1127D01*
X0Y1126D02*
X7Y1126D01*
X404Y1126D02*
X410Y1126D01*
X440Y1126D02*
X446Y1126D01*
X461Y1126D02*
X470Y1126D01*
X485Y1126D02*
X492Y1126D01*
X521Y1126D02*
X527Y1126D01*
X994Y1126D02*
X1001Y1126D01*
X0Y1125D02*
X7Y1125D01*
X404Y1125D02*
X410Y1125D01*
X440Y1125D02*
X446Y1125D01*
X460Y1125D02*
X470Y1125D01*
X485Y1125D02*
X491Y1125D01*
X521Y1125D02*
X527Y1125D01*
X994Y1125D02*
X1001Y1125D01*
X0Y1124D02*
X7Y1124D01*
X404Y1124D02*
X410Y1124D01*
X440Y1124D02*
X446Y1124D01*
X459Y1124D02*
X469Y1124D01*
X485Y1124D02*
X491Y1124D01*
X521Y1124D02*
X527Y1124D01*
X994Y1124D02*
X1001Y1124D01*
X0Y1123D02*
X7Y1123D01*
X404Y1123D02*
X410Y1123D01*
X440Y1123D02*
X446Y1123D01*
X458Y1123D02*
X467Y1123D01*
X485Y1123D02*
X491Y1123D01*
X521Y1123D02*
X527Y1123D01*
X994Y1123D02*
X1001Y1123D01*
X0Y1122D02*
X7Y1122D01*
X404Y1122D02*
X410Y1122D01*
X440Y1122D02*
X446Y1122D01*
X456Y1122D02*
X466Y1122D01*
X485Y1122D02*
X491Y1122D01*
X522Y1122D02*
X528Y1122D01*
X994Y1122D02*
X1001Y1122D01*
X0Y1121D02*
X7Y1121D01*
X404Y1121D02*
X410Y1121D01*
X440Y1121D02*
X446Y1121D01*
X455Y1121D02*
X465Y1121D01*
X485Y1121D02*
X491Y1121D01*
X522Y1121D02*
X528Y1121D01*
X994Y1121D02*
X1001Y1121D01*
X0Y1120D02*
X7Y1120D01*
X404Y1120D02*
X410Y1120D01*
X440Y1120D02*
X446Y1120D01*
X454Y1120D02*
X464Y1120D01*
X485Y1120D02*
X491Y1120D01*
X522Y1120D02*
X527Y1120D01*
X994Y1120D02*
X1001Y1120D01*
X0Y1119D02*
X7Y1119D01*
X404Y1119D02*
X410Y1119D01*
X440Y1119D02*
X446Y1119D01*
X453Y1119D02*
X463Y1119D01*
X485Y1119D02*
X491Y1119D01*
X521Y1119D02*
X527Y1119D01*
X994Y1119D02*
X1001Y1119D01*
X0Y1118D02*
X7Y1118D01*
X404Y1118D02*
X410Y1118D01*
X440Y1118D02*
X446Y1118D01*
X452Y1118D02*
X462Y1118D01*
X485Y1118D02*
X491Y1118D01*
X521Y1118D02*
X527Y1118D01*
X994Y1118D02*
X1001Y1118D01*
X0Y1117D02*
X7Y1117D01*
X404Y1117D02*
X410Y1117D01*
X440Y1117D02*
X446Y1117D01*
X451Y1117D02*
X460Y1117D01*
X485Y1117D02*
X491Y1117D01*
X521Y1117D02*
X527Y1117D01*
X994Y1117D02*
X1001Y1117D01*
X0Y1116D02*
X7Y1116D01*
X404Y1116D02*
X410Y1116D01*
X440Y1116D02*
X446Y1116D01*
X449Y1116D02*
X459Y1116D01*
X486Y1116D02*
X492Y1116D01*
X521Y1116D02*
X527Y1116D01*
X994Y1116D02*
X1001Y1116D01*
X0Y1115D02*
X7Y1115D01*
X24Y1115D02*
X41Y1115D01*
X55Y1115D02*
X57Y1115D01*
X73Y1115D02*
X75Y1115D01*
X404Y1115D02*
X410Y1115D01*
X419Y1115D02*
X423Y1115D01*
X440Y1115D02*
X446Y1115D01*
X448Y1115D02*
X458Y1115D01*
X486Y1115D02*
X492Y1115D01*
X521Y1115D02*
X527Y1115D01*
X994Y1115D02*
X1001Y1115D01*
X0Y1114D02*
X7Y1114D01*
X24Y1114D02*
X42Y1114D01*
X54Y1114D02*
X57Y1114D01*
X73Y1114D02*
X76Y1114D01*
X404Y1114D02*
X410Y1114D01*
X418Y1114D02*
X423Y1114D01*
X440Y1114D02*
X457Y1114D01*
X486Y1114D02*
X492Y1114D01*
X520Y1114D02*
X526Y1114D01*
X994Y1114D02*
X1001Y1114D01*
X0Y1113D02*
X7Y1113D01*
X24Y1113D02*
X42Y1113D01*
X54Y1113D02*
X57Y1113D01*
X73Y1113D02*
X76Y1113D01*
X404Y1113D02*
X410Y1113D01*
X418Y1113D02*
X424Y1113D01*
X440Y1113D02*
X456Y1113D01*
X487Y1113D02*
X493Y1113D01*
X520Y1113D02*
X526Y1113D01*
X888Y1113D02*
X904Y1113D01*
X957Y1113D02*
X972Y1113D01*
X994Y1113D02*
X1001Y1113D01*
X0Y1112D02*
X7Y1112D01*
X24Y1112D02*
X42Y1112D01*
X54Y1112D02*
X57Y1112D01*
X73Y1112D02*
X76Y1112D01*
X404Y1112D02*
X410Y1112D01*
X418Y1112D02*
X424Y1112D01*
X440Y1112D02*
X455Y1112D01*
X487Y1112D02*
X493Y1112D01*
X519Y1112D02*
X526Y1112D01*
X886Y1112D02*
X906Y1112D01*
X921Y1112D02*
X923Y1112D01*
X939Y1112D02*
X942Y1112D01*
X955Y1112D02*
X975Y1112D01*
X994Y1112D02*
X1001Y1112D01*
X0Y1111D02*
X7Y1111D01*
X24Y1111D02*
X41Y1111D01*
X54Y1111D02*
X57Y1111D01*
X73Y1111D02*
X76Y1111D01*
X404Y1111D02*
X410Y1111D01*
X418Y1111D02*
X424Y1111D01*
X440Y1111D02*
X457Y1111D01*
X488Y1111D02*
X494Y1111D01*
X519Y1111D02*
X525Y1111D01*
X886Y1111D02*
X907Y1111D01*
X920Y1111D02*
X924Y1111D01*
X939Y1111D02*
X943Y1111D01*
X954Y1111D02*
X976Y1111D01*
X994Y1111D02*
X1001Y1111D01*
X0Y1110D02*
X7Y1110D01*
X24Y1110D02*
X28Y1110D01*
X54Y1110D02*
X57Y1110D01*
X73Y1110D02*
X76Y1110D01*
X404Y1110D02*
X410Y1110D01*
X418Y1110D02*
X424Y1110D01*
X440Y1110D02*
X458Y1110D01*
X488Y1110D02*
X495Y1110D01*
X518Y1110D02*
X525Y1110D01*
X886Y1110D02*
X908Y1110D01*
X920Y1110D02*
X924Y1110D01*
X939Y1110D02*
X943Y1110D01*
X954Y1110D02*
X977Y1110D01*
X994Y1110D02*
X1001Y1110D01*
X0Y1109D02*
X7Y1109D01*
X24Y1109D02*
X28Y1109D01*
X54Y1109D02*
X57Y1109D01*
X73Y1109D02*
X76Y1109D01*
X404Y1109D02*
X410Y1109D01*
X418Y1109D02*
X424Y1109D01*
X440Y1109D02*
X459Y1109D01*
X489Y1109D02*
X496Y1109D01*
X517Y1109D02*
X524Y1109D01*
X886Y1109D02*
X908Y1109D01*
X920Y1109D02*
X924Y1109D01*
X939Y1109D02*
X943Y1109D01*
X955Y1109D02*
X977Y1109D01*
X994Y1109D02*
X1001Y1109D01*
X0Y1108D02*
X7Y1108D01*
X24Y1108D02*
X28Y1108D01*
X54Y1108D02*
X57Y1108D01*
X73Y1108D02*
X76Y1108D01*
X404Y1108D02*
X410Y1108D01*
X418Y1108D02*
X424Y1108D01*
X440Y1108D02*
X460Y1108D01*
X490Y1108D02*
X497Y1108D01*
X516Y1108D02*
X523Y1108D01*
X904Y1108D02*
X908Y1108D01*
X920Y1108D02*
X924Y1108D01*
X939Y1108D02*
X943Y1108D01*
X973Y1108D02*
X977Y1108D01*
X994Y1108D02*
X1001Y1108D01*
X0Y1107D02*
X7Y1107D01*
X24Y1107D02*
X28Y1107D01*
X54Y1107D02*
X57Y1107D01*
X73Y1107D02*
X76Y1107D01*
X404Y1107D02*
X410Y1107D01*
X418Y1107D02*
X424Y1107D01*
X440Y1107D02*
X449Y1107D01*
X451Y1107D02*
X461Y1107D01*
X490Y1107D02*
X498Y1107D01*
X515Y1107D02*
X522Y1107D01*
X905Y1107D02*
X908Y1107D01*
X920Y1107D02*
X924Y1107D01*
X939Y1107D02*
X943Y1107D01*
X973Y1107D02*
X977Y1107D01*
X994Y1107D02*
X1001Y1107D01*
X0Y1106D02*
X7Y1106D01*
X24Y1106D02*
X28Y1106D01*
X54Y1106D02*
X57Y1106D01*
X73Y1106D02*
X76Y1106D01*
X404Y1106D02*
X410Y1106D01*
X418Y1106D02*
X424Y1106D01*
X440Y1106D02*
X448Y1106D01*
X453Y1106D02*
X462Y1106D01*
X491Y1106D02*
X499Y1106D01*
X513Y1106D02*
X522Y1106D01*
X905Y1106D02*
X908Y1106D01*
X920Y1106D02*
X924Y1106D01*
X939Y1106D02*
X943Y1106D01*
X973Y1106D02*
X977Y1106D01*
X994Y1106D02*
X1001Y1106D01*
X0Y1105D02*
X7Y1105D01*
X24Y1105D02*
X28Y1105D01*
X54Y1105D02*
X58Y1105D01*
X72Y1105D02*
X76Y1105D01*
X404Y1105D02*
X410Y1105D01*
X418Y1105D02*
X424Y1105D01*
X440Y1105D02*
X447Y1105D01*
X454Y1105D02*
X464Y1105D01*
X492Y1105D02*
X501Y1105D01*
X512Y1105D02*
X521Y1105D01*
X905Y1105D02*
X908Y1105D01*
X920Y1105D02*
X924Y1105D01*
X939Y1105D02*
X943Y1105D01*
X973Y1105D02*
X977Y1105D01*
X994Y1105D02*
X1001Y1105D01*
X0Y1104D02*
X7Y1104D01*
X24Y1104D02*
X28Y1104D01*
X54Y1104D02*
X58Y1104D01*
X72Y1104D02*
X76Y1104D01*
X404Y1104D02*
X410Y1104D01*
X418Y1104D02*
X424Y1104D01*
X440Y1104D02*
X446Y1104D01*
X455Y1104D02*
X465Y1104D01*
X493Y1104D02*
X502Y1104D01*
X511Y1104D02*
X519Y1104D01*
X905Y1104D02*
X908Y1104D01*
X920Y1104D02*
X924Y1104D01*
X939Y1104D02*
X943Y1104D01*
X973Y1104D02*
X977Y1104D01*
X994Y1104D02*
X1001Y1104D01*
X0Y1103D02*
X7Y1103D01*
X24Y1103D02*
X28Y1103D01*
X54Y1103D02*
X58Y1103D01*
X72Y1103D02*
X76Y1103D01*
X404Y1103D02*
X410Y1103D01*
X418Y1103D02*
X424Y1103D01*
X440Y1103D02*
X446Y1103D01*
X456Y1103D02*
X466Y1103D01*
X495Y1103D02*
X502Y1103D01*
X511Y1103D02*
X518Y1103D01*
X905Y1103D02*
X908Y1103D01*
X920Y1103D02*
X924Y1103D01*
X939Y1103D02*
X943Y1103D01*
X973Y1103D02*
X977Y1103D01*
X994Y1103D02*
X1001Y1103D01*
X0Y1102D02*
X7Y1102D01*
X24Y1102D02*
X28Y1102D01*
X55Y1102D02*
X59Y1102D01*
X71Y1102D02*
X75Y1102D01*
X404Y1102D02*
X410Y1102D01*
X418Y1102D02*
X424Y1102D01*
X440Y1102D02*
X446Y1102D01*
X457Y1102D02*
X467Y1102D01*
X496Y1102D02*
X502Y1102D01*
X511Y1102D02*
X517Y1102D01*
X905Y1102D02*
X908Y1102D01*
X920Y1102D02*
X924Y1102D01*
X939Y1102D02*
X943Y1102D01*
X973Y1102D02*
X977Y1102D01*
X994Y1102D02*
X1001Y1102D01*
X0Y1101D02*
X7Y1101D01*
X24Y1101D02*
X28Y1101D01*
X55Y1101D02*
X59Y1101D01*
X71Y1101D02*
X75Y1101D01*
X404Y1101D02*
X410Y1101D01*
X418Y1101D02*
X424Y1101D01*
X440Y1101D02*
X446Y1101D01*
X458Y1101D02*
X468Y1101D01*
X497Y1101D02*
X502Y1101D01*
X511Y1101D02*
X516Y1101D01*
X905Y1101D02*
X908Y1101D01*
X920Y1101D02*
X925Y1101D01*
X938Y1101D02*
X942Y1101D01*
X973Y1101D02*
X977Y1101D01*
X994Y1101D02*
X1001Y1101D01*
X0Y1100D02*
X7Y1100D01*
X24Y1100D02*
X28Y1100D01*
X55Y1100D02*
X60Y1100D01*
X70Y1100D02*
X75Y1100D01*
X404Y1100D02*
X410Y1100D01*
X418Y1100D02*
X424Y1100D01*
X440Y1100D02*
X446Y1100D01*
X460Y1100D02*
X469Y1100D01*
X497Y1100D02*
X502Y1100D01*
X511Y1100D02*
X516Y1100D01*
X905Y1100D02*
X908Y1100D01*
X921Y1100D02*
X925Y1100D01*
X938Y1100D02*
X942Y1100D01*
X973Y1100D02*
X977Y1100D01*
X994Y1100D02*
X1001Y1100D01*
X0Y1099D02*
X7Y1099D01*
X24Y1099D02*
X39Y1099D01*
X56Y1099D02*
X60Y1099D01*
X70Y1099D02*
X74Y1099D01*
X404Y1099D02*
X410Y1099D01*
X418Y1099D02*
X424Y1099D01*
X440Y1099D02*
X446Y1099D01*
X461Y1099D02*
X471Y1099D01*
X497Y1099D02*
X502Y1099D01*
X511Y1099D02*
X516Y1099D01*
X905Y1099D02*
X908Y1099D01*
X921Y1099D02*
X925Y1099D01*
X937Y1099D02*
X942Y1099D01*
X973Y1099D02*
X977Y1099D01*
X994Y1099D02*
X1001Y1099D01*
X0Y1098D02*
X7Y1098D01*
X24Y1098D02*
X41Y1098D01*
X56Y1098D02*
X60Y1098D01*
X70Y1098D02*
X74Y1098D01*
X393Y1098D02*
X424Y1098D01*
X440Y1098D02*
X446Y1098D01*
X462Y1098D02*
X472Y1098D01*
X497Y1098D02*
X502Y1098D01*
X511Y1098D02*
X516Y1098D01*
X904Y1098D02*
X908Y1098D01*
X922Y1098D02*
X926Y1098D01*
X937Y1098D02*
X941Y1098D01*
X973Y1098D02*
X977Y1098D01*
X994Y1098D02*
X1001Y1098D01*
X0Y1097D02*
X7Y1097D01*
X24Y1097D02*
X41Y1097D01*
X57Y1097D02*
X61Y1097D01*
X69Y1097D02*
X73Y1097D01*
X391Y1097D02*
X424Y1097D01*
X440Y1097D02*
X446Y1097D01*
X463Y1097D02*
X473Y1097D01*
X484Y1097D02*
X502Y1097D01*
X511Y1097D02*
X529Y1097D01*
X903Y1097D02*
X908Y1097D01*
X922Y1097D02*
X926Y1097D01*
X937Y1097D02*
X941Y1097D01*
X971Y1097D02*
X977Y1097D01*
X994Y1097D02*
X1001Y1097D01*
X0Y1096D02*
X7Y1096D01*
X24Y1096D02*
X42Y1096D01*
X57Y1096D02*
X61Y1096D01*
X69Y1096D02*
X73Y1096D01*
X391Y1096D02*
X424Y1096D01*
X440Y1096D02*
X446Y1096D01*
X464Y1096D02*
X474Y1096D01*
X484Y1096D02*
X502Y1096D01*
X511Y1096D02*
X529Y1096D01*
X891Y1096D02*
X908Y1096D01*
X922Y1096D02*
X927Y1096D01*
X936Y1096D02*
X940Y1096D01*
X960Y1096D02*
X976Y1096D01*
X994Y1096D02*
X1001Y1096D01*
X0Y1095D02*
X7Y1095D01*
X24Y1095D02*
X42Y1095D01*
X57Y1095D02*
X62Y1095D01*
X68Y1095D02*
X73Y1095D01*
X390Y1095D02*
X424Y1095D01*
X440Y1095D02*
X446Y1095D01*
X465Y1095D02*
X474Y1095D01*
X484Y1095D02*
X502Y1095D01*
X511Y1095D02*
X529Y1095D01*
X891Y1095D02*
X907Y1095D01*
X923Y1095D02*
X927Y1095D01*
X936Y1095D02*
X940Y1095D01*
X959Y1095D02*
X975Y1095D01*
X994Y1095D02*
X1001Y1095D01*
X0Y1094D02*
X7Y1094D01*
X38Y1094D02*
X42Y1094D01*
X58Y1094D02*
X62Y1094D01*
X68Y1094D02*
X72Y1094D01*
X390Y1094D02*
X424Y1094D01*
X440Y1094D02*
X446Y1094D01*
X467Y1094D02*
X474Y1094D01*
X484Y1094D02*
X502Y1094D01*
X511Y1094D02*
X529Y1094D01*
X891Y1094D02*
X907Y1094D01*
X923Y1094D02*
X927Y1094D01*
X935Y1094D02*
X940Y1094D01*
X959Y1094D02*
X975Y1094D01*
X994Y1094D02*
X1001Y1094D01*
X0Y1093D02*
X7Y1093D01*
X38Y1093D02*
X42Y1093D01*
X58Y1093D02*
X62Y1093D01*
X68Y1093D02*
X72Y1093D01*
X391Y1093D02*
X423Y1093D01*
X441Y1093D02*
X446Y1093D01*
X468Y1093D02*
X473Y1093D01*
X484Y1093D02*
X502Y1093D01*
X511Y1093D02*
X529Y1093D01*
X891Y1093D02*
X907Y1093D01*
X924Y1093D02*
X928Y1093D01*
X935Y1093D02*
X939Y1093D01*
X960Y1093D02*
X976Y1093D01*
X994Y1093D02*
X1001Y1093D01*
X0Y1092D02*
X7Y1092D01*
X38Y1092D02*
X42Y1092D01*
X59Y1092D02*
X63Y1092D01*
X67Y1092D02*
X71Y1092D01*
X392Y1092D02*
X422Y1092D01*
X442Y1092D02*
X445Y1092D01*
X469Y1092D02*
X473Y1092D01*
X484Y1092D02*
X502Y1092D01*
X511Y1092D02*
X529Y1092D01*
X903Y1092D02*
X908Y1092D01*
X924Y1092D02*
X928Y1092D01*
X935Y1092D02*
X939Y1092D01*
X971Y1092D02*
X977Y1092D01*
X994Y1092D02*
X1001Y1092D01*
X0Y1091D02*
X7Y1091D01*
X38Y1091D02*
X42Y1091D01*
X59Y1091D02*
X63Y1091D01*
X67Y1091D02*
X71Y1091D01*
X904Y1091D02*
X908Y1091D01*
X924Y1091D02*
X929Y1091D01*
X934Y1091D02*
X938Y1091D01*
X973Y1091D02*
X977Y1091D01*
X994Y1091D02*
X1001Y1091D01*
X0Y1090D02*
X7Y1090D01*
X38Y1090D02*
X42Y1090D01*
X59Y1090D02*
X64Y1090D01*
X66Y1090D02*
X71Y1090D01*
X905Y1090D02*
X908Y1090D01*
X925Y1090D02*
X929Y1090D01*
X934Y1090D02*
X938Y1090D01*
X973Y1090D02*
X977Y1090D01*
X994Y1090D02*
X1001Y1090D01*
X0Y1089D02*
X7Y1089D01*
X38Y1089D02*
X42Y1089D01*
X60Y1089D02*
X64Y1089D01*
X66Y1089D02*
X70Y1089D01*
X905Y1089D02*
X908Y1089D01*
X925Y1089D02*
X929Y1089D01*
X933Y1089D02*
X938Y1089D01*
X973Y1089D02*
X977Y1089D01*
X994Y1089D02*
X1001Y1089D01*
X0Y1088D02*
X7Y1088D01*
X38Y1088D02*
X42Y1088D01*
X60Y1088D02*
X70Y1088D01*
X905Y1088D02*
X908Y1088D01*
X925Y1088D02*
X930Y1088D01*
X933Y1088D02*
X937Y1088D01*
X973Y1088D02*
X977Y1088D01*
X994Y1088D02*
X1001Y1088D01*
X0Y1087D02*
X7Y1087D01*
X38Y1087D02*
X42Y1087D01*
X60Y1087D02*
X69Y1087D01*
X905Y1087D02*
X908Y1087D01*
X926Y1087D02*
X930Y1087D01*
X933Y1087D02*
X937Y1087D01*
X973Y1087D02*
X977Y1087D01*
X994Y1087D02*
X1001Y1087D01*
X0Y1086D02*
X7Y1086D01*
X38Y1086D02*
X42Y1086D01*
X61Y1086D02*
X69Y1086D01*
X905Y1086D02*
X908Y1086D01*
X926Y1086D02*
X930Y1086D01*
X932Y1086D02*
X936Y1086D01*
X973Y1086D02*
X977Y1086D01*
X994Y1086D02*
X1001Y1086D01*
X0Y1085D02*
X7Y1085D01*
X21Y1085D02*
X22Y1085D01*
X38Y1085D02*
X42Y1085D01*
X61Y1085D02*
X69Y1085D01*
X905Y1085D02*
X908Y1085D01*
X927Y1085D02*
X936Y1085D01*
X973Y1085D02*
X977Y1085D01*
X994Y1085D02*
X1001Y1085D01*
X0Y1084D02*
X7Y1084D01*
X20Y1084D02*
X24Y1084D01*
X38Y1084D02*
X42Y1084D01*
X62Y1084D02*
X68Y1084D01*
X905Y1084D02*
X908Y1084D01*
X927Y1084D02*
X936Y1084D01*
X973Y1084D02*
X977Y1084D01*
X994Y1084D02*
X1001Y1084D01*
X0Y1083D02*
X7Y1083D01*
X19Y1083D02*
X42Y1083D01*
X62Y1083D02*
X68Y1083D01*
X905Y1083D02*
X908Y1083D01*
X927Y1083D02*
X935Y1083D01*
X973Y1083D02*
X977Y1083D01*
X994Y1083D02*
X1001Y1083D01*
X0Y1082D02*
X7Y1082D01*
X20Y1082D02*
X42Y1082D01*
X62Y1082D02*
X68Y1082D01*
X905Y1082D02*
X908Y1082D01*
X928Y1082D02*
X935Y1082D01*
X973Y1082D02*
X977Y1082D01*
X994Y1082D02*
X1001Y1082D01*
X0Y1081D02*
X7Y1081D01*
X20Y1081D02*
X41Y1081D01*
X63Y1081D02*
X67Y1081D01*
X905Y1081D02*
X908Y1081D01*
X928Y1081D02*
X935Y1081D01*
X973Y1081D02*
X977Y1081D01*
X994Y1081D02*
X1001Y1081D01*
X0Y1080D02*
X7Y1080D01*
X22Y1080D02*
X41Y1080D01*
X63Y1080D02*
X67Y1080D01*
X887Y1080D02*
X908Y1080D01*
X929Y1080D02*
X934Y1080D01*
X955Y1080D02*
X977Y1080D01*
X994Y1080D02*
X1001Y1080D01*
X0Y1079D02*
X7Y1079D01*
X25Y1079D02*
X39Y1079D01*
X64Y1079D02*
X66Y1079D01*
X886Y1079D02*
X908Y1079D01*
X929Y1079D02*
X934Y1079D01*
X954Y1079D02*
X977Y1079D01*
X994Y1079D02*
X1001Y1079D01*
X0Y1078D02*
X7Y1078D01*
X886Y1078D02*
X907Y1078D01*
X929Y1078D02*
X933Y1078D01*
X954Y1078D02*
X976Y1078D01*
X994Y1078D02*
X1001Y1078D01*
X0Y1077D02*
X7Y1077D01*
X886Y1077D02*
X907Y1077D01*
X930Y1077D02*
X933Y1077D01*
X955Y1077D02*
X975Y1077D01*
X994Y1077D02*
X1001Y1077D01*
X0Y1076D02*
X7Y1076D01*
X888Y1076D02*
X904Y1076D01*
X931Y1076D02*
X931Y1076D01*
X956Y1076D02*
X973Y1076D01*
X994Y1076D02*
X1001Y1076D01*
X0Y1075D02*
X7Y1075D01*
X994Y1075D02*
X1001Y1075D01*
X0Y1074D02*
X7Y1074D01*
X994Y1074D02*
X1001Y1074D01*
X0Y1073D02*
X7Y1073D01*
X994Y1073D02*
X1001Y1073D01*
X0Y1072D02*
X7Y1072D01*
X994Y1072D02*
X1001Y1072D01*
X0Y1071D02*
X7Y1071D01*
X994Y1071D02*
X1001Y1071D01*
X0Y1070D02*
X7Y1070D01*
X994Y1070D02*
X1001Y1070D01*
X0Y1069D02*
X7Y1069D01*
X994Y1069D02*
X1001Y1069D01*
X0Y1068D02*
X7Y1068D01*
X994Y1068D02*
X1001Y1068D01*
X0Y1067D02*
X7Y1067D01*
X994Y1067D02*
X1001Y1067D01*
X0Y1066D02*
X7Y1066D01*
X994Y1066D02*
X1001Y1066D01*
X0Y1065D02*
X7Y1065D01*
X994Y1065D02*
X1001Y1065D01*
X0Y1064D02*
X7Y1064D01*
X994Y1064D02*
X1001Y1064D01*
X0Y1063D02*
X7Y1063D01*
X994Y1063D02*
X1001Y1063D01*
X0Y1062D02*
X7Y1062D01*
X994Y1062D02*
X1001Y1062D01*
X0Y1061D02*
X7Y1061D01*
X994Y1061D02*
X1001Y1061D01*
X0Y1060D02*
X7Y1060D01*
X994Y1060D02*
X1001Y1060D01*
X0Y1059D02*
X7Y1059D01*
X994Y1059D02*
X1001Y1059D01*
X0Y1058D02*
X7Y1058D01*
X994Y1058D02*
X1001Y1058D01*
X0Y1057D02*
X7Y1057D01*
X994Y1057D02*
X1001Y1057D01*
X0Y1056D02*
X7Y1056D01*
X994Y1056D02*
X1001Y1056D01*
X0Y1055D02*
X7Y1055D01*
X994Y1055D02*
X1001Y1055D01*
X0Y1054D02*
X7Y1054D01*
X994Y1054D02*
X1001Y1054D01*
X0Y1053D02*
X7Y1053D01*
X994Y1053D02*
X1001Y1053D01*
X0Y1052D02*
X7Y1052D01*
X994Y1052D02*
X1001Y1052D01*
X0Y1051D02*
X7Y1051D01*
X994Y1051D02*
X1001Y1051D01*
X0Y1050D02*
X7Y1050D01*
X994Y1050D02*
X1001Y1050D01*
X0Y1049D02*
X7Y1049D01*
X994Y1049D02*
X1001Y1049D01*
X0Y1048D02*
X7Y1048D01*
X994Y1048D02*
X1001Y1048D01*
X0Y1047D02*
X7Y1047D01*
X994Y1047D02*
X1001Y1047D01*
X0Y1046D02*
X7Y1046D01*
X994Y1046D02*
X1001Y1046D01*
X0Y1045D02*
X7Y1045D01*
X994Y1045D02*
X1001Y1045D01*
X0Y1044D02*
X7Y1044D01*
X994Y1044D02*
X1001Y1044D01*
X0Y1043D02*
X7Y1043D01*
X994Y1043D02*
X1001Y1043D01*
X0Y1042D02*
X7Y1042D01*
X994Y1042D02*
X1001Y1042D01*
X0Y1041D02*
X7Y1041D01*
X994Y1041D02*
X1001Y1041D01*
X0Y1040D02*
X7Y1040D01*
X994Y1040D02*
X1001Y1040D01*
X0Y1039D02*
X7Y1039D01*
X994Y1039D02*
X1001Y1039D01*
X0Y1038D02*
X7Y1038D01*
X994Y1038D02*
X1001Y1038D01*
X0Y1037D02*
X7Y1037D01*
X994Y1037D02*
X1001Y1037D01*
X0Y1036D02*
X7Y1036D01*
X994Y1036D02*
X1001Y1036D01*
X0Y1035D02*
X7Y1035D01*
X994Y1035D02*
X1001Y1035D01*
X0Y1034D02*
X7Y1034D01*
X994Y1034D02*
X1001Y1034D01*
X0Y1033D02*
X7Y1033D01*
X994Y1033D02*
X1001Y1033D01*
X0Y1032D02*
X7Y1032D01*
X994Y1032D02*
X1001Y1032D01*
X0Y1031D02*
X7Y1031D01*
X994Y1031D02*
X1001Y1031D01*
X0Y1030D02*
X7Y1030D01*
X994Y1030D02*
X1001Y1030D01*
X0Y1029D02*
X7Y1029D01*
X994Y1029D02*
X1001Y1029D01*
X0Y1028D02*
X7Y1028D01*
X994Y1028D02*
X1001Y1028D01*
X0Y1027D02*
X7Y1027D01*
X994Y1027D02*
X1001Y1027D01*
X0Y1026D02*
X7Y1026D01*
X994Y1026D02*
X1001Y1026D01*
X0Y1025D02*
X7Y1025D01*
X994Y1025D02*
X1001Y1025D01*
X0Y1024D02*
X7Y1024D01*
X994Y1024D02*
X1001Y1024D01*
X0Y1023D02*
X7Y1023D01*
X994Y1023D02*
X1001Y1023D01*
X0Y1022D02*
X7Y1022D01*
X994Y1022D02*
X1001Y1022D01*
X0Y1021D02*
X7Y1021D01*
X994Y1021D02*
X1001Y1021D01*
X0Y1020D02*
X7Y1020D01*
X994Y1020D02*
X1001Y1020D01*
X0Y1019D02*
X7Y1019D01*
X994Y1019D02*
X1001Y1019D01*
X0Y1018D02*
X7Y1018D01*
X994Y1018D02*
X1001Y1018D01*
X0Y1017D02*
X7Y1017D01*
X994Y1017D02*
X1001Y1017D01*
X0Y1016D02*
X7Y1016D01*
X994Y1016D02*
X1001Y1016D01*
X0Y1015D02*
X7Y1015D01*
X994Y1015D02*
X1001Y1015D01*
X0Y1014D02*
X6Y1014D01*
X994Y1014D02*
X1001Y1014D01*
X0Y1013D02*
X6Y1013D01*
X994Y1013D02*
X1001Y1013D01*
X0Y1012D02*
X6Y1012D01*
X994Y1012D02*
X1001Y1012D01*
X0Y1011D02*
X6Y1011D01*
X994Y1011D02*
X1001Y1011D01*
X0Y1010D02*
X6Y1010D01*
X994Y1010D02*
X1001Y1010D01*
X0Y1009D02*
X6Y1009D01*
X292Y1009D02*
X359Y1009D01*
X560Y1009D02*
X607Y1009D01*
X994Y1009D02*
X1001Y1009D01*
X0Y1008D02*
X6Y1008D01*
X293Y1008D02*
X359Y1008D01*
X560Y1008D02*
X607Y1008D01*
X994Y1008D02*
X1001Y1008D01*
X0Y1007D02*
X6Y1007D01*
X293Y1007D02*
X359Y1007D01*
X560Y1007D02*
X607Y1007D01*
X994Y1007D02*
X1001Y1007D01*
X0Y1006D02*
X5Y1006D01*
X293Y1006D02*
X359Y1006D01*
X560Y1006D02*
X607Y1006D01*
X994Y1006D02*
X1001Y1006D01*
X0Y1005D02*
X5Y1005D01*
X293Y1005D02*
X359Y1005D01*
X560Y1005D02*
X607Y1005D01*
X994Y1005D02*
X1001Y1005D01*
X0Y1004D02*
X5Y1004D01*
X293Y1004D02*
X359Y1004D01*
X560Y1004D02*
X607Y1004D01*
X994Y1004D02*
X1001Y1004D01*
X0Y1003D02*
X5Y1003D01*
X293Y1003D02*
X359Y1003D01*
X560Y1003D02*
X607Y1003D01*
X994Y1003D02*
X1001Y1003D01*
X0Y1002D02*
X6Y1002D01*
X293Y1002D02*
X359Y1002D01*
X560Y1002D02*
X607Y1002D01*
X994Y1002D02*
X1001Y1002D01*
X0Y1001D02*
X6Y1001D01*
X293Y1001D02*
X359Y1001D01*
X560Y1001D02*
X607Y1001D01*
X994Y1001D02*
X1001Y1001D01*
X0Y1000D02*
X6Y1000D01*
X292Y1000D02*
X359Y1000D01*
X560Y1000D02*
X607Y1000D01*
X994Y1000D02*
X1001Y1000D01*
X0Y999D02*
X6Y999D01*
X994Y999D02*
X1001Y999D01*
X0Y998D02*
X6Y998D01*
X994Y998D02*
X1001Y998D01*
X0Y997D02*
X6Y997D01*
X994Y997D02*
X1001Y997D01*
X0Y996D02*
X6Y996D01*
X994Y996D02*
X1001Y996D01*
X0Y995D02*
X7Y995D01*
X994Y995D02*
X1001Y995D01*
X0Y994D02*
X7Y994D01*
X994Y994D02*
X1001Y994D01*
X0Y993D02*
X7Y993D01*
X994Y993D02*
X1001Y993D01*
X0Y992D02*
X7Y992D01*
X994Y992D02*
X1001Y992D01*
X0Y991D02*
X7Y991D01*
X994Y991D02*
X1001Y991D01*
X0Y990D02*
X7Y990D01*
X994Y990D02*
X1001Y990D01*
X0Y989D02*
X7Y989D01*
X994Y989D02*
X1001Y989D01*
X0Y988D02*
X7Y988D01*
X994Y988D02*
X1001Y988D01*
X0Y987D02*
X7Y987D01*
X994Y987D02*
X1001Y987D01*
X0Y986D02*
X7Y986D01*
X994Y986D02*
X1001Y986D01*
X0Y985D02*
X7Y985D01*
X994Y985D02*
X1001Y985D01*
X0Y984D02*
X7Y984D01*
X994Y984D02*
X1001Y984D01*
X0Y983D02*
X7Y983D01*
X994Y983D02*
X1001Y983D01*
X0Y982D02*
X7Y982D01*
X994Y982D02*
X1001Y982D01*
X0Y981D02*
X7Y981D01*
X994Y981D02*
X1001Y981D01*
X0Y980D02*
X7Y980D01*
X994Y980D02*
X1001Y980D01*
X0Y979D02*
X7Y979D01*
X994Y979D02*
X1001Y979D01*
X0Y978D02*
X7Y978D01*
X994Y978D02*
X1001Y978D01*
X0Y977D02*
X7Y977D01*
X994Y977D02*
X1001Y977D01*
X0Y976D02*
X7Y976D01*
X994Y976D02*
X1001Y976D01*
X0Y975D02*
X7Y975D01*
X994Y975D02*
X1001Y975D01*
X0Y974D02*
X7Y974D01*
X994Y974D02*
X1001Y974D01*
X0Y973D02*
X7Y973D01*
X994Y973D02*
X1001Y973D01*
X0Y972D02*
X7Y972D01*
X994Y972D02*
X1001Y972D01*
X0Y971D02*
X7Y971D01*
X994Y971D02*
X1001Y971D01*
X0Y970D02*
X7Y970D01*
X994Y970D02*
X1001Y970D01*
X0Y969D02*
X7Y969D01*
X994Y969D02*
X1001Y969D01*
X0Y968D02*
X7Y968D01*
X994Y968D02*
X1001Y968D01*
X0Y967D02*
X7Y967D01*
X994Y967D02*
X1001Y967D01*
X0Y966D02*
X7Y966D01*
X994Y966D02*
X1001Y966D01*
X0Y965D02*
X7Y965D01*
X994Y965D02*
X1001Y965D01*
X0Y964D02*
X7Y964D01*
X994Y964D02*
X1001Y964D01*
X0Y963D02*
X7Y963D01*
X994Y963D02*
X1001Y963D01*
X0Y962D02*
X7Y962D01*
X994Y962D02*
X1001Y962D01*
X0Y961D02*
X7Y961D01*
X994Y961D02*
X1001Y961D01*
X0Y960D02*
X7Y960D01*
X994Y960D02*
X1001Y960D01*
X0Y959D02*
X7Y959D01*
X994Y959D02*
X1001Y959D01*
X0Y958D02*
X7Y958D01*
X994Y958D02*
X1001Y958D01*
X0Y957D02*
X7Y957D01*
X994Y957D02*
X1001Y957D01*
X0Y956D02*
X7Y956D01*
X994Y956D02*
X1001Y956D01*
X0Y955D02*
X7Y955D01*
X994Y955D02*
X1001Y955D01*
X0Y954D02*
X7Y954D01*
X994Y954D02*
X1001Y954D01*
X0Y953D02*
X7Y953D01*
X994Y953D02*
X1001Y953D01*
X0Y952D02*
X7Y952D01*
X994Y952D02*
X1001Y952D01*
X0Y951D02*
X7Y951D01*
X994Y951D02*
X1001Y951D01*
X0Y950D02*
X7Y950D01*
X994Y950D02*
X1001Y950D01*
X0Y949D02*
X7Y949D01*
X994Y949D02*
X1001Y949D01*
X0Y948D02*
X7Y948D01*
X994Y948D02*
X1001Y948D01*
X0Y947D02*
X7Y947D01*
X994Y947D02*
X1001Y947D01*
X0Y946D02*
X7Y946D01*
X994Y946D02*
X1001Y946D01*
X0Y945D02*
X7Y945D01*
X994Y945D02*
X1001Y945D01*
X0Y944D02*
X7Y944D01*
X994Y944D02*
X1001Y944D01*
X0Y943D02*
X7Y943D01*
X994Y943D02*
X1001Y943D01*
X0Y942D02*
X7Y942D01*
X994Y942D02*
X1001Y942D01*
X0Y941D02*
X7Y941D01*
X994Y941D02*
X1001Y941D01*
X0Y940D02*
X7Y940D01*
X994Y940D02*
X1001Y940D01*
X0Y939D02*
X7Y939D01*
X994Y939D02*
X1001Y939D01*
X0Y938D02*
X7Y938D01*
X994Y938D02*
X1001Y938D01*
X0Y937D02*
X7Y937D01*
X994Y937D02*
X1001Y937D01*
X0Y936D02*
X7Y936D01*
X994Y936D02*
X1001Y936D01*
X0Y935D02*
X7Y935D01*
X994Y935D02*
X1001Y935D01*
X0Y934D02*
X7Y934D01*
X994Y934D02*
X1001Y934D01*
X0Y933D02*
X7Y933D01*
X994Y933D02*
X1001Y933D01*
X0Y932D02*
X7Y932D01*
X994Y932D02*
X1001Y932D01*
X0Y931D02*
X7Y931D01*
X994Y931D02*
X1001Y931D01*
X0Y930D02*
X7Y930D01*
X994Y930D02*
X1001Y930D01*
X0Y929D02*
X7Y929D01*
X994Y929D02*
X1001Y929D01*
X0Y928D02*
X7Y928D01*
X994Y928D02*
X1001Y928D01*
X0Y927D02*
X7Y927D01*
X994Y927D02*
X1001Y927D01*
X0Y926D02*
X7Y926D01*
X994Y926D02*
X1001Y926D01*
X0Y925D02*
X7Y925D01*
X994Y925D02*
X1001Y925D01*
X0Y924D02*
X7Y924D01*
X994Y924D02*
X1001Y924D01*
X0Y923D02*
X7Y923D01*
X994Y923D02*
X1001Y923D01*
X0Y922D02*
X7Y922D01*
X994Y922D02*
X1001Y922D01*
X0Y921D02*
X7Y921D01*
X994Y921D02*
X1001Y921D01*
X0Y920D02*
X7Y920D01*
X994Y920D02*
X1001Y920D01*
X0Y919D02*
X7Y919D01*
X994Y919D02*
X1001Y919D01*
X0Y918D02*
X7Y918D01*
X994Y918D02*
X1001Y918D01*
X0Y917D02*
X7Y917D01*
X994Y917D02*
X1001Y917D01*
X0Y916D02*
X7Y916D01*
X994Y916D02*
X1001Y916D01*
X0Y915D02*
X7Y915D01*
X994Y915D02*
X1001Y915D01*
X0Y914D02*
X6Y914D01*
X994Y914D02*
X1001Y914D01*
X0Y913D02*
X6Y913D01*
X994Y913D02*
X1001Y913D01*
X0Y912D02*
X6Y912D01*
X994Y912D02*
X1001Y912D01*
X0Y911D02*
X6Y911D01*
X994Y911D02*
X1001Y911D01*
X0Y910D02*
X6Y910D01*
X994Y910D02*
X1001Y910D01*
X0Y909D02*
X6Y909D01*
X994Y909D02*
X1001Y909D01*
X0Y908D02*
X6Y908D01*
X994Y908D02*
X1001Y908D01*
X0Y907D02*
X6Y907D01*
X994Y907D02*
X1001Y907D01*
X0Y906D02*
X5Y906D01*
X994Y906D02*
X1001Y906D01*
X0Y905D02*
X5Y905D01*
X994Y905D02*
X1001Y905D01*
X0Y904D02*
X5Y904D01*
X994Y904D02*
X1001Y904D01*
X0Y903D02*
X5Y903D01*
X994Y903D02*
X1001Y903D01*
X0Y902D02*
X6Y902D01*
X994Y902D02*
X1001Y902D01*
X0Y901D02*
X6Y901D01*
X994Y901D02*
X1001Y901D01*
X0Y900D02*
X6Y900D01*
X994Y900D02*
X1001Y900D01*
X0Y899D02*
X6Y899D01*
X994Y899D02*
X1001Y899D01*
X0Y898D02*
X6Y898D01*
X994Y898D02*
X1001Y898D01*
X0Y897D02*
X6Y897D01*
X994Y897D02*
X1001Y897D01*
X0Y896D02*
X6Y896D01*
X994Y896D02*
X1001Y896D01*
X0Y895D02*
X7Y895D01*
X994Y895D02*
X1001Y895D01*
X0Y894D02*
X7Y894D01*
X994Y894D02*
X1001Y894D01*
X0Y893D02*
X7Y893D01*
X994Y893D02*
X1001Y893D01*
X0Y892D02*
X7Y892D01*
X994Y892D02*
X1001Y892D01*
X0Y891D02*
X7Y891D01*
X994Y891D02*
X1001Y891D01*
X0Y890D02*
X7Y890D01*
X994Y890D02*
X1001Y890D01*
X0Y889D02*
X7Y889D01*
X994Y889D02*
X1001Y889D01*
X0Y888D02*
X7Y888D01*
X994Y888D02*
X1001Y888D01*
X0Y887D02*
X7Y887D01*
X994Y887D02*
X1001Y887D01*
X0Y886D02*
X7Y886D01*
X994Y886D02*
X1001Y886D01*
X0Y885D02*
X7Y885D01*
X994Y885D02*
X1001Y885D01*
X0Y884D02*
X7Y884D01*
X994Y884D02*
X1001Y884D01*
X0Y883D02*
X7Y883D01*
X994Y883D02*
X1001Y883D01*
X0Y882D02*
X7Y882D01*
X994Y882D02*
X1001Y882D01*
X0Y881D02*
X7Y881D01*
X994Y881D02*
X1001Y881D01*
X0Y880D02*
X7Y880D01*
X994Y880D02*
X1001Y880D01*
X0Y879D02*
X7Y879D01*
X994Y879D02*
X1001Y879D01*
X0Y878D02*
X7Y878D01*
X994Y878D02*
X1001Y878D01*
X0Y877D02*
X7Y877D01*
X994Y877D02*
X1001Y877D01*
X0Y876D02*
X7Y876D01*
X994Y876D02*
X1001Y876D01*
X0Y875D02*
X7Y875D01*
X994Y875D02*
X1001Y875D01*
X0Y874D02*
X7Y874D01*
X994Y874D02*
X1001Y874D01*
X0Y873D02*
X7Y873D01*
X994Y873D02*
X1001Y873D01*
X0Y872D02*
X7Y872D01*
X994Y872D02*
X1001Y872D01*
X0Y871D02*
X7Y871D01*
X994Y871D02*
X1001Y871D01*
X0Y870D02*
X7Y870D01*
X994Y870D02*
X1001Y870D01*
X0Y869D02*
X7Y869D01*
X994Y869D02*
X1001Y869D01*
X0Y868D02*
X7Y868D01*
X994Y868D02*
X1001Y868D01*
X0Y867D02*
X7Y867D01*
X994Y867D02*
X1001Y867D01*
X0Y866D02*
X7Y866D01*
X994Y866D02*
X1001Y866D01*
X0Y865D02*
X7Y865D01*
X994Y865D02*
X1001Y865D01*
X0Y864D02*
X7Y864D01*
X994Y864D02*
X1001Y864D01*
X0Y863D02*
X7Y863D01*
X994Y863D02*
X1001Y863D01*
X0Y862D02*
X7Y862D01*
X994Y862D02*
X1001Y862D01*
X0Y861D02*
X7Y861D01*
X994Y861D02*
X1001Y861D01*
X0Y860D02*
X7Y860D01*
X994Y860D02*
X1001Y860D01*
X0Y859D02*
X7Y859D01*
X994Y859D02*
X1001Y859D01*
X0Y858D02*
X7Y858D01*
X994Y858D02*
X1001Y858D01*
X0Y857D02*
X7Y857D01*
X994Y857D02*
X1001Y857D01*
X0Y856D02*
X7Y856D01*
X994Y856D02*
X1001Y856D01*
X0Y855D02*
X7Y855D01*
X994Y855D02*
X1001Y855D01*
X0Y854D02*
X7Y854D01*
X994Y854D02*
X1001Y854D01*
X0Y853D02*
X7Y853D01*
X994Y853D02*
X1001Y853D01*
X0Y852D02*
X7Y852D01*
X994Y852D02*
X1001Y852D01*
X0Y851D02*
X7Y851D01*
X994Y851D02*
X1001Y851D01*
X0Y850D02*
X7Y850D01*
X994Y850D02*
X1001Y850D01*
X0Y849D02*
X7Y849D01*
X994Y849D02*
X1001Y849D01*
X0Y848D02*
X7Y848D01*
X994Y848D02*
X1001Y848D01*
X0Y847D02*
X7Y847D01*
X994Y847D02*
X1001Y847D01*
X0Y846D02*
X7Y846D01*
X994Y846D02*
X1001Y846D01*
X0Y845D02*
X7Y845D01*
X994Y845D02*
X1001Y845D01*
X0Y844D02*
X7Y844D01*
X994Y844D02*
X1001Y844D01*
X0Y843D02*
X7Y843D01*
X994Y843D02*
X1001Y843D01*
X0Y842D02*
X7Y842D01*
X994Y842D02*
X1001Y842D01*
X0Y841D02*
X7Y841D01*
X994Y841D02*
X1001Y841D01*
X0Y840D02*
X7Y840D01*
X994Y840D02*
X1001Y840D01*
X0Y839D02*
X7Y839D01*
X994Y839D02*
X1001Y839D01*
X0Y838D02*
X7Y838D01*
X994Y838D02*
X1001Y838D01*
X0Y837D02*
X7Y837D01*
X994Y837D02*
X1001Y837D01*
X0Y836D02*
X7Y836D01*
X994Y836D02*
X1001Y836D01*
X0Y835D02*
X7Y835D01*
X994Y835D02*
X1001Y835D01*
X0Y834D02*
X7Y834D01*
X994Y834D02*
X1001Y834D01*
X0Y833D02*
X7Y833D01*
X994Y833D02*
X1001Y833D01*
X0Y832D02*
X7Y832D01*
X994Y832D02*
X1001Y832D01*
X0Y831D02*
X7Y831D01*
X994Y831D02*
X1001Y831D01*
X0Y830D02*
X7Y830D01*
X994Y830D02*
X1001Y830D01*
X0Y829D02*
X7Y829D01*
X994Y829D02*
X1001Y829D01*
X0Y828D02*
X7Y828D01*
X994Y828D02*
X1001Y828D01*
X0Y827D02*
X7Y827D01*
X994Y827D02*
X1001Y827D01*
X0Y826D02*
X7Y826D01*
X994Y826D02*
X1001Y826D01*
X0Y825D02*
X7Y825D01*
X994Y825D02*
X1001Y825D01*
X0Y824D02*
X7Y824D01*
X994Y824D02*
X1001Y824D01*
X0Y823D02*
X7Y823D01*
X994Y823D02*
X1001Y823D01*
X0Y822D02*
X7Y822D01*
X994Y822D02*
X1001Y822D01*
X0Y821D02*
X7Y821D01*
X994Y821D02*
X1001Y821D01*
X0Y820D02*
X7Y820D01*
X994Y820D02*
X1001Y820D01*
X0Y819D02*
X7Y819D01*
X994Y819D02*
X1001Y819D01*
X0Y818D02*
X7Y818D01*
X994Y818D02*
X1001Y818D01*
X0Y817D02*
X7Y817D01*
X994Y817D02*
X1001Y817D01*
X0Y816D02*
X7Y816D01*
X994Y816D02*
X1001Y816D01*
X0Y815D02*
X7Y815D01*
X994Y815D02*
X1001Y815D01*
X0Y814D02*
X6Y814D01*
X994Y814D02*
X1001Y814D01*
X0Y813D02*
X6Y813D01*
X994Y813D02*
X1001Y813D01*
X0Y812D02*
X6Y812D01*
X994Y812D02*
X1001Y812D01*
X0Y811D02*
X6Y811D01*
X994Y811D02*
X1001Y811D01*
X0Y810D02*
X6Y810D01*
X994Y810D02*
X1001Y810D01*
X0Y809D02*
X6Y809D01*
X994Y809D02*
X1001Y809D01*
X0Y808D02*
X6Y808D01*
X994Y808D02*
X1001Y808D01*
X0Y807D02*
X6Y807D01*
X994Y807D02*
X1001Y807D01*
X0Y806D02*
X5Y806D01*
X994Y806D02*
X1001Y806D01*
X0Y805D02*
X5Y805D01*
X994Y805D02*
X1001Y805D01*
X0Y804D02*
X5Y804D01*
X994Y804D02*
X1001Y804D01*
X0Y803D02*
X5Y803D01*
X994Y803D02*
X1001Y803D01*
X0Y802D02*
X6Y802D01*
X994Y802D02*
X1001Y802D01*
X0Y801D02*
X6Y801D01*
X994Y801D02*
X1001Y801D01*
X0Y800D02*
X6Y800D01*
X994Y800D02*
X1001Y800D01*
X0Y799D02*
X6Y799D01*
X994Y799D02*
X1001Y799D01*
X0Y798D02*
X6Y798D01*
X994Y798D02*
X1001Y798D01*
X0Y797D02*
X6Y797D01*
X994Y797D02*
X1001Y797D01*
X0Y796D02*
X6Y796D01*
X994Y796D02*
X1001Y796D01*
X0Y795D02*
X7Y795D01*
X994Y795D02*
X1001Y795D01*
X0Y794D02*
X7Y794D01*
X994Y794D02*
X1001Y794D01*
X0Y793D02*
X7Y793D01*
X994Y793D02*
X1001Y793D01*
X0Y792D02*
X7Y792D01*
X994Y792D02*
X1001Y792D01*
X0Y791D02*
X7Y791D01*
X994Y791D02*
X1001Y791D01*
X0Y790D02*
X7Y790D01*
X994Y790D02*
X1001Y790D01*
X0Y789D02*
X7Y789D01*
X994Y789D02*
X1001Y789D01*
X0Y788D02*
X7Y788D01*
X994Y788D02*
X1001Y788D01*
X0Y787D02*
X7Y787D01*
X994Y787D02*
X1001Y787D01*
X0Y786D02*
X7Y786D01*
X994Y786D02*
X1001Y786D01*
X0Y785D02*
X7Y785D01*
X994Y785D02*
X1001Y785D01*
X0Y784D02*
X7Y784D01*
X994Y784D02*
X1001Y784D01*
X0Y783D02*
X7Y783D01*
X994Y783D02*
X1001Y783D01*
X0Y782D02*
X7Y782D01*
X994Y782D02*
X1001Y782D01*
X0Y781D02*
X7Y781D01*
X994Y781D02*
X1001Y781D01*
X0Y780D02*
X7Y780D01*
X994Y780D02*
X1001Y780D01*
X0Y779D02*
X7Y779D01*
X994Y779D02*
X1001Y779D01*
X0Y778D02*
X7Y778D01*
X994Y778D02*
X1001Y778D01*
X0Y777D02*
X7Y777D01*
X994Y777D02*
X1001Y777D01*
X0Y776D02*
X7Y776D01*
X994Y776D02*
X1001Y776D01*
X0Y775D02*
X7Y775D01*
X994Y775D02*
X1001Y775D01*
X0Y774D02*
X7Y774D01*
X994Y774D02*
X1001Y774D01*
X0Y773D02*
X7Y773D01*
X994Y773D02*
X1001Y773D01*
X0Y772D02*
X7Y772D01*
X994Y772D02*
X1001Y772D01*
X0Y771D02*
X7Y771D01*
X994Y771D02*
X1001Y771D01*
X0Y770D02*
X7Y770D01*
X994Y770D02*
X1001Y770D01*
X0Y769D02*
X7Y769D01*
X994Y769D02*
X1001Y769D01*
X0Y768D02*
X7Y768D01*
X994Y768D02*
X1001Y768D01*
X0Y767D02*
X7Y767D01*
X994Y767D02*
X1001Y767D01*
X0Y766D02*
X7Y766D01*
X994Y766D02*
X1001Y766D01*
X0Y765D02*
X7Y765D01*
X994Y765D02*
X1001Y765D01*
X0Y764D02*
X7Y764D01*
X994Y764D02*
X1001Y764D01*
X0Y763D02*
X7Y763D01*
X994Y763D02*
X1001Y763D01*
X0Y762D02*
X7Y762D01*
X994Y762D02*
X1001Y762D01*
X0Y761D02*
X7Y761D01*
X994Y761D02*
X1001Y761D01*
X0Y760D02*
X7Y760D01*
X994Y760D02*
X1001Y760D01*
X0Y759D02*
X7Y759D01*
X994Y759D02*
X1001Y759D01*
X0Y758D02*
X7Y758D01*
X994Y758D02*
X1001Y758D01*
X0Y757D02*
X7Y757D01*
X994Y757D02*
X1001Y757D01*
X0Y756D02*
X7Y756D01*
X433Y756D02*
X433Y756D01*
X733Y756D02*
X733Y756D01*
X994Y756D02*
X1001Y756D01*
X0Y755D02*
X7Y755D01*
X432Y755D02*
X434Y755D01*
X732Y755D02*
X734Y755D01*
X994Y755D02*
X1001Y755D01*
X0Y754D02*
X7Y754D01*
X431Y754D02*
X435Y754D01*
X731Y754D02*
X735Y754D01*
X994Y754D02*
X1001Y754D01*
X0Y753D02*
X7Y753D01*
X430Y753D02*
X436Y753D01*
X730Y753D02*
X736Y753D01*
X994Y753D02*
X1001Y753D01*
X0Y752D02*
X7Y752D01*
X429Y752D02*
X435Y752D01*
X729Y752D02*
X735Y752D01*
X994Y752D02*
X1001Y752D01*
X0Y751D02*
X7Y751D01*
X428Y751D02*
X434Y751D01*
X728Y751D02*
X734Y751D01*
X994Y751D02*
X1001Y751D01*
X0Y750D02*
X7Y750D01*
X427Y750D02*
X433Y750D01*
X727Y750D02*
X733Y750D01*
X994Y750D02*
X1001Y750D01*
X0Y749D02*
X7Y749D01*
X426Y749D02*
X432Y749D01*
X726Y749D02*
X732Y749D01*
X994Y749D02*
X1001Y749D01*
X0Y748D02*
X7Y748D01*
X994Y748D02*
X1001Y748D01*
X0Y747D02*
X7Y747D01*
X994Y747D02*
X1001Y747D01*
X0Y746D02*
X7Y746D01*
X994Y746D02*
X1001Y746D01*
X0Y745D02*
X7Y745D01*
X994Y745D02*
X1001Y745D01*
X0Y744D02*
X7Y744D01*
X994Y744D02*
X1001Y744D01*
X0Y743D02*
X7Y743D01*
X994Y743D02*
X1001Y743D01*
X0Y742D02*
X7Y742D01*
X994Y742D02*
X1001Y742D01*
X0Y741D02*
X7Y741D01*
X994Y741D02*
X1001Y741D01*
X0Y740D02*
X7Y740D01*
X994Y740D02*
X1001Y740D01*
X0Y739D02*
X7Y739D01*
X994Y739D02*
X1001Y739D01*
X0Y738D02*
X7Y738D01*
X994Y738D02*
X1001Y738D01*
X0Y737D02*
X7Y737D01*
X994Y737D02*
X1001Y737D01*
X0Y736D02*
X7Y736D01*
X994Y736D02*
X1001Y736D01*
X0Y735D02*
X7Y735D01*
X994Y735D02*
X1001Y735D01*
X0Y734D02*
X7Y734D01*
X994Y734D02*
X1001Y734D01*
X0Y733D02*
X7Y733D01*
X994Y733D02*
X1001Y733D01*
X0Y732D02*
X7Y732D01*
X994Y732D02*
X1001Y732D01*
X0Y731D02*
X7Y731D01*
X994Y731D02*
X1001Y731D01*
X0Y730D02*
X7Y730D01*
X994Y730D02*
X1001Y730D01*
X0Y729D02*
X7Y729D01*
X994Y729D02*
X1001Y729D01*
X0Y728D02*
X7Y728D01*
X405Y728D02*
X405Y728D01*
X705Y728D02*
X705Y728D01*
X994Y728D02*
X1001Y728D01*
X0Y727D02*
X7Y727D01*
X404Y727D02*
X405Y727D01*
X704Y727D02*
X705Y727D01*
X994Y727D02*
X1001Y727D01*
X0Y726D02*
X7Y726D01*
X403Y726D02*
X405Y726D01*
X703Y726D02*
X705Y726D01*
X994Y726D02*
X1001Y726D01*
X0Y725D02*
X7Y725D01*
X402Y725D02*
X405Y725D01*
X702Y725D02*
X705Y725D01*
X994Y725D02*
X1001Y725D01*
X0Y724D02*
X7Y724D01*
X401Y724D02*
X405Y724D01*
X701Y724D02*
X705Y724D01*
X994Y724D02*
X1001Y724D01*
X0Y723D02*
X7Y723D01*
X400Y723D02*
X405Y723D01*
X700Y723D02*
X705Y723D01*
X994Y723D02*
X1001Y723D01*
X0Y722D02*
X7Y722D01*
X399Y722D02*
X405Y722D01*
X699Y722D02*
X705Y722D01*
X994Y722D02*
X1001Y722D01*
X0Y721D02*
X7Y721D01*
X399Y721D02*
X404Y721D01*
X699Y721D02*
X704Y721D01*
X994Y721D02*
X1001Y721D01*
X0Y720D02*
X7Y720D01*
X400Y720D02*
X403Y720D01*
X700Y720D02*
X703Y720D01*
X994Y720D02*
X1001Y720D01*
X0Y719D02*
X7Y719D01*
X401Y719D02*
X402Y719D01*
X701Y719D02*
X702Y719D01*
X994Y719D02*
X1001Y719D01*
X0Y718D02*
X7Y718D01*
X994Y718D02*
X1001Y718D01*
X0Y717D02*
X7Y717D01*
X994Y717D02*
X1001Y717D01*
X0Y716D02*
X7Y716D01*
X994Y716D02*
X1001Y716D01*
X0Y715D02*
X7Y715D01*
X994Y715D02*
X1001Y715D01*
X0Y714D02*
X6Y714D01*
X994Y714D02*
X1001Y714D01*
X0Y713D02*
X6Y713D01*
X994Y713D02*
X1001Y713D01*
X0Y712D02*
X6Y712D01*
X994Y712D02*
X1001Y712D01*
X0Y711D02*
X6Y711D01*
X994Y711D02*
X1001Y711D01*
X0Y710D02*
X6Y710D01*
X994Y710D02*
X1001Y710D01*
X0Y709D02*
X6Y709D01*
X994Y709D02*
X1001Y709D01*
X0Y708D02*
X6Y708D01*
X994Y708D02*
X1001Y708D01*
X0Y707D02*
X6Y707D01*
X994Y707D02*
X1001Y707D01*
X0Y706D02*
X5Y706D01*
X994Y706D02*
X1001Y706D01*
X0Y705D02*
X5Y705D01*
X994Y705D02*
X1001Y705D01*
X0Y704D02*
X5Y704D01*
X994Y704D02*
X1001Y704D01*
X0Y703D02*
X5Y703D01*
X994Y703D02*
X1001Y703D01*
X0Y702D02*
X6Y702D01*
X994Y702D02*
X1001Y702D01*
X0Y701D02*
X6Y701D01*
X994Y701D02*
X1001Y701D01*
X0Y700D02*
X6Y700D01*
X994Y700D02*
X1001Y700D01*
X0Y699D02*
X6Y699D01*
X994Y699D02*
X1001Y699D01*
X0Y698D02*
X6Y698D01*
X994Y698D02*
X1001Y698D01*
X0Y697D02*
X6Y697D01*
X994Y697D02*
X1001Y697D01*
X0Y696D02*
X6Y696D01*
X994Y696D02*
X1001Y696D01*
X0Y695D02*
X7Y695D01*
X994Y695D02*
X1001Y695D01*
X0Y694D02*
X7Y694D01*
X994Y694D02*
X1001Y694D01*
X0Y693D02*
X7Y693D01*
X994Y693D02*
X1001Y693D01*
X0Y692D02*
X7Y692D01*
X994Y692D02*
X1001Y692D01*
X0Y691D02*
X7Y691D01*
X994Y691D02*
X1001Y691D01*
X0Y690D02*
X7Y690D01*
X994Y690D02*
X1001Y690D01*
X0Y689D02*
X7Y689D01*
X994Y689D02*
X1001Y689D01*
X0Y688D02*
X7Y688D01*
X994Y688D02*
X1001Y688D01*
X0Y687D02*
X7Y687D01*
X994Y687D02*
X1001Y687D01*
X0Y686D02*
X7Y686D01*
X994Y686D02*
X1001Y686D01*
X0Y685D02*
X7Y685D01*
X994Y685D02*
X1001Y685D01*
X0Y684D02*
X7Y684D01*
X994Y684D02*
X1001Y684D01*
X0Y683D02*
X7Y683D01*
X994Y683D02*
X1001Y683D01*
X0Y682D02*
X7Y682D01*
X994Y682D02*
X1001Y682D01*
X0Y681D02*
X7Y681D01*
X994Y681D02*
X1001Y681D01*
X0Y680D02*
X7Y680D01*
X994Y680D02*
X1001Y680D01*
X0Y679D02*
X7Y679D01*
X994Y679D02*
X1001Y679D01*
X0Y678D02*
X7Y678D01*
X994Y678D02*
X1001Y678D01*
X0Y677D02*
X7Y677D01*
X994Y677D02*
X1001Y677D01*
X0Y676D02*
X7Y676D01*
X994Y676D02*
X1001Y676D01*
X0Y675D02*
X7Y675D01*
X994Y675D02*
X1001Y675D01*
X0Y674D02*
X7Y674D01*
X994Y674D02*
X1001Y674D01*
X0Y673D02*
X7Y673D01*
X994Y673D02*
X1001Y673D01*
X0Y672D02*
X7Y672D01*
X994Y672D02*
X1001Y672D01*
X0Y671D02*
X7Y671D01*
X994Y671D02*
X1001Y671D01*
X0Y670D02*
X7Y670D01*
X994Y670D02*
X1001Y670D01*
X0Y669D02*
X7Y669D01*
X994Y669D02*
X1001Y669D01*
X0Y668D02*
X7Y668D01*
X994Y668D02*
X1001Y668D01*
X0Y667D02*
X7Y667D01*
X994Y667D02*
X1001Y667D01*
X0Y666D02*
X7Y666D01*
X994Y666D02*
X1001Y666D01*
X0Y665D02*
X7Y665D01*
X994Y665D02*
X1001Y665D01*
X0Y664D02*
X7Y664D01*
X994Y664D02*
X1001Y664D01*
X0Y663D02*
X7Y663D01*
X994Y663D02*
X1001Y663D01*
X0Y662D02*
X7Y662D01*
X994Y662D02*
X1001Y662D01*
X0Y661D02*
X7Y661D01*
X994Y661D02*
X1001Y661D01*
X0Y660D02*
X7Y660D01*
X994Y660D02*
X1001Y660D01*
X0Y659D02*
X7Y659D01*
X994Y659D02*
X1001Y659D01*
X0Y658D02*
X7Y658D01*
X994Y658D02*
X1001Y658D01*
X0Y657D02*
X7Y657D01*
X994Y657D02*
X1001Y657D01*
X0Y656D02*
X7Y656D01*
X994Y656D02*
X1001Y656D01*
X0Y655D02*
X7Y655D01*
X994Y655D02*
X1001Y655D01*
X0Y654D02*
X7Y654D01*
X994Y654D02*
X1001Y654D01*
X0Y653D02*
X7Y653D01*
X994Y653D02*
X1001Y653D01*
X0Y652D02*
X7Y652D01*
X994Y652D02*
X1001Y652D01*
X0Y651D02*
X7Y651D01*
X994Y651D02*
X1001Y651D01*
X0Y650D02*
X7Y650D01*
X994Y650D02*
X1001Y650D01*
X0Y649D02*
X7Y649D01*
X994Y649D02*
X1001Y649D01*
X0Y648D02*
X7Y648D01*
X994Y648D02*
X1001Y648D01*
X0Y647D02*
X7Y647D01*
X994Y647D02*
X1001Y647D01*
X0Y646D02*
X7Y646D01*
X994Y646D02*
X1001Y646D01*
X0Y645D02*
X7Y645D01*
X994Y645D02*
X1001Y645D01*
X0Y644D02*
X7Y644D01*
X994Y644D02*
X1001Y644D01*
X0Y643D02*
X7Y643D01*
X994Y643D02*
X1001Y643D01*
X0Y642D02*
X7Y642D01*
X994Y642D02*
X1001Y642D01*
X0Y641D02*
X7Y641D01*
X994Y641D02*
X1001Y641D01*
X0Y640D02*
X7Y640D01*
X994Y640D02*
X1001Y640D01*
X0Y639D02*
X7Y639D01*
X994Y639D02*
X1001Y639D01*
X0Y638D02*
X7Y638D01*
X994Y638D02*
X1001Y638D01*
X0Y637D02*
X7Y637D01*
X994Y637D02*
X1001Y637D01*
X0Y636D02*
X7Y636D01*
X994Y636D02*
X1001Y636D01*
X0Y635D02*
X7Y635D01*
X994Y635D02*
X1001Y635D01*
X0Y634D02*
X7Y634D01*
X994Y634D02*
X1001Y634D01*
X0Y633D02*
X7Y633D01*
X994Y633D02*
X1001Y633D01*
X0Y632D02*
X7Y632D01*
X994Y632D02*
X1001Y632D01*
X0Y631D02*
X7Y631D01*
X994Y631D02*
X1001Y631D01*
X0Y630D02*
X7Y630D01*
X994Y630D02*
X1001Y630D01*
X0Y629D02*
X7Y629D01*
X994Y629D02*
X1001Y629D01*
X0Y628D02*
X7Y628D01*
X994Y628D02*
X1001Y628D01*
X0Y627D02*
X7Y627D01*
X994Y627D02*
X1001Y627D01*
X0Y626D02*
X7Y626D01*
X994Y626D02*
X1001Y626D01*
X0Y625D02*
X7Y625D01*
X994Y625D02*
X1001Y625D01*
X0Y624D02*
X7Y624D01*
X994Y624D02*
X1001Y624D01*
X0Y623D02*
X7Y623D01*
X994Y623D02*
X1001Y623D01*
X0Y622D02*
X7Y622D01*
X994Y622D02*
X1001Y622D01*
X0Y621D02*
X7Y621D01*
X994Y621D02*
X1001Y621D01*
X0Y620D02*
X7Y620D01*
X994Y620D02*
X1001Y620D01*
X0Y619D02*
X7Y619D01*
X994Y619D02*
X1001Y619D01*
X0Y618D02*
X7Y618D01*
X994Y618D02*
X1001Y618D01*
X0Y617D02*
X7Y617D01*
X994Y617D02*
X1001Y617D01*
X0Y616D02*
X7Y616D01*
X994Y616D02*
X1001Y616D01*
X0Y615D02*
X7Y615D01*
X994Y615D02*
X1001Y615D01*
X0Y614D02*
X6Y614D01*
X994Y614D02*
X1001Y614D01*
X0Y613D02*
X6Y613D01*
X994Y613D02*
X1001Y613D01*
X0Y612D02*
X6Y612D01*
X994Y612D02*
X1001Y612D01*
X0Y611D02*
X6Y611D01*
X994Y611D02*
X1001Y611D01*
X0Y610D02*
X6Y610D01*
X994Y610D02*
X1001Y610D01*
X0Y609D02*
X6Y609D01*
X994Y609D02*
X1001Y609D01*
X0Y608D02*
X6Y608D01*
X994Y608D02*
X1001Y608D01*
X0Y607D02*
X6Y607D01*
X994Y607D02*
X1001Y607D01*
X0Y606D02*
X5Y606D01*
X994Y606D02*
X1001Y606D01*
X0Y605D02*
X5Y605D01*
X994Y605D02*
X1001Y605D01*
X0Y604D02*
X5Y604D01*
X994Y604D02*
X1001Y604D01*
X0Y603D02*
X6Y603D01*
X994Y603D02*
X1001Y603D01*
X0Y602D02*
X6Y602D01*
X994Y602D02*
X1001Y602D01*
X0Y601D02*
X6Y601D01*
X994Y601D02*
X1001Y601D01*
X0Y600D02*
X6Y600D01*
X994Y600D02*
X1001Y600D01*
X0Y599D02*
X6Y599D01*
X994Y599D02*
X1001Y599D01*
X0Y598D02*
X6Y598D01*
X994Y598D02*
X1001Y598D01*
X0Y597D02*
X6Y597D01*
X994Y597D02*
X1001Y597D01*
X0Y596D02*
X6Y596D01*
X994Y596D02*
X1001Y596D01*
X0Y595D02*
X7Y595D01*
X994Y595D02*
X1001Y595D01*
X0Y594D02*
X7Y594D01*
X994Y594D02*
X1001Y594D01*
X0Y593D02*
X7Y593D01*
X994Y593D02*
X1001Y593D01*
X0Y592D02*
X7Y592D01*
X994Y592D02*
X1001Y592D01*
X0Y591D02*
X7Y591D01*
X994Y591D02*
X1001Y591D01*
X0Y590D02*
X7Y590D01*
X994Y590D02*
X1001Y590D01*
X0Y589D02*
X7Y589D01*
X994Y589D02*
X1001Y589D01*
X0Y588D02*
X7Y588D01*
X994Y588D02*
X1001Y588D01*
X0Y587D02*
X7Y587D01*
X994Y587D02*
X1001Y587D01*
X0Y586D02*
X7Y586D01*
X994Y586D02*
X1001Y586D01*
X0Y585D02*
X7Y585D01*
X994Y585D02*
X1001Y585D01*
X0Y584D02*
X7Y584D01*
X994Y584D02*
X1001Y584D01*
X0Y583D02*
X7Y583D01*
X994Y583D02*
X1001Y583D01*
X0Y582D02*
X7Y582D01*
X994Y582D02*
X1001Y582D01*
X0Y581D02*
X7Y581D01*
X994Y581D02*
X1001Y581D01*
X0Y580D02*
X7Y580D01*
X994Y580D02*
X1001Y580D01*
X0Y579D02*
X7Y579D01*
X994Y579D02*
X1001Y579D01*
X0Y578D02*
X7Y578D01*
X994Y578D02*
X1001Y578D01*
X0Y577D02*
X7Y577D01*
X994Y577D02*
X1001Y577D01*
X0Y576D02*
X7Y576D01*
X994Y576D02*
X1001Y576D01*
X0Y575D02*
X7Y575D01*
X994Y575D02*
X1001Y575D01*
X0Y574D02*
X7Y574D01*
X994Y574D02*
X1001Y574D01*
X0Y573D02*
X7Y573D01*
X994Y573D02*
X1001Y573D01*
X0Y572D02*
X7Y572D01*
X994Y572D02*
X1001Y572D01*
X0Y571D02*
X7Y571D01*
X994Y571D02*
X1001Y571D01*
X0Y570D02*
X7Y570D01*
X994Y570D02*
X1001Y570D01*
X0Y569D02*
X7Y569D01*
X994Y569D02*
X1001Y569D01*
X0Y568D02*
X7Y568D01*
X994Y568D02*
X1001Y568D01*
X0Y567D02*
X7Y567D01*
X994Y567D02*
X1001Y567D01*
X0Y566D02*
X7Y566D01*
X994Y566D02*
X1001Y566D01*
X0Y565D02*
X7Y565D01*
X994Y565D02*
X1001Y565D01*
X0Y564D02*
X7Y564D01*
X994Y564D02*
X1001Y564D01*
X0Y563D02*
X7Y563D01*
X994Y563D02*
X1001Y563D01*
X0Y562D02*
X7Y562D01*
X994Y562D02*
X1001Y562D01*
X0Y561D02*
X7Y561D01*
X994Y561D02*
X1001Y561D01*
X0Y560D02*
X7Y560D01*
X994Y560D02*
X1001Y560D01*
X0Y559D02*
X7Y559D01*
X994Y559D02*
X1001Y559D01*
X0Y558D02*
X7Y558D01*
X994Y558D02*
X1001Y558D01*
X0Y557D02*
X7Y557D01*
X994Y557D02*
X1001Y557D01*
X0Y556D02*
X7Y556D01*
X994Y556D02*
X1001Y556D01*
X0Y555D02*
X7Y555D01*
X994Y555D02*
X1001Y555D01*
X0Y554D02*
X7Y554D01*
X994Y554D02*
X1001Y554D01*
X0Y553D02*
X7Y553D01*
X994Y553D02*
X1001Y553D01*
X0Y552D02*
X7Y552D01*
X994Y552D02*
X1001Y552D01*
X0Y551D02*
X7Y551D01*
X994Y551D02*
X1001Y551D01*
X0Y550D02*
X7Y550D01*
X994Y550D02*
X1001Y550D01*
X0Y549D02*
X7Y549D01*
X994Y549D02*
X1001Y549D01*
X0Y548D02*
X7Y548D01*
X994Y548D02*
X1001Y548D01*
X0Y547D02*
X7Y547D01*
X994Y547D02*
X1001Y547D01*
X0Y546D02*
X7Y546D01*
X994Y546D02*
X1001Y546D01*
X0Y545D02*
X7Y545D01*
X994Y545D02*
X1001Y545D01*
X0Y544D02*
X7Y544D01*
X994Y544D02*
X1001Y544D01*
X0Y543D02*
X7Y543D01*
X994Y543D02*
X1001Y543D01*
X0Y542D02*
X7Y542D01*
X994Y542D02*
X1001Y542D01*
X0Y541D02*
X7Y541D01*
X994Y541D02*
X1001Y541D01*
X0Y540D02*
X7Y540D01*
X994Y540D02*
X1001Y540D01*
X0Y539D02*
X7Y539D01*
X994Y539D02*
X1001Y539D01*
X0Y538D02*
X7Y538D01*
X994Y538D02*
X1001Y538D01*
X0Y537D02*
X7Y537D01*
X994Y537D02*
X1001Y537D01*
X0Y536D02*
X7Y536D01*
X994Y536D02*
X1001Y536D01*
X0Y535D02*
X7Y535D01*
X994Y535D02*
X1001Y535D01*
X0Y534D02*
X7Y534D01*
X994Y534D02*
X1001Y534D01*
X0Y533D02*
X7Y533D01*
X994Y533D02*
X1001Y533D01*
X0Y532D02*
X7Y532D01*
X994Y532D02*
X1001Y532D01*
X0Y531D02*
X7Y531D01*
X994Y531D02*
X1001Y531D01*
X0Y530D02*
X7Y530D01*
X994Y530D02*
X1001Y530D01*
X0Y529D02*
X7Y529D01*
X994Y529D02*
X1001Y529D01*
X0Y528D02*
X7Y528D01*
X994Y528D02*
X1001Y528D01*
X0Y527D02*
X7Y527D01*
X994Y527D02*
X1001Y527D01*
X0Y526D02*
X7Y526D01*
X994Y526D02*
X1001Y526D01*
X0Y525D02*
X7Y525D01*
X994Y525D02*
X1001Y525D01*
X0Y524D02*
X7Y524D01*
X994Y524D02*
X1001Y524D01*
X0Y523D02*
X7Y523D01*
X994Y523D02*
X1001Y523D01*
X0Y522D02*
X7Y522D01*
X994Y522D02*
X1001Y522D01*
X0Y521D02*
X7Y521D01*
X994Y521D02*
X1001Y521D01*
X0Y520D02*
X7Y520D01*
X994Y520D02*
X1001Y520D01*
X0Y519D02*
X7Y519D01*
X994Y519D02*
X1001Y519D01*
X0Y518D02*
X7Y518D01*
X994Y518D02*
X1001Y518D01*
X0Y517D02*
X7Y517D01*
X994Y517D02*
X1001Y517D01*
X0Y516D02*
X7Y516D01*
X994Y516D02*
X1001Y516D01*
X0Y515D02*
X7Y515D01*
X994Y515D02*
X1001Y515D01*
X0Y514D02*
X6Y514D01*
X994Y514D02*
X1001Y514D01*
X0Y513D02*
X6Y513D01*
X994Y513D02*
X1001Y513D01*
X0Y512D02*
X6Y512D01*
X994Y512D02*
X1001Y512D01*
X0Y511D02*
X6Y511D01*
X994Y511D02*
X1001Y511D01*
X0Y510D02*
X6Y510D01*
X994Y510D02*
X1001Y510D01*
X0Y509D02*
X6Y509D01*
X994Y509D02*
X1001Y509D01*
X0Y508D02*
X6Y508D01*
X994Y508D02*
X1001Y508D01*
X0Y507D02*
X6Y507D01*
X994Y507D02*
X1001Y507D01*
X0Y506D02*
X5Y506D01*
X994Y506D02*
X1001Y506D01*
X0Y505D02*
X5Y505D01*
X994Y505D02*
X1001Y505D01*
X0Y504D02*
X5Y504D01*
X994Y504D02*
X1001Y504D01*
X0Y503D02*
X6Y503D01*
X994Y503D02*
X1001Y503D01*
X0Y502D02*
X6Y502D01*
X994Y502D02*
X1001Y502D01*
X0Y501D02*
X6Y501D01*
X994Y501D02*
X1001Y501D01*
X0Y500D02*
X6Y500D01*
X994Y500D02*
X1001Y500D01*
X0Y499D02*
X6Y499D01*
X994Y499D02*
X1001Y499D01*
X0Y498D02*
X6Y498D01*
X994Y498D02*
X1001Y498D01*
X0Y497D02*
X6Y497D01*
X994Y497D02*
X1001Y497D01*
X0Y496D02*
X6Y496D01*
X994Y496D02*
X1001Y496D01*
X0Y495D02*
X7Y495D01*
X994Y495D02*
X1001Y495D01*
X0Y494D02*
X7Y494D01*
X994Y494D02*
X1001Y494D01*
X0Y493D02*
X7Y493D01*
X994Y493D02*
X1001Y493D01*
X0Y492D02*
X7Y492D01*
X994Y492D02*
X1001Y492D01*
X0Y491D02*
X7Y491D01*
X994Y491D02*
X1001Y491D01*
X0Y490D02*
X7Y490D01*
X994Y490D02*
X1001Y490D01*
X0Y489D02*
X7Y489D01*
X994Y489D02*
X1001Y489D01*
X0Y488D02*
X7Y488D01*
X994Y488D02*
X1001Y488D01*
X0Y487D02*
X7Y487D01*
X994Y487D02*
X1001Y487D01*
X0Y486D02*
X7Y486D01*
X994Y486D02*
X1001Y486D01*
X0Y485D02*
X7Y485D01*
X994Y485D02*
X1001Y485D01*
X0Y484D02*
X7Y484D01*
X994Y484D02*
X1001Y484D01*
X0Y483D02*
X7Y483D01*
X994Y483D02*
X1001Y483D01*
X0Y482D02*
X7Y482D01*
X994Y482D02*
X1001Y482D01*
X0Y481D02*
X7Y481D01*
X994Y481D02*
X1001Y481D01*
X0Y480D02*
X7Y480D01*
X994Y480D02*
X1001Y480D01*
X0Y479D02*
X7Y479D01*
X994Y479D02*
X1001Y479D01*
X0Y478D02*
X7Y478D01*
X994Y478D02*
X1001Y478D01*
X0Y477D02*
X7Y477D01*
X994Y477D02*
X1001Y477D01*
X0Y476D02*
X7Y476D01*
X994Y476D02*
X1001Y476D01*
X0Y475D02*
X7Y475D01*
X994Y475D02*
X1001Y475D01*
X0Y474D02*
X7Y474D01*
X994Y474D02*
X1001Y474D01*
X0Y473D02*
X7Y473D01*
X994Y473D02*
X1001Y473D01*
X0Y472D02*
X7Y472D01*
X994Y472D02*
X1001Y472D01*
X0Y471D02*
X7Y471D01*
X994Y471D02*
X1001Y471D01*
X0Y470D02*
X7Y470D01*
X994Y470D02*
X1001Y470D01*
X0Y469D02*
X7Y469D01*
X994Y469D02*
X1001Y469D01*
X0Y468D02*
X7Y468D01*
X994Y468D02*
X1001Y468D01*
X0Y467D02*
X7Y467D01*
X994Y467D02*
X1001Y467D01*
X0Y466D02*
X7Y466D01*
X994Y466D02*
X1001Y466D01*
X0Y465D02*
X7Y465D01*
X994Y465D02*
X1001Y465D01*
X0Y464D02*
X7Y464D01*
X994Y464D02*
X1001Y464D01*
X0Y463D02*
X7Y463D01*
X994Y463D02*
X1001Y463D01*
X0Y462D02*
X7Y462D01*
X994Y462D02*
X1001Y462D01*
X0Y461D02*
X7Y461D01*
X994Y461D02*
X1001Y461D01*
X0Y460D02*
X7Y460D01*
X994Y460D02*
X1001Y460D01*
X0Y459D02*
X7Y459D01*
X994Y459D02*
X1001Y459D01*
X0Y458D02*
X7Y458D01*
X994Y458D02*
X1001Y458D01*
X0Y457D02*
X7Y457D01*
X994Y457D02*
X1001Y457D01*
X0Y456D02*
X7Y456D01*
X994Y456D02*
X1001Y456D01*
X0Y455D02*
X7Y455D01*
X994Y455D02*
X1001Y455D01*
X0Y454D02*
X7Y454D01*
X994Y454D02*
X1001Y454D01*
X0Y453D02*
X7Y453D01*
X994Y453D02*
X1001Y453D01*
X0Y452D02*
X7Y452D01*
X994Y452D02*
X1001Y452D01*
X0Y451D02*
X7Y451D01*
X994Y451D02*
X1001Y451D01*
X0Y450D02*
X7Y450D01*
X994Y450D02*
X1001Y450D01*
X0Y449D02*
X7Y449D01*
X994Y449D02*
X1001Y449D01*
X0Y448D02*
X7Y448D01*
X994Y448D02*
X1001Y448D01*
X0Y447D02*
X7Y447D01*
X994Y447D02*
X1001Y447D01*
X0Y446D02*
X7Y446D01*
X994Y446D02*
X1001Y446D01*
X0Y445D02*
X7Y445D01*
X994Y445D02*
X1001Y445D01*
X0Y444D02*
X7Y444D01*
X994Y444D02*
X1001Y444D01*
X0Y443D02*
X7Y443D01*
X994Y443D02*
X1001Y443D01*
X0Y442D02*
X7Y442D01*
X994Y442D02*
X1001Y442D01*
X0Y441D02*
X7Y441D01*
X994Y441D02*
X1001Y441D01*
X0Y440D02*
X7Y440D01*
X994Y440D02*
X1001Y440D01*
X0Y439D02*
X7Y439D01*
X994Y439D02*
X1001Y439D01*
X0Y438D02*
X7Y438D01*
X994Y438D02*
X1001Y438D01*
X0Y437D02*
X7Y437D01*
X994Y437D02*
X1001Y437D01*
X0Y436D02*
X7Y436D01*
X994Y436D02*
X1001Y436D01*
X0Y435D02*
X7Y435D01*
X994Y435D02*
X1001Y435D01*
X0Y434D02*
X7Y434D01*
X994Y434D02*
X1001Y434D01*
X0Y433D02*
X7Y433D01*
X994Y433D02*
X1001Y433D01*
X0Y432D02*
X7Y432D01*
X994Y432D02*
X1001Y432D01*
X0Y431D02*
X7Y431D01*
X994Y431D02*
X1001Y431D01*
X0Y430D02*
X7Y430D01*
X994Y430D02*
X1001Y430D01*
X0Y429D02*
X7Y429D01*
X994Y429D02*
X1001Y429D01*
X0Y428D02*
X7Y428D01*
X994Y428D02*
X1001Y428D01*
X0Y427D02*
X7Y427D01*
X994Y427D02*
X1001Y427D01*
X0Y426D02*
X7Y426D01*
X994Y426D02*
X1001Y426D01*
X0Y425D02*
X7Y425D01*
X994Y425D02*
X1001Y425D01*
X0Y424D02*
X7Y424D01*
X994Y424D02*
X1001Y424D01*
X0Y423D02*
X7Y423D01*
X994Y423D02*
X1001Y423D01*
X0Y422D02*
X7Y422D01*
X994Y422D02*
X1001Y422D01*
X0Y421D02*
X7Y421D01*
X994Y421D02*
X1001Y421D01*
X0Y420D02*
X7Y420D01*
X994Y420D02*
X1001Y420D01*
X0Y419D02*
X7Y419D01*
X994Y419D02*
X1001Y419D01*
X0Y418D02*
X7Y418D01*
X994Y418D02*
X1001Y418D01*
X0Y417D02*
X7Y417D01*
X994Y417D02*
X1001Y417D01*
X0Y416D02*
X7Y416D01*
X994Y416D02*
X1001Y416D01*
X0Y415D02*
X7Y415D01*
X994Y415D02*
X1001Y415D01*
X0Y414D02*
X6Y414D01*
X994Y414D02*
X1001Y414D01*
X0Y413D02*
X6Y413D01*
X994Y413D02*
X1001Y413D01*
X0Y412D02*
X6Y412D01*
X994Y412D02*
X1001Y412D01*
X0Y411D02*
X6Y411D01*
X994Y411D02*
X1001Y411D01*
X0Y410D02*
X6Y410D01*
X994Y410D02*
X1001Y410D01*
X0Y409D02*
X6Y409D01*
X994Y409D02*
X1001Y409D01*
X0Y408D02*
X6Y408D01*
X994Y408D02*
X1001Y408D01*
X0Y407D02*
X6Y407D01*
X994Y407D02*
X1001Y407D01*
X0Y406D02*
X5Y406D01*
X994Y406D02*
X1001Y406D01*
X0Y405D02*
X5Y405D01*
X994Y405D02*
X1001Y405D01*
X0Y404D02*
X5Y404D01*
X994Y404D02*
X1001Y404D01*
X0Y403D02*
X6Y403D01*
X994Y403D02*
X1001Y403D01*
X0Y402D02*
X6Y402D01*
X994Y402D02*
X1001Y402D01*
X0Y401D02*
X6Y401D01*
X994Y401D02*
X1001Y401D01*
X0Y400D02*
X6Y400D01*
X994Y400D02*
X1001Y400D01*
X0Y399D02*
X6Y399D01*
X994Y399D02*
X1001Y399D01*
X0Y398D02*
X6Y398D01*
X994Y398D02*
X1001Y398D01*
X0Y397D02*
X6Y397D01*
X994Y397D02*
X1001Y397D01*
X0Y396D02*
X6Y396D01*
X994Y396D02*
X1001Y396D01*
X0Y395D02*
X7Y395D01*
X994Y395D02*
X1001Y395D01*
X0Y394D02*
X7Y394D01*
X994Y394D02*
X1001Y394D01*
X0Y393D02*
X7Y393D01*
X994Y393D02*
X1001Y393D01*
X0Y392D02*
X7Y392D01*
X994Y392D02*
X1001Y392D01*
X0Y391D02*
X7Y391D01*
X994Y391D02*
X1001Y391D01*
X0Y390D02*
X7Y390D01*
X994Y390D02*
X1001Y390D01*
X0Y389D02*
X7Y389D01*
X723Y389D02*
X725Y389D01*
X994Y389D02*
X1001Y389D01*
X0Y388D02*
X7Y388D01*
X445Y388D02*
X449Y388D01*
X723Y388D02*
X726Y388D01*
X994Y388D02*
X1001Y388D01*
X0Y387D02*
X7Y387D01*
X445Y387D02*
X450Y387D01*
X722Y387D02*
X726Y387D01*
X994Y387D02*
X1001Y387D01*
X0Y386D02*
X7Y386D01*
X409Y386D02*
X411Y386D01*
X444Y386D02*
X450Y386D01*
X485Y386D02*
X487Y386D01*
X722Y386D02*
X726Y386D01*
X994Y386D02*
X1001Y386D01*
X0Y385D02*
X7Y385D01*
X408Y385D02*
X411Y385D01*
X444Y385D02*
X450Y385D01*
X485Y385D02*
X488Y385D01*
X722Y385D02*
X726Y385D01*
X994Y385D02*
X1001Y385D01*
X0Y384D02*
X7Y384D01*
X408Y384D02*
X411Y384D01*
X444Y384D02*
X450Y384D01*
X485Y384D02*
X488Y384D01*
X721Y384D02*
X727Y384D01*
X994Y384D02*
X1001Y384D01*
X0Y383D02*
X7Y383D01*
X408Y383D02*
X411Y383D01*
X445Y383D02*
X449Y383D01*
X485Y383D02*
X488Y383D01*
X721Y383D02*
X727Y383D01*
X994Y383D02*
X1001Y383D01*
X0Y382D02*
X7Y382D01*
X408Y382D02*
X411Y382D01*
X485Y382D02*
X488Y382D01*
X721Y382D02*
X727Y382D01*
X994Y382D02*
X1001Y382D01*
X0Y381D02*
X7Y381D01*
X408Y381D02*
X411Y381D01*
X485Y381D02*
X488Y381D01*
X720Y381D02*
X728Y381D01*
X994Y381D02*
X1001Y381D01*
X0Y380D02*
X7Y380D01*
X408Y380D02*
X411Y380D01*
X485Y380D02*
X488Y380D01*
X720Y380D02*
X728Y380D01*
X745Y380D02*
X747Y380D01*
X753Y380D02*
X761Y380D01*
X774Y380D02*
X776Y380D01*
X779Y380D02*
X783Y380D01*
X787Y380D02*
X791Y380D01*
X994Y380D02*
X1001Y380D01*
X0Y379D02*
X7Y379D01*
X408Y379D02*
X411Y379D01*
X485Y379D02*
X488Y379D01*
X720Y379D02*
X723Y379D01*
X725Y379D02*
X728Y379D01*
X744Y379D02*
X747Y379D01*
X752Y379D02*
X762Y379D01*
X774Y379D02*
X792Y379D01*
X994Y379D02*
X1001Y379D01*
X0Y378D02*
X7Y378D01*
X408Y378D02*
X411Y378D01*
X485Y378D02*
X488Y378D01*
X720Y378D02*
X723Y378D01*
X725Y378D02*
X729Y378D01*
X744Y378D02*
X747Y378D01*
X750Y378D02*
X763Y378D01*
X774Y378D02*
X793Y378D01*
X994Y378D02*
X1001Y378D01*
X0Y377D02*
X7Y377D01*
X408Y377D02*
X411Y377D01*
X441Y377D02*
X449Y377D01*
X473Y377D02*
X481Y377D01*
X485Y377D02*
X488Y377D01*
X719Y377D02*
X723Y377D01*
X725Y377D02*
X729Y377D01*
X744Y377D02*
X747Y377D01*
X749Y377D02*
X763Y377D01*
X774Y377D02*
X793Y377D01*
X994Y377D02*
X1001Y377D01*
X0Y376D02*
X7Y376D01*
X408Y376D02*
X411Y376D01*
X440Y376D02*
X450Y376D01*
X472Y376D02*
X483Y376D01*
X485Y376D02*
X488Y376D01*
X719Y376D02*
X722Y376D01*
X726Y376D02*
X729Y376D01*
X744Y376D02*
X754Y376D01*
X760Y376D02*
X764Y376D01*
X774Y376D02*
X780Y376D01*
X782Y376D02*
X788Y376D01*
X790Y376D02*
X794Y376D01*
X994Y376D02*
X1001Y376D01*
X0Y375D02*
X7Y375D01*
X408Y375D02*
X411Y375D01*
X440Y375D02*
X450Y375D01*
X471Y375D02*
X488Y375D01*
X719Y375D02*
X722Y375D01*
X726Y375D02*
X729Y375D01*
X744Y375D02*
X752Y375D01*
X761Y375D02*
X764Y375D01*
X774Y375D02*
X778Y375D01*
X782Y375D02*
X787Y375D01*
X790Y375D02*
X794Y375D01*
X994Y375D02*
X1001Y375D01*
X0Y374D02*
X7Y374D01*
X408Y374D02*
X411Y374D01*
X441Y374D02*
X450Y374D01*
X470Y374D02*
X488Y374D01*
X718Y374D02*
X722Y374D01*
X726Y374D02*
X730Y374D01*
X744Y374D02*
X751Y374D01*
X761Y374D02*
X764Y374D01*
X774Y374D02*
X777Y374D01*
X782Y374D02*
X786Y374D01*
X790Y374D02*
X794Y374D01*
X994Y374D02*
X1001Y374D01*
X0Y373D02*
X7Y373D01*
X408Y373D02*
X411Y373D01*
X446Y373D02*
X450Y373D01*
X469Y373D02*
X473Y373D01*
X481Y373D02*
X488Y373D01*
X718Y373D02*
X721Y373D01*
X727Y373D02*
X730Y373D01*
X744Y373D02*
X750Y373D01*
X761Y373D02*
X764Y373D01*
X774Y373D02*
X777Y373D01*
X782Y373D02*
X786Y373D01*
X791Y373D02*
X794Y373D01*
X994Y373D02*
X1001Y373D01*
X0Y372D02*
X7Y372D01*
X408Y372D02*
X411Y372D01*
X446Y372D02*
X450Y372D01*
X468Y372D02*
X472Y372D01*
X482Y372D02*
X488Y372D01*
X718Y372D02*
X721Y372D01*
X727Y372D02*
X730Y372D01*
X744Y372D02*
X749Y372D01*
X761Y372D02*
X763Y372D01*
X774Y372D02*
X777Y372D01*
X782Y372D02*
X786Y372D01*
X791Y372D02*
X794Y372D01*
X994Y372D02*
X1001Y372D01*
X0Y371D02*
X7Y371D01*
X408Y371D02*
X411Y371D01*
X446Y371D02*
X450Y371D01*
X468Y371D02*
X472Y371D01*
X483Y371D02*
X488Y371D01*
X717Y371D02*
X721Y371D01*
X727Y371D02*
X731Y371D01*
X744Y371D02*
X748Y371D01*
X774Y371D02*
X777Y371D01*
X782Y371D02*
X786Y371D01*
X791Y371D02*
X794Y371D01*
X994Y371D02*
X1001Y371D01*
X0Y370D02*
X7Y370D01*
X408Y370D02*
X411Y370D01*
X446Y370D02*
X450Y370D01*
X468Y370D02*
X471Y370D01*
X484Y370D02*
X488Y370D01*
X717Y370D02*
X721Y370D01*
X727Y370D02*
X731Y370D01*
X744Y370D02*
X747Y370D01*
X774Y370D02*
X777Y370D01*
X782Y370D02*
X786Y370D01*
X791Y370D02*
X794Y370D01*
X994Y370D02*
X1001Y370D01*
X0Y369D02*
X7Y369D01*
X408Y369D02*
X411Y369D01*
X446Y369D02*
X450Y369D01*
X468Y369D02*
X471Y369D01*
X485Y369D02*
X488Y369D01*
X717Y369D02*
X720Y369D01*
X728Y369D02*
X731Y369D01*
X744Y369D02*
X747Y369D01*
X774Y369D02*
X777Y369D01*
X782Y369D02*
X786Y369D01*
X791Y369D02*
X794Y369D01*
X994Y369D02*
X1001Y369D01*
X0Y368D02*
X7Y368D01*
X408Y368D02*
X411Y368D01*
X446Y368D02*
X450Y368D01*
X468Y368D02*
X471Y368D01*
X485Y368D02*
X488Y368D01*
X717Y368D02*
X731Y368D01*
X744Y368D02*
X747Y368D01*
X774Y368D02*
X777Y368D01*
X782Y368D02*
X786Y368D01*
X791Y368D02*
X794Y368D01*
X994Y368D02*
X1001Y368D01*
X0Y367D02*
X7Y367D01*
X408Y367D02*
X411Y367D01*
X446Y367D02*
X450Y367D01*
X468Y367D02*
X471Y367D01*
X485Y367D02*
X488Y367D01*
X716Y367D02*
X732Y367D01*
X744Y367D02*
X747Y367D01*
X774Y367D02*
X777Y367D01*
X782Y367D02*
X786Y367D01*
X791Y367D02*
X794Y367D01*
X994Y367D02*
X1001Y367D01*
X0Y366D02*
X7Y366D01*
X408Y366D02*
X411Y366D01*
X446Y366D02*
X450Y366D01*
X468Y366D02*
X471Y366D01*
X485Y366D02*
X488Y366D01*
X716Y366D02*
X732Y366D01*
X744Y366D02*
X747Y366D01*
X774Y366D02*
X777Y366D01*
X782Y366D02*
X786Y366D01*
X791Y366D02*
X794Y366D01*
X994Y366D02*
X1001Y366D01*
X0Y365D02*
X7Y365D01*
X408Y365D02*
X411Y365D01*
X446Y365D02*
X450Y365D01*
X468Y365D02*
X471Y365D01*
X485Y365D02*
X488Y365D01*
X716Y365D02*
X732Y365D01*
X744Y365D02*
X747Y365D01*
X774Y365D02*
X777Y365D01*
X782Y365D02*
X786Y365D01*
X791Y365D02*
X794Y365D01*
X994Y365D02*
X1001Y365D01*
X0Y364D02*
X7Y364D01*
X408Y364D02*
X411Y364D01*
X446Y364D02*
X450Y364D01*
X468Y364D02*
X471Y364D01*
X485Y364D02*
X488Y364D01*
X715Y364D02*
X719Y364D01*
X729Y364D02*
X733Y364D01*
X744Y364D02*
X747Y364D01*
X774Y364D02*
X777Y364D01*
X782Y364D02*
X786Y364D01*
X791Y364D02*
X794Y364D01*
X994Y364D02*
X1001Y364D01*
X0Y363D02*
X7Y363D01*
X408Y363D02*
X411Y363D01*
X446Y363D02*
X450Y363D01*
X468Y363D02*
X471Y363D01*
X485Y363D02*
X488Y363D01*
X715Y363D02*
X719Y363D01*
X730Y363D02*
X733Y363D01*
X744Y363D02*
X747Y363D01*
X774Y363D02*
X777Y363D01*
X782Y363D02*
X786Y363D01*
X791Y363D02*
X794Y363D01*
X994Y363D02*
X1001Y363D01*
X0Y362D02*
X7Y362D01*
X408Y362D02*
X411Y362D01*
X446Y362D02*
X450Y362D01*
X468Y362D02*
X471Y362D01*
X484Y362D02*
X488Y362D01*
X715Y362D02*
X718Y362D01*
X730Y362D02*
X733Y362D01*
X744Y362D02*
X747Y362D01*
X774Y362D02*
X777Y362D01*
X782Y362D02*
X786Y362D01*
X791Y362D02*
X794Y362D01*
X994Y362D02*
X1001Y362D01*
X0Y361D02*
X7Y361D01*
X408Y361D02*
X411Y361D01*
X446Y361D02*
X450Y361D01*
X468Y361D02*
X472Y361D01*
X483Y361D02*
X488Y361D01*
X715Y361D02*
X718Y361D01*
X730Y361D02*
X733Y361D01*
X744Y361D02*
X747Y361D01*
X774Y361D02*
X777Y361D01*
X782Y361D02*
X786Y361D01*
X791Y361D02*
X794Y361D01*
X994Y361D02*
X1001Y361D01*
X0Y360D02*
X7Y360D01*
X408Y360D02*
X411Y360D01*
X446Y360D02*
X450Y360D01*
X468Y360D02*
X472Y360D01*
X482Y360D02*
X488Y360D01*
X714Y360D02*
X718Y360D01*
X730Y360D02*
X734Y360D01*
X744Y360D02*
X747Y360D01*
X774Y360D02*
X777Y360D01*
X782Y360D02*
X786Y360D01*
X791Y360D02*
X794Y360D01*
X994Y360D02*
X1001Y360D01*
X0Y359D02*
X7Y359D01*
X408Y359D02*
X411Y359D01*
X446Y359D02*
X450Y359D01*
X469Y359D02*
X473Y359D01*
X481Y359D02*
X488Y359D01*
X714Y359D02*
X717Y359D01*
X731Y359D02*
X734Y359D01*
X744Y359D02*
X747Y359D01*
X774Y359D02*
X777Y359D01*
X782Y359D02*
X786Y359D01*
X791Y359D02*
X794Y359D01*
X994Y359D02*
X1001Y359D01*
X0Y358D02*
X7Y358D01*
X408Y358D02*
X427Y358D01*
X441Y358D02*
X455Y358D01*
X469Y358D02*
X488Y358D01*
X715Y358D02*
X717Y358D01*
X731Y358D02*
X733Y358D01*
X745Y358D02*
X747Y358D01*
X774Y358D02*
X777Y358D01*
X783Y358D02*
X785Y358D01*
X791Y358D02*
X794Y358D01*
X994Y358D02*
X1001Y358D01*
X0Y357D02*
X7Y357D01*
X408Y357D02*
X428Y357D01*
X440Y357D02*
X456Y357D01*
X470Y357D02*
X488Y357D01*
X994Y357D02*
X1001Y357D01*
X0Y356D02*
X7Y356D01*
X408Y356D02*
X428Y356D01*
X440Y356D02*
X456Y356D01*
X471Y356D02*
X483Y356D01*
X485Y356D02*
X488Y356D01*
X994Y356D02*
X1001Y356D01*
X0Y355D02*
X7Y355D01*
X408Y355D02*
X427Y355D01*
X441Y355D02*
X455Y355D01*
X473Y355D02*
X481Y355D01*
X485Y355D02*
X487Y355D01*
X994Y355D02*
X1001Y355D01*
X0Y354D02*
X7Y354D01*
X994Y354D02*
X1001Y354D01*
X0Y353D02*
X7Y353D01*
X994Y353D02*
X1001Y353D01*
X0Y352D02*
X7Y352D01*
X994Y352D02*
X1001Y352D01*
X0Y351D02*
X7Y351D01*
X994Y351D02*
X1001Y351D01*
X0Y350D02*
X7Y350D01*
X994Y350D02*
X1001Y350D01*
X0Y349D02*
X7Y349D01*
X994Y349D02*
X1001Y349D01*
X0Y348D02*
X7Y348D01*
X994Y348D02*
X1001Y348D01*
X0Y347D02*
X7Y347D01*
X994Y347D02*
X1001Y347D01*
X0Y346D02*
X7Y346D01*
X994Y346D02*
X1001Y346D01*
X0Y345D02*
X7Y345D01*
X994Y345D02*
X1001Y345D01*
X0Y344D02*
X7Y344D01*
X994Y344D02*
X1001Y344D01*
X0Y343D02*
X7Y343D01*
X994Y343D02*
X1001Y343D01*
X0Y342D02*
X7Y342D01*
X994Y342D02*
X1001Y342D01*
X0Y341D02*
X7Y341D01*
X994Y341D02*
X1001Y341D01*
X0Y340D02*
X7Y340D01*
X994Y340D02*
X1001Y340D01*
X0Y339D02*
X7Y339D01*
X994Y339D02*
X1001Y339D01*
X0Y338D02*
X7Y338D01*
X994Y338D02*
X1001Y338D01*
X0Y337D02*
X7Y337D01*
X994Y337D02*
X1001Y337D01*
X0Y336D02*
X7Y336D01*
X994Y336D02*
X1001Y336D01*
X0Y335D02*
X7Y335D01*
X994Y335D02*
X1001Y335D01*
X0Y334D02*
X7Y334D01*
X994Y334D02*
X1001Y334D01*
X0Y333D02*
X7Y333D01*
X994Y333D02*
X1001Y333D01*
X0Y332D02*
X7Y332D01*
X994Y332D02*
X1001Y332D01*
X0Y331D02*
X7Y331D01*
X994Y331D02*
X1001Y331D01*
X0Y330D02*
X7Y330D01*
X994Y330D02*
X1001Y330D01*
X0Y329D02*
X7Y329D01*
X994Y329D02*
X1001Y329D01*
X0Y328D02*
X7Y328D01*
X994Y328D02*
X1001Y328D01*
X0Y327D02*
X7Y327D01*
X994Y327D02*
X1001Y327D01*
X0Y326D02*
X7Y326D01*
X994Y326D02*
X1001Y326D01*
X0Y325D02*
X7Y325D01*
X994Y325D02*
X1001Y325D01*
X0Y324D02*
X7Y324D01*
X994Y324D02*
X1001Y324D01*
X0Y323D02*
X7Y323D01*
X994Y323D02*
X1001Y323D01*
X0Y322D02*
X7Y322D01*
X994Y322D02*
X1001Y322D01*
X0Y321D02*
X7Y321D01*
X994Y321D02*
X1001Y321D01*
X0Y320D02*
X7Y320D01*
X994Y320D02*
X1001Y320D01*
X0Y319D02*
X7Y319D01*
X994Y319D02*
X1001Y319D01*
X0Y318D02*
X7Y318D01*
X994Y318D02*
X1001Y318D01*
X0Y317D02*
X7Y317D01*
X994Y317D02*
X1001Y317D01*
X0Y316D02*
X7Y316D01*
X994Y316D02*
X1001Y316D01*
X0Y315D02*
X7Y315D01*
X994Y315D02*
X1001Y315D01*
X0Y314D02*
X6Y314D01*
X994Y314D02*
X1001Y314D01*
X0Y313D02*
X6Y313D01*
X994Y313D02*
X1001Y313D01*
X0Y312D02*
X6Y312D01*
X994Y312D02*
X1001Y312D01*
X0Y311D02*
X6Y311D01*
X994Y311D02*
X1001Y311D01*
X0Y310D02*
X6Y310D01*
X994Y310D02*
X1001Y310D01*
X0Y309D02*
X6Y309D01*
X994Y309D02*
X1001Y309D01*
X0Y308D02*
X6Y308D01*
X994Y308D02*
X1001Y308D01*
X0Y307D02*
X6Y307D01*
X994Y307D02*
X1001Y307D01*
X0Y306D02*
X5Y306D01*
X994Y306D02*
X1001Y306D01*
X0Y305D02*
X5Y305D01*
X994Y305D02*
X1001Y305D01*
X0Y304D02*
X5Y304D01*
X994Y304D02*
X1001Y304D01*
X0Y303D02*
X6Y303D01*
X994Y303D02*
X1001Y303D01*
X0Y302D02*
X6Y302D01*
X994Y302D02*
X1001Y302D01*
X0Y301D02*
X6Y301D01*
X994Y301D02*
X1001Y301D01*
X0Y300D02*
X6Y300D01*
X994Y300D02*
X1001Y300D01*
X0Y299D02*
X6Y299D01*
X994Y299D02*
X1001Y299D01*
X0Y298D02*
X6Y298D01*
X994Y298D02*
X1001Y298D01*
X0Y297D02*
X6Y297D01*
X994Y297D02*
X1001Y297D01*
X0Y296D02*
X6Y296D01*
X994Y296D02*
X1001Y296D01*
X0Y295D02*
X7Y295D01*
X994Y295D02*
X1001Y295D01*
X0Y294D02*
X7Y294D01*
X994Y294D02*
X1001Y294D01*
X0Y293D02*
X7Y293D01*
X994Y293D02*
X1001Y293D01*
X0Y292D02*
X7Y292D01*
X994Y292D02*
X1001Y292D01*
X0Y291D02*
X7Y291D01*
X994Y291D02*
X1001Y291D01*
X0Y290D02*
X7Y290D01*
X994Y290D02*
X1001Y290D01*
X0Y289D02*
X7Y289D01*
X994Y289D02*
X1001Y289D01*
X0Y288D02*
X7Y288D01*
X994Y288D02*
X1001Y288D01*
X0Y287D02*
X7Y287D01*
X994Y287D02*
X1001Y287D01*
X0Y286D02*
X7Y286D01*
X994Y286D02*
X1001Y286D01*
X0Y285D02*
X7Y285D01*
X994Y285D02*
X1001Y285D01*
X0Y284D02*
X7Y284D01*
X994Y284D02*
X1001Y284D01*
X0Y283D02*
X7Y283D01*
X994Y283D02*
X1001Y283D01*
X0Y282D02*
X7Y282D01*
X994Y282D02*
X1001Y282D01*
X0Y281D02*
X7Y281D01*
X994Y281D02*
X1001Y281D01*
X0Y280D02*
X7Y280D01*
X994Y280D02*
X1001Y280D01*
X0Y279D02*
X7Y279D01*
X994Y279D02*
X1001Y279D01*
X0Y278D02*
X7Y278D01*
X994Y278D02*
X1001Y278D01*
X0Y277D02*
X7Y277D01*
X994Y277D02*
X1001Y277D01*
X0Y276D02*
X7Y276D01*
X994Y276D02*
X1001Y276D01*
X0Y275D02*
X7Y275D01*
X994Y275D02*
X1001Y275D01*
X0Y274D02*
X7Y274D01*
X994Y274D02*
X1001Y274D01*
X0Y273D02*
X7Y273D01*
X994Y273D02*
X1001Y273D01*
X0Y272D02*
X7Y272D01*
X994Y272D02*
X1001Y272D01*
X0Y271D02*
X7Y271D01*
X994Y271D02*
X1001Y271D01*
X0Y270D02*
X7Y270D01*
X994Y270D02*
X1001Y270D01*
X0Y269D02*
X7Y269D01*
X994Y269D02*
X1001Y269D01*
X0Y268D02*
X7Y268D01*
X994Y268D02*
X1001Y268D01*
X0Y267D02*
X7Y267D01*
X994Y267D02*
X1001Y267D01*
X0Y266D02*
X7Y266D01*
X994Y266D02*
X1001Y266D01*
X0Y265D02*
X7Y265D01*
X994Y265D02*
X1001Y265D01*
X0Y264D02*
X7Y264D01*
X994Y264D02*
X1001Y264D01*
X0Y263D02*
X7Y263D01*
X994Y263D02*
X1001Y263D01*
X0Y262D02*
X7Y262D01*
X994Y262D02*
X1001Y262D01*
X0Y261D02*
X7Y261D01*
X994Y261D02*
X1001Y261D01*
X0Y260D02*
X7Y260D01*
X994Y260D02*
X1001Y260D01*
X0Y259D02*
X7Y259D01*
X994Y259D02*
X1001Y259D01*
X0Y258D02*
X7Y258D01*
X994Y258D02*
X1001Y258D01*
X0Y257D02*
X7Y257D01*
X994Y257D02*
X1001Y257D01*
X0Y256D02*
X7Y256D01*
X994Y256D02*
X1001Y256D01*
X0Y255D02*
X7Y255D01*
X766Y255D02*
X767Y255D01*
X994Y255D02*
X1001Y255D01*
X0Y254D02*
X7Y254D01*
X765Y254D02*
X768Y254D01*
X994Y254D02*
X1001Y254D01*
X0Y253D02*
X7Y253D01*
X764Y253D02*
X769Y253D01*
X994Y253D02*
X1001Y253D01*
X0Y252D02*
X7Y252D01*
X764Y252D02*
X770Y252D01*
X994Y252D02*
X1001Y252D01*
X0Y251D02*
X7Y251D01*
X765Y251D02*
X771Y251D01*
X994Y251D02*
X1001Y251D01*
X0Y250D02*
X7Y250D01*
X766Y250D02*
X772Y250D01*
X994Y250D02*
X1001Y250D01*
X0Y249D02*
X7Y249D01*
X767Y249D02*
X773Y249D01*
X994Y249D02*
X1001Y249D01*
X0Y248D02*
X7Y248D01*
X768Y248D02*
X774Y248D01*
X891Y248D02*
X908Y248D01*
X930Y248D02*
X943Y248D01*
X960Y248D02*
X982Y248D01*
X994Y248D02*
X1001Y248D01*
X0Y247D02*
X7Y247D01*
X20Y247D02*
X42Y247D01*
X769Y247D02*
X775Y247D01*
X891Y247D02*
X910Y247D01*
X927Y247D02*
X945Y247D01*
X959Y247D02*
X982Y247D01*
X994Y247D02*
X1001Y247D01*
X0Y246D02*
X7Y246D01*
X19Y246D02*
X42Y246D01*
X54Y246D02*
X57Y246D01*
X73Y246D02*
X76Y246D01*
X770Y246D02*
X776Y246D01*
X891Y246D02*
X911Y246D01*
X926Y246D02*
X946Y246D01*
X959Y246D02*
X982Y246D01*
X994Y246D02*
X1001Y246D01*
X0Y245D02*
X7Y245D01*
X19Y245D02*
X42Y245D01*
X54Y245D02*
X58Y245D01*
X72Y245D02*
X76Y245D01*
X771Y245D02*
X777Y245D01*
X891Y245D02*
X912Y245D01*
X926Y245D02*
X947Y245D01*
X959Y245D02*
X982Y245D01*
X994Y245D02*
X1001Y245D01*
X0Y244D02*
X7Y244D01*
X19Y244D02*
X42Y244D01*
X54Y244D02*
X58Y244D01*
X72Y244D02*
X76Y244D01*
X772Y244D02*
X778Y244D01*
X891Y244D02*
X913Y244D01*
X925Y244D02*
X947Y244D01*
X959Y244D02*
X982Y244D01*
X994Y244D02*
X1001Y244D01*
X0Y243D02*
X7Y243D01*
X19Y243D02*
X42Y243D01*
X54Y243D02*
X59Y243D01*
X71Y243D02*
X76Y243D01*
X773Y243D02*
X779Y243D01*
X891Y243D02*
X895Y243D01*
X908Y243D02*
X913Y243D01*
X925Y243D02*
X929Y243D01*
X943Y243D02*
X948Y243D01*
X959Y243D02*
X963Y243D01*
X969Y243D02*
X973Y243D01*
X978Y243D02*
X982Y243D01*
X994Y243D02*
X1001Y243D01*
X0Y242D02*
X7Y242D01*
X19Y242D02*
X23Y242D01*
X29Y242D02*
X33Y242D01*
X38Y242D02*
X42Y242D01*
X55Y242D02*
X59Y242D01*
X71Y242D02*
X75Y242D01*
X774Y242D02*
X780Y242D01*
X891Y242D02*
X895Y242D01*
X909Y242D02*
X913Y242D01*
X925Y242D02*
X929Y242D01*
X944Y242D02*
X948Y242D01*
X959Y242D02*
X963Y242D01*
X969Y242D02*
X973Y242D01*
X978Y242D02*
X982Y242D01*
X994Y242D02*
X1001Y242D01*
X0Y241D02*
X7Y241D01*
X19Y241D02*
X23Y241D01*
X29Y241D02*
X33Y241D01*
X38Y241D02*
X42Y241D01*
X55Y241D02*
X60Y241D01*
X70Y241D02*
X75Y241D01*
X775Y241D02*
X781Y241D01*
X891Y241D02*
X895Y241D01*
X910Y241D02*
X914Y241D01*
X925Y241D02*
X930Y241D01*
X944Y241D02*
X948Y241D01*
X960Y241D02*
X963Y241D01*
X969Y241D02*
X973Y241D01*
X978Y241D02*
X982Y241D01*
X994Y241D02*
X1001Y241D01*
X0Y240D02*
X7Y240D01*
X19Y240D02*
X23Y240D01*
X29Y240D02*
X33Y240D01*
X38Y240D02*
X42Y240D01*
X56Y240D02*
X60Y240D01*
X69Y240D02*
X74Y240D01*
X776Y240D02*
X782Y240D01*
X891Y240D02*
X895Y240D01*
X910Y240D02*
X914Y240D01*
X926Y240D02*
X931Y240D01*
X945Y240D02*
X947Y240D01*
X960Y240D02*
X962Y240D01*
X969Y240D02*
X973Y240D01*
X979Y240D02*
X981Y240D01*
X994Y240D02*
X1001Y240D01*
X0Y239D02*
X7Y239D01*
X20Y239D02*
X22Y239D01*
X29Y239D02*
X33Y239D01*
X39Y239D02*
X41Y239D01*
X56Y239D02*
X61Y239D01*
X69Y239D02*
X73Y239D01*
X778Y239D02*
X783Y239D01*
X891Y239D02*
X895Y239D01*
X910Y239D02*
X914Y239D01*
X927Y239D02*
X932Y239D01*
X969Y239D02*
X973Y239D01*
X994Y239D02*
X1001Y239D01*
X0Y238D02*
X7Y238D01*
X29Y238D02*
X33Y238D01*
X57Y238D02*
X62Y238D01*
X68Y238D02*
X73Y238D01*
X779Y238D02*
X784Y238D01*
X891Y238D02*
X895Y238D01*
X910Y238D02*
X914Y238D01*
X927Y238D02*
X932Y238D01*
X969Y238D02*
X973Y238D01*
X994Y238D02*
X1001Y238D01*
X0Y237D02*
X7Y237D01*
X29Y237D02*
X33Y237D01*
X58Y237D02*
X62Y237D01*
X68Y237D02*
X72Y237D01*
X780Y237D02*
X785Y237D01*
X891Y237D02*
X895Y237D01*
X909Y237D02*
X913Y237D01*
X928Y237D02*
X933Y237D01*
X969Y237D02*
X973Y237D01*
X994Y237D02*
X1001Y237D01*
X0Y236D02*
X7Y236D01*
X29Y236D02*
X33Y236D01*
X58Y236D02*
X63Y236D01*
X67Y236D02*
X72Y236D01*
X781Y236D02*
X786Y236D01*
X891Y236D02*
X895Y236D01*
X907Y236D02*
X913Y236D01*
X929Y236D02*
X934Y236D01*
X969Y236D02*
X973Y236D01*
X994Y236D02*
X1001Y236D01*
X0Y235D02*
X7Y235D01*
X29Y235D02*
X33Y235D01*
X59Y235D02*
X63Y235D01*
X66Y235D02*
X71Y235D01*
X782Y235D02*
X787Y235D01*
X891Y235D02*
X913Y235D01*
X930Y235D02*
X935Y235D01*
X969Y235D02*
X973Y235D01*
X994Y235D02*
X1001Y235D01*
X0Y234D02*
X7Y234D01*
X29Y234D02*
X33Y234D01*
X59Y234D02*
X64Y234D01*
X66Y234D02*
X70Y234D01*
X783Y234D02*
X788Y234D01*
X891Y234D02*
X912Y234D01*
X930Y234D02*
X936Y234D01*
X969Y234D02*
X973Y234D01*
X994Y234D02*
X1001Y234D01*
X0Y233D02*
X7Y233D01*
X29Y233D02*
X33Y233D01*
X60Y233D02*
X70Y233D01*
X784Y233D02*
X789Y233D01*
X891Y233D02*
X911Y233D01*
X931Y233D02*
X936Y233D01*
X969Y233D02*
X973Y233D01*
X994Y233D02*
X1001Y233D01*
X0Y232D02*
X7Y232D01*
X29Y232D02*
X33Y232D01*
X61Y232D02*
X69Y232D01*
X785Y232D02*
X790Y232D01*
X891Y232D02*
X910Y232D01*
X932Y232D02*
X937Y232D01*
X969Y232D02*
X973Y232D01*
X994Y232D02*
X1001Y232D01*
X0Y231D02*
X7Y231D01*
X29Y231D02*
X33Y231D01*
X61Y231D02*
X69Y231D01*
X785Y231D02*
X791Y231D01*
X891Y231D02*
X895Y231D01*
X899Y231D02*
X904Y231D01*
X933Y231D02*
X938Y231D01*
X969Y231D02*
X973Y231D01*
X994Y231D02*
X1001Y231D01*
X0Y230D02*
X7Y230D01*
X29Y230D02*
X33Y230D01*
X62Y230D02*
X68Y230D01*
X786Y230D02*
X792Y230D01*
X891Y230D02*
X895Y230D01*
X900Y230D02*
X904Y230D01*
X933Y230D02*
X939Y230D01*
X969Y230D02*
X973Y230D01*
X994Y230D02*
X1001Y230D01*
X0Y229D02*
X7Y229D01*
X29Y229D02*
X33Y229D01*
X62Y229D02*
X68Y229D01*
X787Y229D02*
X793Y229D01*
X891Y229D02*
X895Y229D01*
X900Y229D02*
X905Y229D01*
X934Y229D02*
X939Y229D01*
X969Y229D02*
X973Y229D01*
X994Y229D02*
X1001Y229D01*
X0Y228D02*
X7Y228D01*
X29Y228D02*
X33Y228D01*
X62Y228D02*
X67Y228D01*
X788Y228D02*
X794Y228D01*
X891Y228D02*
X895Y228D01*
X901Y228D02*
X905Y228D01*
X935Y228D02*
X940Y228D01*
X969Y228D02*
X973Y228D01*
X994Y228D02*
X1001Y228D01*
X0Y227D02*
X7Y227D01*
X29Y227D02*
X33Y227D01*
X62Y227D02*
X68Y227D01*
X789Y227D02*
X795Y227D01*
X891Y227D02*
X895Y227D01*
X901Y227D02*
X906Y227D01*
X936Y227D02*
X941Y227D01*
X969Y227D02*
X973Y227D01*
X994Y227D02*
X1001Y227D01*
X0Y226D02*
X7Y226D01*
X29Y226D02*
X33Y226D01*
X61Y226D02*
X69Y226D01*
X790Y226D02*
X796Y226D01*
X891Y226D02*
X895Y226D01*
X902Y226D02*
X907Y226D01*
X937Y226D02*
X942Y226D01*
X969Y226D02*
X973Y226D01*
X994Y226D02*
X1001Y226D01*
X0Y225D02*
X7Y225D01*
X29Y225D02*
X33Y225D01*
X61Y225D02*
X69Y225D01*
X791Y225D02*
X797Y225D01*
X891Y225D02*
X895Y225D01*
X903Y225D02*
X907Y225D01*
X937Y225D02*
X943Y225D01*
X969Y225D02*
X973Y225D01*
X994Y225D02*
X1001Y225D01*
X0Y224D02*
X7Y224D01*
X29Y224D02*
X33Y224D01*
X60Y224D02*
X70Y224D01*
X792Y224D02*
X798Y224D01*
X891Y224D02*
X895Y224D01*
X903Y224D02*
X908Y224D01*
X938Y224D02*
X943Y224D01*
X969Y224D02*
X973Y224D01*
X994Y224D02*
X1001Y224D01*
X0Y223D02*
X7Y223D01*
X29Y223D02*
X33Y223D01*
X59Y223D02*
X64Y223D01*
X66Y223D02*
X70Y223D01*
X793Y223D02*
X799Y223D01*
X891Y223D02*
X895Y223D01*
X904Y223D02*
X908Y223D01*
X939Y223D02*
X944Y223D01*
X969Y223D02*
X973Y223D01*
X994Y223D02*
X1001Y223D01*
X0Y222D02*
X7Y222D01*
X29Y222D02*
X33Y222D01*
X59Y222D02*
X63Y222D01*
X66Y222D02*
X71Y222D01*
X794Y222D02*
X800Y222D01*
X891Y222D02*
X895Y222D01*
X904Y222D02*
X909Y222D01*
X940Y222D02*
X945Y222D01*
X969Y222D02*
X973Y222D01*
X994Y222D02*
X1001Y222D01*
X0Y221D02*
X7Y221D01*
X29Y221D02*
X33Y221D01*
X58Y221D02*
X63Y221D01*
X67Y221D02*
X72Y221D01*
X795Y221D02*
X801Y221D01*
X891Y221D02*
X895Y221D01*
X905Y221D02*
X909Y221D01*
X940Y221D02*
X946Y221D01*
X969Y221D02*
X973Y221D01*
X994Y221D02*
X1001Y221D01*
X0Y220D02*
X7Y220D01*
X29Y220D02*
X33Y220D01*
X58Y220D02*
X62Y220D01*
X68Y220D02*
X72Y220D01*
X796Y220D02*
X800Y220D01*
X891Y220D02*
X895Y220D01*
X905Y220D02*
X910Y220D01*
X941Y220D02*
X946Y220D01*
X969Y220D02*
X973Y220D01*
X994Y220D02*
X1001Y220D01*
X0Y219D02*
X7Y219D01*
X29Y219D02*
X33Y219D01*
X57Y219D02*
X62Y219D01*
X68Y219D02*
X73Y219D01*
X797Y219D02*
X799Y219D01*
X891Y219D02*
X895Y219D01*
X906Y219D02*
X911Y219D01*
X926Y219D02*
X928Y219D01*
X942Y219D02*
X947Y219D01*
X969Y219D02*
X973Y219D01*
X994Y219D02*
X1001Y219D01*
X0Y218D02*
X7Y218D01*
X29Y218D02*
X33Y218D01*
X56Y218D02*
X61Y218D01*
X69Y218D02*
X73Y218D01*
X891Y218D02*
X895Y218D01*
X907Y218D02*
X911Y218D01*
X925Y218D02*
X929Y218D01*
X943Y218D02*
X948Y218D01*
X969Y218D02*
X973Y218D01*
X994Y218D02*
X1001Y218D01*
X0Y217D02*
X7Y217D01*
X29Y217D02*
X33Y217D01*
X56Y217D02*
X61Y217D01*
X69Y217D02*
X74Y217D01*
X891Y217D02*
X895Y217D01*
X907Y217D02*
X912Y217D01*
X925Y217D02*
X929Y217D01*
X944Y217D02*
X948Y217D01*
X969Y217D02*
X973Y217D01*
X994Y217D02*
X1001Y217D01*
X0Y216D02*
X7Y216D01*
X29Y216D02*
X33Y216D01*
X55Y216D02*
X60Y216D01*
X70Y216D02*
X74Y216D01*
X891Y216D02*
X895Y216D01*
X908Y216D02*
X912Y216D01*
X925Y216D02*
X930Y216D01*
X944Y216D02*
X948Y216D01*
X969Y216D02*
X973Y216D01*
X994Y216D02*
X1001Y216D01*
X0Y215D02*
X7Y215D01*
X29Y215D02*
X33Y215D01*
X55Y215D02*
X59Y215D01*
X70Y215D02*
X75Y215D01*
X891Y215D02*
X895Y215D01*
X908Y215D02*
X913Y215D01*
X926Y215D02*
X948Y215D01*
X969Y215D02*
X973Y215D01*
X994Y215D02*
X1001Y215D01*
X0Y214D02*
X7Y214D01*
X29Y214D02*
X33Y214D01*
X54Y214D02*
X59Y214D01*
X71Y214D02*
X76Y214D01*
X891Y214D02*
X895Y214D01*
X909Y214D02*
X913Y214D01*
X926Y214D02*
X947Y214D01*
X969Y214D02*
X973Y214D01*
X994Y214D02*
X1001Y214D01*
X0Y213D02*
X7Y213D01*
X29Y213D02*
X33Y213D01*
X54Y213D02*
X58Y213D01*
X72Y213D02*
X76Y213D01*
X180Y213D02*
X189Y213D01*
X487Y213D02*
X492Y213D01*
X891Y213D02*
X895Y213D01*
X910Y213D02*
X913Y213D01*
X927Y213D02*
X946Y213D01*
X969Y213D02*
X973Y213D01*
X994Y213D02*
X1001Y213D01*
X0Y212D02*
X7Y212D01*
X29Y212D02*
X32Y212D01*
X54Y212D02*
X58Y212D01*
X72Y212D02*
X76Y212D01*
X177Y212D02*
X192Y212D01*
X425Y212D02*
X436Y212D01*
X487Y212D02*
X492Y212D01*
X572Y212D02*
X573Y212D01*
X891Y212D02*
X894Y212D01*
X910Y212D02*
X913Y212D01*
X928Y212D02*
X945Y212D01*
X969Y212D02*
X972Y212D01*
X994Y212D02*
X1001Y212D01*
X0Y211D02*
X7Y211D01*
X29Y211D02*
X32Y211D01*
X54Y211D02*
X57Y211D01*
X73Y211D02*
X76Y211D01*
X176Y211D02*
X194Y211D01*
X423Y211D02*
X438Y211D01*
X487Y211D02*
X492Y211D01*
X571Y211D02*
X574Y211D01*
X931Y211D02*
X942Y211D01*
X994Y211D02*
X1001Y211D01*
X0Y210D02*
X7Y210D01*
X31Y210D02*
X31Y210D01*
X55Y210D02*
X55Y210D01*
X74Y210D02*
X74Y210D01*
X176Y210D02*
X194Y210D01*
X422Y210D02*
X439Y210D01*
X487Y210D02*
X492Y210D01*
X516Y210D02*
X517Y210D01*
X571Y210D02*
X574Y210D01*
X994Y210D02*
X1001Y210D01*
X0Y209D02*
X7Y209D01*
X175Y209D02*
X195Y209D01*
X421Y209D02*
X440Y209D01*
X487Y209D02*
X492Y209D01*
X515Y209D02*
X518Y209D01*
X571Y209D02*
X574Y209D01*
X994Y209D02*
X1001Y209D01*
X0Y208D02*
X7Y208D01*
X175Y208D02*
X179Y208D01*
X192Y208D02*
X195Y208D01*
X421Y208D02*
X440Y208D01*
X489Y208D02*
X491Y208D01*
X515Y208D02*
X518Y208D01*
X571Y208D02*
X574Y208D01*
X994Y208D02*
X1001Y208D01*
X0Y207D02*
X7Y207D01*
X176Y207D02*
X179Y207D01*
X192Y207D02*
X195Y207D01*
X421Y207D02*
X424Y207D01*
X437Y207D02*
X441Y207D01*
X515Y207D02*
X518Y207D01*
X571Y207D02*
X574Y207D01*
X994Y207D02*
X1001Y207D01*
X0Y206D02*
X7Y206D01*
X176Y206D02*
X180Y206D01*
X192Y206D02*
X194Y206D01*
X421Y206D02*
X425Y206D01*
X438Y206D02*
X440Y206D01*
X515Y206D02*
X518Y206D01*
X571Y206D02*
X574Y206D01*
X994Y206D02*
X1001Y206D01*
X0Y205D02*
X7Y205D01*
X177Y205D02*
X181Y205D01*
X422Y205D02*
X426Y205D01*
X438Y205D02*
X440Y205D01*
X515Y205D02*
X518Y205D01*
X571Y205D02*
X574Y205D01*
X994Y205D02*
X1001Y205D01*
X0Y204D02*
X7Y204D01*
X177Y204D02*
X182Y204D01*
X212Y204D02*
X219Y204D01*
X237Y204D02*
X237Y204D01*
X245Y204D02*
X250Y204D01*
X270Y204D02*
X281Y204D01*
X302Y204D02*
X309Y204D01*
X327Y204D02*
X327Y204D01*
X335Y204D02*
X340Y204D01*
X422Y204D02*
X427Y204D01*
X515Y204D02*
X518Y204D01*
X571Y204D02*
X574Y204D01*
X994Y204D02*
X1001Y204D01*
X0Y203D02*
X7Y203D01*
X178Y203D02*
X182Y203D01*
X209Y203D02*
X221Y203D01*
X236Y203D02*
X238Y203D01*
X243Y203D02*
X252Y203D01*
X268Y203D02*
X283Y203D01*
X299Y203D02*
X311Y203D01*
X326Y203D02*
X328Y203D01*
X333Y203D02*
X342Y203D01*
X423Y203D02*
X427Y203D01*
X452Y203D02*
X453Y203D01*
X469Y203D02*
X470Y203D01*
X484Y203D02*
X491Y203D01*
X512Y203D02*
X527Y203D01*
X549Y203D02*
X559Y203D01*
X571Y203D02*
X574Y203D01*
X581Y203D02*
X586Y203D01*
X994Y203D02*
X1001Y203D01*
X0Y202D02*
X7Y202D01*
X179Y202D02*
X183Y202D01*
X208Y202D02*
X222Y202D01*
X235Y202D02*
X238Y202D01*
X242Y202D02*
X253Y202D01*
X267Y202D02*
X284Y202D01*
X298Y202D02*
X312Y202D01*
X325Y202D02*
X328Y202D01*
X332Y202D02*
X343Y202D01*
X424Y202D02*
X428Y202D01*
X451Y202D02*
X453Y202D01*
X468Y202D02*
X471Y202D01*
X483Y202D02*
X492Y202D01*
X511Y202D02*
X528Y202D01*
X547Y202D02*
X560Y202D01*
X571Y202D02*
X574Y202D01*
X579Y202D02*
X587Y202D01*
X994Y202D02*
X1001Y202D01*
X0Y201D02*
X7Y201D01*
X180Y201D02*
X184Y201D01*
X207Y201D02*
X223Y201D01*
X235Y201D02*
X254Y201D01*
X266Y201D02*
X284Y201D01*
X297Y201D02*
X313Y201D01*
X325Y201D02*
X329Y201D01*
X331Y201D02*
X344Y201D01*
X425Y201D02*
X429Y201D01*
X450Y201D02*
X454Y201D01*
X468Y201D02*
X471Y201D01*
X483Y201D02*
X492Y201D01*
X511Y201D02*
X528Y201D01*
X545Y201D02*
X561Y201D01*
X571Y201D02*
X574Y201D01*
X577Y201D02*
X589Y201D01*
X994Y201D02*
X1001Y201D01*
X0Y200D02*
X7Y200D01*
X180Y200D02*
X185Y200D01*
X206Y200D02*
X224Y200D01*
X235Y200D02*
X254Y200D01*
X266Y200D02*
X285Y200D01*
X296Y200D02*
X314Y200D01*
X325Y200D02*
X345Y200D01*
X425Y200D02*
X430Y200D01*
X450Y200D02*
X454Y200D01*
X468Y200D02*
X471Y200D01*
X483Y200D02*
X492Y200D01*
X511Y200D02*
X528Y200D01*
X544Y200D02*
X560Y200D01*
X571Y200D02*
X589Y200D01*
X994Y200D02*
X1001Y200D01*
X0Y199D02*
X7Y199D01*
X181Y199D02*
X186Y199D01*
X206Y199D02*
X210Y199D01*
X220Y199D02*
X225Y199D01*
X235Y199D02*
X244Y199D01*
X251Y199D02*
X254Y199D01*
X266Y199D02*
X269Y199D01*
X282Y199D02*
X284Y199D01*
X296Y199D02*
X300Y199D01*
X310Y199D02*
X315Y199D01*
X325Y199D02*
X334Y199D01*
X341Y199D02*
X345Y199D01*
X426Y199D02*
X430Y199D01*
X450Y199D02*
X454Y199D01*
X468Y199D02*
X471Y199D01*
X489Y199D02*
X492Y199D01*
X515Y199D02*
X519Y199D01*
X543Y199D02*
X549Y199D01*
X571Y199D02*
X581Y199D01*
X585Y199D02*
X590Y199D01*
X994Y199D02*
X1001Y199D01*
X0Y198D02*
X7Y198D01*
X182Y198D02*
X186Y198D01*
X205Y198D02*
X209Y198D01*
X221Y198D02*
X225Y198D01*
X235Y198D02*
X242Y198D01*
X251Y198D02*
X255Y198D01*
X266Y198D02*
X269Y198D01*
X295Y198D02*
X299Y198D01*
X311Y198D02*
X315Y198D01*
X325Y198D02*
X333Y198D01*
X342Y198D02*
X345Y198D01*
X427Y198D02*
X431Y198D01*
X450Y198D02*
X454Y198D01*
X468Y198D02*
X471Y198D01*
X489Y198D02*
X492Y198D01*
X515Y198D02*
X518Y198D01*
X542Y198D02*
X548Y198D01*
X571Y198D02*
X579Y198D01*
X587Y198D02*
X590Y198D01*
X994Y198D02*
X1001Y198D01*
X0Y197D02*
X7Y197D01*
X183Y197D02*
X187Y197D01*
X205Y197D02*
X209Y197D01*
X222Y197D02*
X225Y197D01*
X235Y197D02*
X241Y197D01*
X251Y197D02*
X255Y197D01*
X266Y197D02*
X271Y197D01*
X295Y197D02*
X299Y197D01*
X312Y197D02*
X315Y197D01*
X325Y197D02*
X332Y197D01*
X342Y197D02*
X345Y197D01*
X428Y197D02*
X432Y197D01*
X451Y197D02*
X454Y197D01*
X468Y197D02*
X471Y197D01*
X489Y197D02*
X492Y197D01*
X515Y197D02*
X518Y197D01*
X542Y197D02*
X546Y197D01*
X571Y197D02*
X578Y197D01*
X587Y197D02*
X590Y197D01*
X994Y197D02*
X1001Y197D01*
X0Y196D02*
X7Y196D01*
X184Y196D02*
X188Y196D01*
X205Y196D02*
X209Y196D01*
X222Y196D02*
X225Y196D01*
X235Y196D02*
X239Y196D01*
X251Y196D02*
X255Y196D01*
X267Y196D02*
X274Y196D01*
X295Y196D02*
X299Y196D01*
X312Y196D02*
X315Y196D01*
X325Y196D02*
X331Y196D01*
X342Y196D02*
X345Y196D01*
X428Y196D02*
X433Y196D01*
X451Y196D02*
X454Y196D01*
X460Y196D02*
X461Y196D01*
X468Y196D02*
X471Y196D01*
X489Y196D02*
X492Y196D01*
X515Y196D02*
X518Y196D01*
X541Y196D02*
X545Y196D01*
X571Y196D02*
X576Y196D01*
X587Y196D02*
X590Y196D01*
X994Y196D02*
X1001Y196D01*
X0Y195D02*
X7Y195D01*
X184Y195D02*
X189Y195D01*
X205Y195D02*
X209Y195D01*
X222Y195D02*
X225Y195D01*
X235Y195D02*
X239Y195D01*
X251Y195D02*
X255Y195D01*
X268Y195D02*
X276Y195D01*
X295Y195D02*
X299Y195D01*
X312Y195D02*
X315Y195D01*
X325Y195D02*
X330Y195D01*
X343Y195D02*
X344Y195D01*
X429Y195D02*
X434Y195D01*
X451Y195D02*
X454Y195D01*
X459Y195D02*
X462Y195D01*
X468Y195D02*
X471Y195D01*
X489Y195D02*
X492Y195D01*
X515Y195D02*
X518Y195D01*
X541Y195D02*
X544Y195D01*
X571Y195D02*
X574Y195D01*
X587Y195D02*
X590Y195D01*
X994Y195D02*
X1001Y195D01*
X0Y194D02*
X7Y194D01*
X185Y194D02*
X190Y194D01*
X205Y194D02*
X209Y194D01*
X222Y194D02*
X225Y194D01*
X235Y194D02*
X239Y194D01*
X251Y194D02*
X255Y194D01*
X269Y194D02*
X278Y194D01*
X295Y194D02*
X299Y194D01*
X312Y194D02*
X315Y194D01*
X325Y194D02*
X329Y194D01*
X430Y194D02*
X434Y194D01*
X451Y194D02*
X454Y194D01*
X459Y194D02*
X462Y194D01*
X468Y194D02*
X471Y194D01*
X489Y194D02*
X492Y194D01*
X515Y194D02*
X518Y194D01*
X541Y194D02*
X544Y194D01*
X571Y194D02*
X574Y194D01*
X587Y194D02*
X590Y194D01*
X994Y194D02*
X1001Y194D01*
X0Y193D02*
X7Y193D01*
X186Y193D02*
X190Y193D01*
X205Y193D02*
X225Y193D01*
X235Y193D02*
X239Y193D01*
X251Y193D02*
X255Y193D01*
X271Y193D02*
X281Y193D01*
X295Y193D02*
X299Y193D01*
X312Y193D02*
X315Y193D01*
X325Y193D02*
X329Y193D01*
X431Y193D02*
X435Y193D01*
X451Y193D02*
X454Y193D01*
X459Y193D02*
X462Y193D01*
X468Y193D02*
X471Y193D01*
X489Y193D02*
X492Y193D01*
X515Y193D02*
X518Y193D01*
X541Y193D02*
X544Y193D01*
X571Y193D02*
X574Y193D01*
X587Y193D02*
X590Y193D01*
X994Y193D02*
X1001Y193D01*
X0Y192D02*
X7Y192D01*
X187Y192D02*
X191Y192D01*
X205Y192D02*
X225Y192D01*
X235Y192D02*
X239Y192D01*
X252Y192D02*
X255Y192D01*
X273Y192D02*
X282Y192D01*
X295Y192D02*
X299Y192D01*
X312Y192D02*
X315Y192D01*
X325Y192D02*
X329Y192D01*
X432Y192D02*
X436Y192D01*
X451Y192D02*
X454Y192D01*
X459Y192D02*
X462Y192D01*
X467Y192D02*
X471Y192D01*
X489Y192D02*
X492Y192D01*
X515Y192D02*
X518Y192D01*
X541Y192D02*
X544Y192D01*
X571Y192D02*
X574Y192D01*
X587Y192D02*
X590Y192D01*
X994Y192D02*
X1001Y192D01*
X0Y191D02*
X7Y191D01*
X187Y191D02*
X192Y191D01*
X205Y191D02*
X225Y191D01*
X235Y191D02*
X239Y191D01*
X252Y191D02*
X255Y191D01*
X276Y191D02*
X283Y191D01*
X295Y191D02*
X299Y191D01*
X312Y191D02*
X315Y191D01*
X325Y191D02*
X329Y191D01*
X432Y191D02*
X437Y191D01*
X451Y191D02*
X454Y191D01*
X459Y191D02*
X462Y191D01*
X467Y191D02*
X471Y191D01*
X489Y191D02*
X492Y191D01*
X515Y191D02*
X518Y191D01*
X541Y191D02*
X544Y191D01*
X571Y191D02*
X574Y191D01*
X587Y191D02*
X590Y191D01*
X994Y191D02*
X1001Y191D01*
X0Y190D02*
X7Y190D01*
X188Y190D02*
X193Y190D01*
X205Y190D02*
X224Y190D01*
X235Y190D02*
X239Y190D01*
X252Y190D02*
X255Y190D01*
X278Y190D02*
X284Y190D01*
X295Y190D02*
X299Y190D01*
X312Y190D02*
X315Y190D01*
X325Y190D02*
X329Y190D01*
X433Y190D02*
X437Y190D01*
X451Y190D02*
X454Y190D01*
X459Y190D02*
X462Y190D01*
X467Y190D02*
X471Y190D01*
X489Y190D02*
X492Y190D01*
X515Y190D02*
X518Y190D01*
X541Y190D02*
X544Y190D01*
X571Y190D02*
X574Y190D01*
X587Y190D02*
X590Y190D01*
X994Y190D02*
X1001Y190D01*
X0Y189D02*
X7Y189D01*
X189Y189D02*
X193Y189D01*
X205Y189D02*
X209Y189D01*
X235Y189D02*
X239Y189D01*
X252Y189D02*
X255Y189D01*
X280Y189D02*
X285Y189D01*
X295Y189D02*
X299Y189D01*
X312Y189D02*
X315Y189D01*
X325Y189D02*
X329Y189D01*
X434Y189D02*
X438Y189D01*
X451Y189D02*
X454Y189D01*
X459Y189D02*
X463Y189D01*
X467Y189D02*
X471Y189D01*
X489Y189D02*
X492Y189D01*
X515Y189D02*
X518Y189D01*
X541Y189D02*
X544Y189D01*
X571Y189D02*
X574Y189D01*
X587Y189D02*
X590Y189D01*
X994Y189D02*
X1001Y189D01*
X0Y188D02*
X7Y188D01*
X176Y188D02*
X177Y188D01*
X190Y188D02*
X194Y188D01*
X205Y188D02*
X209Y188D01*
X235Y188D02*
X239Y188D01*
X252Y188D02*
X255Y188D01*
X281Y188D02*
X285Y188D01*
X295Y188D02*
X299Y188D01*
X312Y188D02*
X315Y188D01*
X325Y188D02*
X329Y188D01*
X435Y188D02*
X439Y188D01*
X451Y188D02*
X454Y188D01*
X458Y188D02*
X463Y188D01*
X467Y188D02*
X470Y188D01*
X489Y188D02*
X492Y188D01*
X515Y188D02*
X518Y188D01*
X541Y188D02*
X544Y188D01*
X571Y188D02*
X574Y188D01*
X587Y188D02*
X590Y188D01*
X994Y188D02*
X1001Y188D01*
X0Y187D02*
X7Y187D01*
X176Y187D02*
X178Y187D01*
X191Y187D02*
X195Y187D01*
X205Y187D02*
X209Y187D01*
X235Y187D02*
X239Y187D01*
X252Y187D02*
X255Y187D01*
X282Y187D02*
X285Y187D01*
X295Y187D02*
X299Y187D01*
X311Y187D02*
X315Y187D01*
X325Y187D02*
X329Y187D01*
X422Y187D02*
X423Y187D01*
X435Y187D02*
X440Y187D01*
X451Y187D02*
X455Y187D01*
X458Y187D02*
X464Y187D01*
X467Y187D02*
X470Y187D01*
X489Y187D02*
X492Y187D01*
X515Y187D02*
X518Y187D01*
X528Y187D02*
X530Y187D01*
X541Y187D02*
X545Y187D01*
X571Y187D02*
X574Y187D01*
X587Y187D02*
X590Y187D01*
X994Y187D02*
X1001Y187D01*
X0Y186D02*
X7Y186D01*
X175Y186D02*
X179Y186D01*
X191Y186D02*
X195Y186D01*
X206Y186D02*
X210Y186D01*
X235Y186D02*
X239Y186D01*
X252Y186D02*
X255Y186D01*
X266Y186D02*
X268Y186D01*
X281Y186D02*
X285Y186D01*
X296Y186D02*
X300Y186D01*
X311Y186D02*
X315Y186D01*
X325Y186D02*
X329Y186D01*
X421Y186D02*
X424Y186D01*
X436Y186D02*
X440Y186D01*
X452Y186D02*
X455Y186D01*
X457Y186D02*
X464Y186D01*
X466Y186D02*
X470Y186D01*
X489Y186D02*
X492Y186D01*
X515Y186D02*
X518Y186D01*
X528Y186D02*
X530Y186D01*
X542Y186D02*
X546Y186D01*
X571Y186D02*
X574Y186D01*
X587Y186D02*
X590Y186D01*
X994Y186D02*
X1001Y186D01*
X0Y185D02*
X7Y185D01*
X176Y185D02*
X179Y185D01*
X192Y185D02*
X195Y185D01*
X206Y185D02*
X211Y185D01*
X235Y185D02*
X239Y185D01*
X252Y185D02*
X255Y185D01*
X265Y185D02*
X269Y185D01*
X281Y185D02*
X285Y185D01*
X296Y185D02*
X301Y185D01*
X309Y185D02*
X314Y185D01*
X325Y185D02*
X329Y185D01*
X421Y185D02*
X424Y185D01*
X437Y185D02*
X441Y185D01*
X452Y185D02*
X470Y185D01*
X489Y185D02*
X492Y185D01*
X515Y185D02*
X518Y185D01*
X527Y185D02*
X531Y185D01*
X542Y185D02*
X548Y185D01*
X571Y185D02*
X574Y185D01*
X587Y185D02*
X590Y185D01*
X994Y185D02*
X1001Y185D01*
X0Y184D02*
X7Y184D01*
X176Y184D02*
X195Y184D01*
X207Y184D02*
X224Y184D01*
X235Y184D02*
X239Y184D01*
X252Y184D02*
X255Y184D01*
X265Y184D02*
X284Y184D01*
X297Y184D02*
X313Y184D01*
X325Y184D02*
X329Y184D01*
X421Y184D02*
X425Y184D01*
X437Y184D02*
X441Y184D01*
X452Y184D02*
X460Y184D01*
X462Y184D02*
X469Y184D01*
X489Y184D02*
X493Y184D01*
X515Y184D02*
X520Y184D01*
X526Y184D02*
X530Y184D01*
X543Y184D02*
X549Y184D01*
X571Y184D02*
X574Y184D01*
X587Y184D02*
X590Y184D01*
X994Y184D02*
X1001Y184D01*
X0Y183D02*
X7Y183D01*
X176Y183D02*
X194Y183D01*
X208Y183D02*
X225Y183D01*
X235Y183D02*
X239Y183D01*
X252Y183D02*
X255Y183D01*
X266Y183D02*
X284Y183D01*
X298Y183D02*
X312Y183D01*
X325Y183D02*
X329Y183D01*
X421Y183D02*
X440Y183D01*
X452Y183D02*
X459Y183D01*
X462Y183D02*
X469Y183D01*
X483Y183D02*
X498Y183D01*
X516Y183D02*
X530Y183D01*
X544Y183D02*
X560Y183D01*
X571Y183D02*
X574Y183D01*
X587Y183D02*
X591Y183D01*
X994Y183D02*
X1001Y183D01*
X0Y182D02*
X7Y182D01*
X177Y182D02*
X194Y182D01*
X209Y182D02*
X225Y182D01*
X235Y182D02*
X238Y182D01*
X252Y182D02*
X255Y182D01*
X267Y182D02*
X282Y182D01*
X299Y182D02*
X311Y182D01*
X325Y182D02*
X328Y182D01*
X422Y182D02*
X440Y182D01*
X453Y182D02*
X459Y182D01*
X463Y182D02*
X469Y182D01*
X483Y182D02*
X498Y182D01*
X516Y182D02*
X529Y182D01*
X546Y182D02*
X561Y182D01*
X571Y182D02*
X574Y182D01*
X587Y182D02*
X591Y182D01*
X994Y182D02*
X1001Y182D01*
X0Y181D02*
X7Y181D01*
X179Y181D02*
X192Y181D01*
X211Y181D02*
X224Y181D01*
X236Y181D02*
X238Y181D01*
X253Y181D02*
X254Y181D01*
X269Y181D02*
X281Y181D01*
X301Y181D02*
X310Y181D01*
X326Y181D02*
X328Y181D01*
X423Y181D02*
X439Y181D01*
X453Y181D02*
X458Y181D01*
X463Y181D02*
X468Y181D01*
X483Y181D02*
X498Y181D01*
X518Y181D02*
X528Y181D01*
X547Y181D02*
X560Y181D01*
X571Y181D02*
X574Y181D01*
X588Y181D02*
X590Y181D01*
X994Y181D02*
X1001Y181D01*
X0Y180D02*
X7Y180D01*
X425Y180D02*
X438Y180D01*
X454Y180D02*
X457Y180D01*
X464Y180D02*
X467Y180D01*
X484Y180D02*
X497Y180D01*
X519Y180D02*
X526Y180D01*
X549Y180D02*
X560Y180D01*
X572Y180D02*
X573Y180D01*
X588Y180D02*
X590Y180D01*
X994Y180D02*
X1001Y180D01*
X0Y179D02*
X7Y179D01*
X994Y179D02*
X1001Y179D01*
X0Y178D02*
X7Y178D01*
X994Y178D02*
X1001Y178D01*
X0Y177D02*
X7Y177D01*
X994Y177D02*
X1001Y177D01*
X0Y176D02*
X7Y176D01*
X994Y176D02*
X1001Y176D01*
X0Y175D02*
X7Y175D01*
X994Y175D02*
X1001Y175D01*
X0Y174D02*
X7Y174D01*
X994Y174D02*
X1001Y174D01*
X0Y173D02*
X7Y173D01*
X994Y173D02*
X1001Y173D01*
X0Y172D02*
X7Y172D01*
X994Y172D02*
X1001Y172D01*
X0Y171D02*
X7Y171D01*
X994Y171D02*
X1001Y171D01*
X0Y170D02*
X7Y170D01*
X994Y170D02*
X1001Y170D01*
X0Y169D02*
X7Y169D01*
X994Y169D02*
X1001Y169D01*
X0Y168D02*
X7Y168D01*
X994Y168D02*
X1001Y168D01*
X0Y167D02*
X7Y167D01*
X994Y167D02*
X1001Y167D01*
X0Y166D02*
X7Y166D01*
X994Y166D02*
X1001Y166D01*
X0Y165D02*
X7Y165D01*
X994Y165D02*
X1001Y165D01*
X0Y164D02*
X7Y164D01*
X994Y164D02*
X1001Y164D01*
X0Y163D02*
X7Y163D01*
X994Y163D02*
X1001Y163D01*
X0Y162D02*
X7Y162D01*
X994Y162D02*
X1001Y162D01*
X0Y161D02*
X7Y161D01*
X994Y161D02*
X1001Y161D01*
X0Y160D02*
X7Y160D01*
X994Y160D02*
X1001Y160D01*
X0Y159D02*
X7Y159D01*
X994Y159D02*
X1001Y159D01*
X0Y158D02*
X7Y158D01*
X994Y158D02*
X1001Y158D01*
X0Y157D02*
X7Y157D01*
X994Y157D02*
X1001Y157D01*
X0Y156D02*
X7Y156D01*
X994Y156D02*
X1001Y156D01*
X0Y155D02*
X7Y155D01*
X994Y155D02*
X1001Y155D01*
X0Y154D02*
X7Y154D01*
X994Y154D02*
X1001Y154D01*
X0Y153D02*
X7Y153D01*
X994Y153D02*
X1001Y153D01*
X0Y152D02*
X7Y152D01*
X994Y152D02*
X1001Y152D01*
X0Y151D02*
X7Y151D01*
X994Y151D02*
X1001Y151D01*
X0Y150D02*
X7Y150D01*
X994Y150D02*
X1001Y150D01*
X0Y149D02*
X7Y149D01*
X994Y149D02*
X1001Y149D01*
X0Y148D02*
X7Y148D01*
X994Y148D02*
X1001Y148D01*
X0Y147D02*
X7Y147D01*
X994Y147D02*
X1001Y147D01*
X0Y146D02*
X7Y146D01*
X994Y146D02*
X1001Y146D01*
X0Y145D02*
X7Y145D01*
X994Y145D02*
X1001Y145D01*
X0Y144D02*
X7Y144D01*
X994Y144D02*
X1001Y144D01*
X0Y143D02*
X7Y143D01*
X994Y143D02*
X1001Y143D01*
X0Y142D02*
X7Y142D01*
X994Y142D02*
X1001Y142D01*
X0Y141D02*
X7Y141D01*
X994Y141D02*
X1001Y141D01*
X0Y140D02*
X7Y140D01*
X994Y140D02*
X1001Y140D01*
X0Y139D02*
X7Y139D01*
X994Y139D02*
X1001Y139D01*
X0Y138D02*
X7Y138D01*
X994Y138D02*
X1001Y138D01*
X0Y137D02*
X7Y137D01*
X994Y137D02*
X1001Y137D01*
X0Y136D02*
X7Y136D01*
X994Y136D02*
X1001Y136D01*
X0Y135D02*
X7Y135D01*
X994Y135D02*
X1001Y135D01*
X0Y134D02*
X7Y134D01*
X994Y134D02*
X1001Y134D01*
X0Y133D02*
X7Y133D01*
X994Y133D02*
X1001Y133D01*
X0Y132D02*
X7Y132D01*
X994Y132D02*
X1001Y132D01*
X0Y131D02*
X7Y131D01*
X994Y131D02*
X1001Y131D01*
X0Y130D02*
X7Y130D01*
X994Y130D02*
X1001Y130D01*
X0Y129D02*
X7Y129D01*
X994Y129D02*
X1001Y129D01*
X0Y128D02*
X7Y128D01*
X994Y128D02*
X1001Y128D01*
X0Y127D02*
X7Y127D01*
X994Y127D02*
X1001Y127D01*
X0Y126D02*
X7Y126D01*
X994Y126D02*
X1001Y126D01*
X0Y125D02*
X7Y125D01*
X994Y125D02*
X1001Y125D01*
X0Y124D02*
X7Y124D01*
X994Y124D02*
X1001Y124D01*
X0Y123D02*
X7Y123D01*
X994Y123D02*
X1001Y123D01*
X0Y122D02*
X7Y122D01*
X994Y122D02*
X1001Y122D01*
X0Y121D02*
X7Y121D01*
X994Y121D02*
X1001Y121D01*
X0Y120D02*
X7Y120D01*
X994Y120D02*
X1001Y120D01*
X0Y119D02*
X7Y119D01*
X994Y119D02*
X1001Y119D01*
X0Y118D02*
X7Y118D01*
X994Y118D02*
X1001Y118D01*
X0Y117D02*
X7Y117D01*
X994Y117D02*
X1001Y117D01*
X0Y116D02*
X7Y116D01*
X994Y116D02*
X1001Y116D01*
X0Y115D02*
X7Y115D01*
X994Y115D02*
X1001Y115D01*
X0Y114D02*
X7Y114D01*
X994Y114D02*
X1001Y114D01*
X0Y113D02*
X7Y113D01*
X994Y113D02*
X1001Y113D01*
X0Y112D02*
X7Y112D01*
X994Y112D02*
X1001Y112D01*
X0Y111D02*
X7Y111D01*
X994Y111D02*
X1001Y111D01*
X0Y110D02*
X7Y110D01*
X994Y110D02*
X1001Y110D01*
X0Y109D02*
X7Y109D01*
X994Y109D02*
X1001Y109D01*
X0Y108D02*
X7Y108D01*
X994Y108D02*
X1001Y108D01*
X0Y107D02*
X7Y107D01*
X994Y107D02*
X1001Y107D01*
X0Y106D02*
X7Y106D01*
X994Y106D02*
X1001Y106D01*
X0Y105D02*
X7Y105D01*
X994Y105D02*
X1001Y105D01*
X0Y104D02*
X7Y104D01*
X994Y104D02*
X1001Y104D01*
X0Y103D02*
X7Y103D01*
X994Y103D02*
X1001Y103D01*
X0Y102D02*
X7Y102D01*
X994Y102D02*
X1001Y102D01*
X0Y101D02*
X7Y101D01*
X994Y101D02*
X1001Y101D01*
X0Y100D02*
X7Y100D01*
X994Y100D02*
X1001Y100D01*
X0Y99D02*
X7Y99D01*
X994Y99D02*
X1001Y99D01*
X0Y98D02*
X7Y98D01*
X994Y98D02*
X1001Y98D01*
X0Y97D02*
X7Y97D01*
X994Y97D02*
X1001Y97D01*
X0Y96D02*
X7Y96D01*
X994Y96D02*
X1001Y96D01*
X0Y95D02*
X7Y95D01*
X994Y95D02*
X1001Y95D01*
X0Y94D02*
X7Y94D01*
X668Y94D02*
X674Y94D01*
X994Y94D02*
X1001Y94D01*
X0Y93D02*
X7Y93D01*
X667Y93D02*
X674Y93D01*
X994Y93D02*
X1001Y93D01*
X0Y92D02*
X7Y92D01*
X62Y92D02*
X62Y92D01*
X85Y92D02*
X86Y92D01*
X193Y92D02*
X202Y92D01*
X402Y92D02*
X420Y92D01*
X578Y92D02*
X594Y92D01*
X618Y92D02*
X618Y92D01*
X667Y92D02*
X675Y92D01*
X749Y92D02*
X758Y92D01*
X812Y92D02*
X812Y92D01*
X917Y92D02*
X931Y92D01*
X994Y92D02*
X1001Y92D01*
X0Y91D02*
X7Y91D01*
X60Y91D02*
X64Y91D01*
X84Y91D02*
X87Y91D01*
X191Y91D02*
X204Y91D01*
X402Y91D02*
X423Y91D01*
X576Y91D02*
X597Y91D01*
X616Y91D02*
X620Y91D01*
X667Y91D02*
X675Y91D01*
X747Y91D02*
X760Y91D01*
X811Y91D02*
X814Y91D01*
X915Y91D02*
X931Y91D01*
X994Y91D02*
X1001Y91D01*
X0Y90D02*
X7Y90D01*
X60Y90D02*
X64Y90D01*
X83Y90D02*
X88Y90D01*
X191Y90D02*
X204Y90D01*
X402Y90D02*
X425Y90D01*
X574Y90D02*
X598Y90D01*
X615Y90D02*
X620Y90D01*
X667Y90D02*
X675Y90D01*
X747Y90D02*
X760Y90D01*
X810Y90D02*
X815Y90D01*
X915Y90D02*
X931Y90D01*
X994Y90D02*
X1001Y90D01*
X0Y89D02*
X7Y89D01*
X60Y89D02*
X65Y89D01*
X83Y89D02*
X88Y89D01*
X191Y89D02*
X205Y89D01*
X402Y89D02*
X426Y89D01*
X574Y89D02*
X599Y89D01*
X615Y89D02*
X620Y89D01*
X667Y89D02*
X675Y89D01*
X746Y89D02*
X760Y89D01*
X810Y89D02*
X815Y89D01*
X915Y89D02*
X931Y89D01*
X994Y89D02*
X1001Y89D01*
X0Y88D02*
X7Y88D01*
X60Y88D02*
X65Y88D01*
X83Y88D02*
X88Y88D01*
X191Y88D02*
X205Y88D01*
X402Y88D02*
X427Y88D01*
X573Y88D02*
X600Y88D01*
X615Y88D02*
X620Y88D01*
X667Y88D02*
X674Y88D01*
X747Y88D02*
X760Y88D01*
X810Y88D02*
X815Y88D01*
X915Y88D02*
X931Y88D01*
X994Y88D02*
X1001Y88D01*
X0Y87D02*
X7Y87D01*
X60Y87D02*
X65Y87D01*
X83Y87D02*
X88Y87D01*
X192Y87D02*
X205Y87D01*
X402Y87D02*
X428Y87D01*
X573Y87D02*
X601Y87D01*
X615Y87D02*
X620Y87D01*
X668Y87D02*
X674Y87D01*
X747Y87D02*
X760Y87D01*
X810Y87D02*
X815Y87D01*
X915Y87D02*
X931Y87D01*
X994Y87D02*
X1001Y87D01*
X0Y86D02*
X7Y86D01*
X60Y86D02*
X65Y86D01*
X83Y86D02*
X88Y86D01*
X199Y86D02*
X205Y86D01*
X402Y86D02*
X407Y86D01*
X420Y86D02*
X428Y86D01*
X573Y86D02*
X578Y86D01*
X595Y86D02*
X601Y86D01*
X615Y86D02*
X620Y86D01*
X755Y86D02*
X760Y86D01*
X810Y86D02*
X815Y86D01*
X926Y86D02*
X931Y86D01*
X994Y86D02*
X1001Y86D01*
X0Y85D02*
X7Y85D01*
X60Y85D02*
X65Y85D01*
X83Y85D02*
X88Y85D01*
X200Y85D02*
X205Y85D01*
X402Y85D02*
X407Y85D01*
X422Y85D02*
X429Y85D01*
X573Y85D02*
X578Y85D01*
X596Y85D02*
X601Y85D01*
X615Y85D02*
X620Y85D01*
X755Y85D02*
X760Y85D01*
X810Y85D02*
X815Y85D01*
X926Y85D02*
X931Y85D01*
X994Y85D02*
X1001Y85D01*
X0Y84D02*
X7Y84D01*
X60Y84D02*
X65Y84D01*
X83Y84D02*
X88Y84D01*
X200Y84D02*
X205Y84D01*
X402Y84D02*
X407Y84D01*
X424Y84D02*
X429Y84D01*
X573Y84D02*
X578Y84D01*
X596Y84D02*
X601Y84D01*
X615Y84D02*
X620Y84D01*
X755Y84D02*
X760Y84D01*
X810Y84D02*
X815Y84D01*
X926Y84D02*
X931Y84D01*
X994Y84D02*
X1001Y84D01*
X0Y83D02*
X7Y83D01*
X60Y83D02*
X65Y83D01*
X83Y83D02*
X88Y83D01*
X200Y83D02*
X205Y83D01*
X402Y83D02*
X407Y83D01*
X424Y83D02*
X430Y83D01*
X573Y83D02*
X579Y83D01*
X596Y83D02*
X601Y83D01*
X615Y83D02*
X620Y83D01*
X755Y83D02*
X760Y83D01*
X810Y83D02*
X815Y83D01*
X926Y83D02*
X931Y83D01*
X994Y83D02*
X1001Y83D01*
X0Y82D02*
X7Y82D01*
X60Y82D02*
X65Y82D01*
X83Y82D02*
X88Y82D01*
X200Y82D02*
X205Y82D01*
X402Y82D02*
X407Y82D01*
X425Y82D02*
X430Y82D01*
X573Y82D02*
X580Y82D01*
X597Y82D02*
X600Y82D01*
X615Y82D02*
X620Y82D01*
X755Y82D02*
X760Y82D01*
X810Y82D02*
X815Y82D01*
X926Y82D02*
X931Y82D01*
X994Y82D02*
X1001Y82D01*
X0Y81D02*
X7Y81D01*
X60Y81D02*
X65Y81D01*
X83Y81D02*
X88Y81D01*
X200Y81D02*
X205Y81D01*
X402Y81D02*
X407Y81D01*
X425Y81D02*
X430Y81D01*
X574Y81D02*
X581Y81D01*
X615Y81D02*
X620Y81D01*
X755Y81D02*
X760Y81D01*
X810Y81D02*
X815Y81D01*
X926Y81D02*
X931Y81D01*
X994Y81D02*
X1001Y81D01*
X0Y80D02*
X7Y80D01*
X60Y80D02*
X65Y80D01*
X83Y80D02*
X88Y80D01*
X200Y80D02*
X205Y80D01*
X402Y80D02*
X407Y80D01*
X425Y80D02*
X430Y80D01*
X575Y80D02*
X582Y80D01*
X615Y80D02*
X620Y80D01*
X755Y80D02*
X760Y80D01*
X810Y80D02*
X815Y80D01*
X926Y80D02*
X931Y80D01*
X994Y80D02*
X1001Y80D01*
X0Y79D02*
X7Y79D01*
X60Y79D02*
X65Y79D01*
X83Y79D02*
X88Y79D01*
X108Y79D02*
X125Y79D01*
X153Y79D02*
X166Y79D01*
X200Y79D02*
X205Y79D01*
X239Y79D02*
X251Y79D01*
X279Y79D02*
X296Y79D01*
X322Y79D02*
X339Y79D01*
X402Y79D02*
X407Y79D01*
X425Y79D02*
X430Y79D01*
X452Y79D02*
X465Y79D01*
X489Y79D02*
X491Y79D01*
X511Y79D02*
X514Y79D01*
X576Y79D02*
X582Y79D01*
X615Y79D02*
X620Y79D01*
X629Y79D02*
X637Y79D01*
X662Y79D02*
X673Y79D01*
X709Y79D02*
X721Y79D01*
X755Y79D02*
X760Y79D01*
X794Y79D02*
X804Y79D01*
X810Y79D02*
X815Y79D01*
X873Y79D02*
X875Y79D01*
X897Y79D02*
X899Y79D01*
X926Y79D02*
X931Y79D01*
X994Y79D02*
X1001Y79D01*
X0Y78D02*
X7Y78D01*
X60Y78D02*
X65Y78D01*
X83Y78D02*
X88Y78D01*
X106Y78D02*
X127Y78D01*
X151Y78D02*
X168Y78D01*
X200Y78D02*
X205Y78D01*
X237Y78D02*
X253Y78D01*
X277Y78D02*
X298Y78D01*
X320Y78D02*
X341Y78D01*
X402Y78D02*
X407Y78D01*
X425Y78D02*
X430Y78D01*
X450Y78D02*
X467Y78D01*
X488Y78D02*
X492Y78D01*
X510Y78D02*
X514Y78D01*
X576Y78D02*
X583Y78D01*
X615Y78D02*
X620Y78D01*
X627Y78D02*
X639Y78D01*
X661Y78D02*
X674Y78D01*
X707Y78D02*
X723Y78D01*
X755Y78D02*
X760Y78D01*
X792Y78D02*
X806Y78D01*
X810Y78D02*
X815Y78D01*
X872Y78D02*
X876Y78D01*
X896Y78D02*
X900Y78D01*
X926Y78D02*
X931Y78D01*
X994Y78D02*
X1001Y78D01*
X0Y77D02*
X7Y77D01*
X60Y77D02*
X65Y77D01*
X83Y77D02*
X88Y77D01*
X105Y77D02*
X129Y77D01*
X150Y77D02*
X169Y77D01*
X200Y77D02*
X205Y77D01*
X235Y77D02*
X254Y77D01*
X276Y77D02*
X299Y77D01*
X319Y77D02*
X342Y77D01*
X402Y77D02*
X407Y77D01*
X425Y77D02*
X430Y77D01*
X449Y77D02*
X468Y77D01*
X488Y77D02*
X493Y77D01*
X509Y77D02*
X515Y77D01*
X577Y77D02*
X584Y77D01*
X615Y77D02*
X620Y77D01*
X625Y77D02*
X640Y77D01*
X661Y77D02*
X675Y77D01*
X706Y77D02*
X725Y77D01*
X755Y77D02*
X760Y77D01*
X791Y77D02*
X807Y77D01*
X810Y77D02*
X815Y77D01*
X872Y77D02*
X877Y77D01*
X895Y77D02*
X900Y77D01*
X926Y77D02*
X931Y77D01*
X994Y77D02*
X1001Y77D01*
X0Y76D02*
X7Y76D01*
X60Y76D02*
X65Y76D01*
X83Y76D02*
X88Y76D01*
X104Y76D02*
X129Y76D01*
X149Y76D02*
X170Y76D01*
X200Y76D02*
X205Y76D01*
X234Y76D02*
X255Y76D01*
X275Y76D02*
X300Y76D01*
X318Y76D02*
X343Y76D01*
X402Y76D02*
X407Y76D01*
X425Y76D02*
X430Y76D01*
X448Y76D02*
X469Y76D01*
X488Y76D02*
X494Y76D01*
X509Y76D02*
X515Y76D01*
X578Y76D02*
X585Y76D01*
X615Y76D02*
X620Y76D01*
X624Y76D02*
X641Y76D01*
X661Y76D02*
X675Y76D01*
X704Y76D02*
X726Y76D01*
X755Y76D02*
X760Y76D01*
X790Y76D02*
X808Y76D01*
X810Y76D02*
X815Y76D01*
X872Y76D02*
X877Y76D01*
X895Y76D02*
X900Y76D01*
X926Y76D02*
X931Y76D01*
X994Y76D02*
X1001Y76D01*
X0Y75D02*
X7Y75D01*
X60Y75D02*
X65Y75D01*
X83Y75D02*
X88Y75D01*
X104Y75D02*
X130Y75D01*
X148Y75D02*
X171Y75D01*
X200Y75D02*
X205Y75D01*
X233Y75D02*
X257Y75D01*
X275Y75D02*
X301Y75D01*
X317Y75D02*
X344Y75D01*
X402Y75D02*
X407Y75D01*
X424Y75D02*
X430Y75D01*
X447Y75D02*
X470Y75D01*
X488Y75D02*
X495Y75D01*
X508Y75D02*
X514Y75D01*
X579Y75D02*
X585Y75D01*
X615Y75D02*
X620Y75D01*
X622Y75D02*
X642Y75D01*
X661Y75D02*
X675Y75D01*
X703Y75D02*
X727Y75D01*
X755Y75D02*
X760Y75D01*
X789Y75D02*
X815Y75D01*
X872Y75D02*
X877Y75D01*
X895Y75D02*
X900Y75D01*
X926Y75D02*
X931Y75D01*
X994Y75D02*
X1001Y75D01*
X0Y74D02*
X7Y74D01*
X60Y74D02*
X65Y74D01*
X83Y74D02*
X88Y74D01*
X103Y74D02*
X130Y74D01*
X147Y74D02*
X172Y74D01*
X200Y74D02*
X205Y74D01*
X232Y74D02*
X257Y74D01*
X274Y74D02*
X301Y74D01*
X317Y74D02*
X344Y74D01*
X402Y74D02*
X407Y74D01*
X423Y74D02*
X429Y74D01*
X446Y74D02*
X471Y74D01*
X489Y74D02*
X496Y74D01*
X507Y74D02*
X514Y74D01*
X579Y74D02*
X586Y74D01*
X615Y74D02*
X642Y74D01*
X662Y74D02*
X675Y74D01*
X703Y74D02*
X728Y74D01*
X755Y74D02*
X760Y74D01*
X788Y74D02*
X815Y74D01*
X872Y74D02*
X877Y74D01*
X895Y74D02*
X900Y74D01*
X926Y74D02*
X931Y74D01*
X994Y74D02*
X1001Y74D01*
X0Y73D02*
X7Y73D01*
X60Y73D02*
X65Y73D01*
X83Y73D02*
X88Y73D01*
X103Y73D02*
X109Y73D01*
X125Y73D02*
X130Y73D01*
X146Y73D02*
X153Y73D01*
X165Y73D02*
X173Y73D01*
X200Y73D02*
X205Y73D01*
X232Y73D02*
X239Y73D01*
X251Y73D02*
X258Y73D01*
X274Y73D02*
X280Y73D01*
X296Y73D02*
X301Y73D01*
X317Y73D02*
X322Y73D01*
X339Y73D02*
X344Y73D01*
X402Y73D02*
X407Y73D01*
X422Y73D02*
X429Y73D01*
X445Y73D02*
X453Y73D01*
X465Y73D02*
X472Y73D01*
X490Y73D02*
X496Y73D01*
X506Y73D02*
X513Y73D01*
X580Y73D02*
X587Y73D01*
X615Y73D02*
X629Y73D01*
X637Y73D02*
X643Y73D01*
X670Y73D02*
X675Y73D01*
X702Y73D02*
X709Y73D01*
X721Y73D02*
X728Y73D01*
X755Y73D02*
X760Y73D01*
X787Y73D02*
X795Y73D01*
X803Y73D02*
X815Y73D01*
X872Y73D02*
X877Y73D01*
X895Y73D02*
X900Y73D01*
X926Y73D02*
X931Y73D01*
X994Y73D02*
X1001Y73D01*
X0Y72D02*
X7Y72D01*
X60Y72D02*
X65Y72D01*
X83Y72D02*
X88Y72D01*
X103Y72D02*
X108Y72D01*
X126Y72D02*
X129Y72D01*
X146Y72D02*
X152Y72D01*
X167Y72D02*
X173Y72D01*
X200Y72D02*
X205Y72D01*
X231Y72D02*
X238Y72D01*
X252Y72D02*
X258Y72D01*
X274Y72D02*
X279Y72D01*
X297Y72D02*
X300Y72D01*
X317Y72D02*
X322Y72D01*
X340Y72D02*
X343Y72D01*
X402Y72D02*
X428Y72D01*
X445Y72D02*
X451Y72D01*
X466Y72D02*
X472Y72D01*
X490Y72D02*
X497Y72D01*
X505Y72D02*
X512Y72D01*
X581Y72D02*
X588Y72D01*
X615Y72D02*
X628Y72D01*
X638Y72D02*
X643Y72D01*
X670Y72D02*
X675Y72D01*
X701Y72D02*
X708Y72D01*
X722Y72D02*
X729Y72D01*
X755Y72D02*
X760Y72D01*
X787Y72D02*
X793Y72D01*
X805Y72D02*
X815Y72D01*
X872Y72D02*
X877Y72D01*
X895Y72D02*
X900Y72D01*
X926Y72D02*
X931Y72D01*
X994Y72D02*
X1001Y72D01*
X0Y71D02*
X7Y71D01*
X60Y71D02*
X65Y71D01*
X83Y71D02*
X88Y71D01*
X103Y71D02*
X108Y71D01*
X145Y71D02*
X151Y71D01*
X168Y71D02*
X173Y71D01*
X200Y71D02*
X205Y71D01*
X231Y71D02*
X237Y71D01*
X253Y71D02*
X259Y71D01*
X274Y71D02*
X279Y71D01*
X317Y71D02*
X322Y71D01*
X402Y71D02*
X428Y71D01*
X445Y71D02*
X450Y71D01*
X467Y71D02*
X473Y71D01*
X491Y71D02*
X498Y71D01*
X504Y71D02*
X511Y71D01*
X582Y71D02*
X589Y71D01*
X615Y71D02*
X626Y71D01*
X638Y71D02*
X643Y71D01*
X670Y71D02*
X675Y71D01*
X701Y71D02*
X707Y71D01*
X723Y71D02*
X729Y71D01*
X755Y71D02*
X760Y71D01*
X787Y71D02*
X792Y71D01*
X806Y71D02*
X815Y71D01*
X872Y71D02*
X877Y71D01*
X895Y71D02*
X900Y71D01*
X926Y71D02*
X931Y71D01*
X994Y71D02*
X1001Y71D01*
X0Y70D02*
X7Y70D01*
X60Y70D02*
X65Y70D01*
X83Y70D02*
X88Y70D01*
X103Y70D02*
X110Y70D01*
X145Y70D02*
X150Y70D01*
X168Y70D02*
X174Y70D01*
X200Y70D02*
X205Y70D01*
X231Y70D02*
X236Y70D01*
X254Y70D02*
X259Y70D01*
X274Y70D02*
X281Y70D01*
X317Y70D02*
X324Y70D01*
X402Y70D02*
X427Y70D01*
X444Y70D02*
X450Y70D01*
X467Y70D02*
X473Y70D01*
X492Y70D02*
X499Y70D01*
X504Y70D02*
X510Y70D01*
X583Y70D02*
X589Y70D01*
X615Y70D02*
X624Y70D01*
X638Y70D02*
X643Y70D01*
X670Y70D02*
X675Y70D01*
X701Y70D02*
X706Y70D01*
X724Y70D02*
X729Y70D01*
X755Y70D02*
X760Y70D01*
X786Y70D02*
X792Y70D01*
X807Y70D02*
X815Y70D01*
X872Y70D02*
X878Y70D01*
X894Y70D02*
X900Y70D01*
X926Y70D02*
X931Y70D01*
X994Y70D02*
X1001Y70D01*
X0Y69D02*
X7Y69D01*
X60Y69D02*
X65Y69D01*
X83Y69D02*
X88Y69D01*
X104Y69D02*
X112Y69D01*
X145Y69D02*
X150Y69D01*
X169Y69D02*
X174Y69D01*
X200Y69D02*
X205Y69D01*
X231Y69D02*
X236Y69D01*
X254Y69D02*
X259Y69D01*
X275Y69D02*
X283Y69D01*
X317Y69D02*
X326Y69D01*
X402Y69D02*
X426Y69D01*
X444Y69D02*
X449Y69D01*
X468Y69D02*
X473Y69D01*
X493Y69D02*
X500Y69D01*
X503Y69D02*
X510Y69D01*
X583Y69D02*
X590Y69D01*
X615Y69D02*
X623Y69D01*
X638Y69D02*
X643Y69D01*
X670Y69D02*
X675Y69D01*
X701Y69D02*
X706Y69D01*
X724Y69D02*
X729Y69D01*
X755Y69D02*
X760Y69D01*
X786Y69D02*
X791Y69D01*
X808Y69D02*
X815Y69D01*
X873Y69D02*
X878Y69D01*
X894Y69D02*
X899Y69D01*
X926Y69D02*
X931Y69D01*
X994Y69D02*
X1001Y69D01*
X0Y68D02*
X7Y68D01*
X60Y68D02*
X65Y68D01*
X83Y68D02*
X88Y68D01*
X104Y68D02*
X114Y68D01*
X145Y68D02*
X150Y68D01*
X169Y68D02*
X174Y68D01*
X200Y68D02*
X205Y68D01*
X231Y68D02*
X236Y68D01*
X254Y68D02*
X259Y68D01*
X275Y68D02*
X285Y68D01*
X318Y68D02*
X328Y68D01*
X402Y68D02*
X427Y68D01*
X444Y68D02*
X449Y68D01*
X468Y68D02*
X473Y68D01*
X494Y68D02*
X509Y68D01*
X584Y68D02*
X591Y68D01*
X615Y68D02*
X621Y68D01*
X638Y68D02*
X643Y68D01*
X670Y68D02*
X675Y68D01*
X701Y68D02*
X706Y68D01*
X724Y68D02*
X729Y68D01*
X755Y68D02*
X760Y68D01*
X786Y68D02*
X791Y68D01*
X809Y68D02*
X815Y68D01*
X873Y68D02*
X879Y68D01*
X894Y68D02*
X899Y68D01*
X926Y68D02*
X931Y68D01*
X994Y68D02*
X1001Y68D01*
X0Y67D02*
X7Y67D01*
X60Y67D02*
X65Y67D01*
X83Y67D02*
X88Y67D01*
X105Y67D02*
X117Y67D01*
X145Y67D02*
X150Y67D01*
X169Y67D02*
X174Y67D01*
X200Y67D02*
X205Y67D01*
X231Y67D02*
X236Y67D01*
X254Y67D02*
X259Y67D01*
X276Y67D02*
X288Y67D01*
X319Y67D02*
X331Y67D01*
X402Y67D02*
X428Y67D01*
X444Y67D02*
X449Y67D01*
X468Y67D02*
X473Y67D01*
X495Y67D02*
X508Y67D01*
X585Y67D02*
X592Y67D01*
X615Y67D02*
X620Y67D01*
X638Y67D02*
X643Y67D01*
X670Y67D02*
X675Y67D01*
X701Y67D02*
X706Y67D01*
X724Y67D02*
X729Y67D01*
X755Y67D02*
X760Y67D01*
X786Y67D02*
X791Y67D01*
X810Y67D02*
X815Y67D01*
X873Y67D02*
X879Y67D01*
X893Y67D02*
X899Y67D01*
X926Y67D02*
X931Y67D01*
X994Y67D02*
X1001Y67D01*
X0Y66D02*
X7Y66D01*
X60Y66D02*
X65Y66D01*
X83Y66D02*
X88Y66D01*
X106Y66D02*
X119Y66D01*
X145Y66D02*
X150Y66D01*
X169Y66D02*
X174Y66D01*
X200Y66D02*
X205Y66D01*
X231Y66D02*
X236Y66D01*
X254Y66D02*
X259Y66D01*
X277Y66D02*
X290Y66D01*
X320Y66D02*
X333Y66D01*
X402Y66D02*
X428Y66D01*
X444Y66D02*
X449Y66D01*
X468Y66D02*
X473Y66D01*
X495Y66D02*
X507Y66D01*
X586Y66D02*
X592Y66D01*
X615Y66D02*
X620Y66D01*
X638Y66D02*
X643Y66D01*
X670Y66D02*
X675Y66D01*
X701Y66D02*
X706Y66D01*
X724Y66D02*
X729Y66D01*
X755Y66D02*
X760Y66D01*
X786Y66D02*
X791Y66D01*
X810Y66D02*
X815Y66D01*
X874Y66D02*
X879Y66D01*
X893Y66D02*
X898Y66D01*
X926Y66D02*
X931Y66D01*
X939Y66D02*
X942Y66D01*
X994Y66D02*
X1001Y66D01*
X0Y65D02*
X7Y65D01*
X60Y65D02*
X65Y65D01*
X83Y65D02*
X88Y65D01*
X107Y65D02*
X121Y65D01*
X145Y65D02*
X150Y65D01*
X169Y65D02*
X174Y65D01*
X200Y65D02*
X205Y65D01*
X231Y65D02*
X236Y65D01*
X254Y65D02*
X259Y65D01*
X278Y65D02*
X292Y65D01*
X321Y65D02*
X335Y65D01*
X402Y65D02*
X407Y65D01*
X422Y65D02*
X429Y65D01*
X444Y65D02*
X449Y65D01*
X468Y65D02*
X473Y65D01*
X496Y65D02*
X506Y65D01*
X586Y65D02*
X593Y65D01*
X615Y65D02*
X620Y65D01*
X638Y65D02*
X643Y65D01*
X670Y65D02*
X675Y65D01*
X701Y65D02*
X706Y65D01*
X724Y65D02*
X729Y65D01*
X755Y65D02*
X760Y65D01*
X786Y65D02*
X791Y65D01*
X810Y65D02*
X815Y65D01*
X874Y65D02*
X880Y65D01*
X892Y65D02*
X898Y65D01*
X926Y65D02*
X931Y65D01*
X938Y65D02*
X943Y65D01*
X994Y65D02*
X1001Y65D01*
X0Y64D02*
X7Y64D01*
X60Y64D02*
X65Y64D01*
X83Y64D02*
X88Y64D01*
X110Y64D02*
X124Y64D01*
X145Y64D02*
X174Y64D01*
X200Y64D02*
X205Y64D01*
X231Y64D02*
X259Y64D01*
X281Y64D02*
X295Y64D01*
X323Y64D02*
X337Y64D01*
X402Y64D02*
X407Y64D01*
X423Y64D02*
X429Y64D01*
X444Y64D02*
X449Y64D01*
X468Y64D02*
X473Y64D01*
X497Y64D02*
X505Y64D01*
X587Y64D02*
X594Y64D01*
X615Y64D02*
X620Y64D01*
X638Y64D02*
X643Y64D01*
X670Y64D02*
X675Y64D01*
X701Y64D02*
X729Y64D01*
X755Y64D02*
X760Y64D01*
X786Y64D02*
X791Y64D01*
X810Y64D02*
X815Y64D01*
X875Y64D02*
X880Y64D01*
X892Y64D02*
X897Y64D01*
X926Y64D02*
X931Y64D01*
X938Y64D02*
X943Y64D01*
X994Y64D02*
X1001Y64D01*
X0Y63D02*
X7Y63D01*
X60Y63D02*
X65Y63D01*
X83Y63D02*
X88Y63D01*
X112Y63D02*
X126Y63D01*
X145Y63D02*
X174Y63D01*
X200Y63D02*
X205Y63D01*
X231Y63D02*
X259Y63D01*
X283Y63D02*
X297Y63D01*
X326Y63D02*
X340Y63D01*
X402Y63D02*
X407Y63D01*
X424Y63D02*
X430Y63D01*
X444Y63D02*
X449Y63D01*
X468Y63D02*
X473Y63D01*
X498Y63D02*
X505Y63D01*
X588Y63D02*
X595Y63D01*
X615Y63D02*
X620Y63D01*
X638Y63D02*
X643Y63D01*
X670Y63D02*
X675Y63D01*
X701Y63D02*
X729Y63D01*
X755Y63D02*
X760Y63D01*
X786Y63D02*
X791Y63D01*
X810Y63D02*
X815Y63D01*
X875Y63D02*
X881Y63D01*
X891Y63D02*
X897Y63D01*
X926Y63D02*
X931Y63D01*
X938Y63D02*
X943Y63D01*
X994Y63D02*
X1001Y63D01*
X0Y62D02*
X7Y62D01*
X60Y62D02*
X65Y62D01*
X83Y62D02*
X88Y62D01*
X114Y62D02*
X127Y62D01*
X145Y62D02*
X174Y62D01*
X200Y62D02*
X205Y62D01*
X231Y62D02*
X259Y62D01*
X285Y62D02*
X298Y62D01*
X328Y62D02*
X341Y62D01*
X402Y62D02*
X407Y62D01*
X425Y62D02*
X430Y62D01*
X444Y62D02*
X449Y62D01*
X468Y62D02*
X473Y62D01*
X497Y62D02*
X506Y62D01*
X589Y62D02*
X596Y62D01*
X615Y62D02*
X620Y62D01*
X638Y62D02*
X643Y62D01*
X670Y62D02*
X675Y62D01*
X701Y62D02*
X729Y62D01*
X755Y62D02*
X760Y62D01*
X786Y62D02*
X791Y62D01*
X810Y62D02*
X815Y62D01*
X876Y62D02*
X881Y62D01*
X891Y62D02*
X896Y62D01*
X926Y62D02*
X931Y62D01*
X938Y62D02*
X943Y62D01*
X994Y62D02*
X1001Y62D01*
X0Y61D02*
X7Y61D01*
X60Y61D02*
X65Y61D01*
X83Y61D02*
X88Y61D01*
X117Y61D02*
X128Y61D01*
X145Y61D02*
X174Y61D01*
X200Y61D02*
X205Y61D01*
X231Y61D02*
X259Y61D01*
X288Y61D02*
X299Y61D01*
X330Y61D02*
X342Y61D01*
X402Y61D02*
X407Y61D01*
X425Y61D02*
X430Y61D01*
X444Y61D02*
X449Y61D01*
X468Y61D02*
X473Y61D01*
X496Y61D02*
X506Y61D01*
X590Y61D02*
X596Y61D01*
X615Y61D02*
X620Y61D01*
X638Y61D02*
X643Y61D01*
X670Y61D02*
X675Y61D01*
X701Y61D02*
X729Y61D01*
X755Y61D02*
X760Y61D01*
X786Y61D02*
X791Y61D01*
X810Y61D02*
X815Y61D01*
X876Y61D02*
X882Y61D01*
X890Y61D02*
X896Y61D01*
X926Y61D02*
X931Y61D01*
X938Y61D02*
X943Y61D01*
X994Y61D02*
X1001Y61D01*
X0Y60D02*
X7Y60D01*
X60Y60D02*
X65Y60D01*
X83Y60D02*
X88Y60D01*
X119Y60D02*
X129Y60D01*
X145Y60D02*
X173Y60D01*
X200Y60D02*
X205Y60D01*
X231Y60D02*
X259Y60D01*
X290Y60D02*
X300Y60D01*
X333Y60D02*
X343Y60D01*
X402Y60D02*
X407Y60D01*
X425Y60D02*
X430Y60D01*
X444Y60D02*
X449Y60D01*
X468Y60D02*
X473Y60D01*
X495Y60D02*
X507Y60D01*
X590Y60D02*
X597Y60D01*
X615Y60D02*
X620Y60D01*
X638Y60D02*
X643Y60D01*
X670Y60D02*
X675Y60D01*
X701Y60D02*
X729Y60D01*
X755Y60D02*
X760Y60D01*
X786Y60D02*
X791Y60D01*
X810Y60D02*
X815Y60D01*
X876Y60D02*
X882Y60D01*
X890Y60D02*
X896Y60D01*
X926Y60D02*
X931Y60D01*
X938Y60D02*
X943Y60D01*
X994Y60D02*
X1001Y60D01*
X0Y59D02*
X7Y59D01*
X60Y59D02*
X65Y59D01*
X83Y59D02*
X88Y59D01*
X121Y59D02*
X130Y59D01*
X145Y59D02*
X172Y59D01*
X200Y59D02*
X205Y59D01*
X231Y59D02*
X258Y59D01*
X292Y59D02*
X301Y59D01*
X335Y59D02*
X343Y59D01*
X402Y59D02*
X407Y59D01*
X425Y59D02*
X430Y59D01*
X444Y59D02*
X449Y59D01*
X468Y59D02*
X473Y59D01*
X494Y59D02*
X508Y59D01*
X591Y59D02*
X598Y59D01*
X615Y59D02*
X620Y59D01*
X638Y59D02*
X643Y59D01*
X670Y59D02*
X675Y59D01*
X701Y59D02*
X728Y59D01*
X755Y59D02*
X760Y59D01*
X786Y59D02*
X791Y59D01*
X810Y59D02*
X815Y59D01*
X877Y59D02*
X882Y59D01*
X890Y59D02*
X895Y59D01*
X926Y59D02*
X931Y59D01*
X938Y59D02*
X943Y59D01*
X994Y59D02*
X1001Y59D01*
X0Y58D02*
X7Y58D01*
X60Y58D02*
X65Y58D01*
X83Y58D02*
X88Y58D01*
X124Y58D02*
X130Y58D01*
X145Y58D02*
X150Y58D01*
X200Y58D02*
X205Y58D01*
X231Y58D02*
X236Y58D01*
X295Y58D02*
X301Y58D01*
X337Y58D02*
X344Y58D01*
X402Y58D02*
X407Y58D01*
X425Y58D02*
X430Y58D01*
X444Y58D02*
X449Y58D01*
X468Y58D02*
X473Y58D01*
X494Y58D02*
X509Y58D01*
X592Y58D02*
X599Y58D01*
X615Y58D02*
X620Y58D01*
X639Y58D02*
X643Y58D01*
X670Y58D02*
X675Y58D01*
X701Y58D02*
X706Y58D01*
X755Y58D02*
X760Y58D01*
X786Y58D02*
X791Y58D01*
X810Y58D02*
X815Y58D01*
X877Y58D02*
X883Y58D01*
X889Y58D02*
X895Y58D01*
X926Y58D02*
X931Y58D01*
X938Y58D02*
X943Y58D01*
X994Y58D02*
X1001Y58D01*
X0Y57D02*
X7Y57D01*
X60Y57D02*
X65Y57D01*
X83Y57D02*
X88Y57D01*
X125Y57D02*
X131Y57D01*
X145Y57D02*
X150Y57D01*
X200Y57D02*
X205Y57D01*
X231Y57D02*
X236Y57D01*
X296Y57D02*
X301Y57D01*
X339Y57D02*
X344Y57D01*
X402Y57D02*
X407Y57D01*
X425Y57D02*
X430Y57D01*
X444Y57D02*
X449Y57D01*
X468Y57D02*
X473Y57D01*
X493Y57D02*
X500Y57D01*
X503Y57D02*
X510Y57D01*
X593Y57D02*
X599Y57D01*
X615Y57D02*
X620Y57D01*
X639Y57D02*
X644Y57D01*
X670Y57D02*
X675Y57D01*
X701Y57D02*
X706Y57D01*
X755Y57D02*
X760Y57D01*
X786Y57D02*
X791Y57D01*
X809Y57D02*
X815Y57D01*
X878Y57D02*
X883Y57D01*
X889Y57D02*
X894Y57D01*
X926Y57D02*
X931Y57D01*
X938Y57D02*
X943Y57D01*
X994Y57D02*
X1001Y57D01*
X0Y56D02*
X7Y56D01*
X60Y56D02*
X65Y56D01*
X83Y56D02*
X88Y56D01*
X126Y56D02*
X131Y56D01*
X145Y56D02*
X150Y56D01*
X200Y56D02*
X205Y56D01*
X231Y56D02*
X236Y56D01*
X297Y56D02*
X302Y56D01*
X339Y56D02*
X344Y56D01*
X402Y56D02*
X407Y56D01*
X425Y56D02*
X430Y56D01*
X444Y56D02*
X449Y56D01*
X468Y56D02*
X473Y56D01*
X492Y56D02*
X499Y56D01*
X504Y56D02*
X511Y56D01*
X574Y56D02*
X577Y56D01*
X593Y56D02*
X600Y56D01*
X615Y56D02*
X620Y56D01*
X639Y56D02*
X644Y56D01*
X670Y56D02*
X675Y56D01*
X701Y56D02*
X706Y56D01*
X755Y56D02*
X760Y56D01*
X786Y56D02*
X791Y56D01*
X808Y56D02*
X815Y56D01*
X878Y56D02*
X884Y56D01*
X888Y56D02*
X894Y56D01*
X926Y56D02*
X931Y56D01*
X938Y56D02*
X943Y56D01*
X994Y56D02*
X1001Y56D01*
X0Y55D02*
X7Y55D01*
X60Y55D02*
X65Y55D01*
X83Y55D02*
X88Y55D01*
X126Y55D02*
X131Y55D01*
X145Y55D02*
X151Y55D01*
X200Y55D02*
X205Y55D01*
X231Y55D02*
X236Y55D01*
X297Y55D02*
X302Y55D01*
X339Y55D02*
X345Y55D01*
X402Y55D02*
X407Y55D01*
X424Y55D02*
X430Y55D01*
X444Y55D02*
X450Y55D01*
X467Y55D02*
X473Y55D01*
X491Y55D02*
X498Y55D01*
X505Y55D02*
X511Y55D01*
X573Y55D02*
X577Y55D01*
X594Y55D02*
X601Y55D01*
X615Y55D02*
X620Y55D01*
X639Y55D02*
X644Y55D01*
X670Y55D02*
X675Y55D01*
X701Y55D02*
X706Y55D01*
X755Y55D02*
X760Y55D01*
X786Y55D02*
X792Y55D01*
X807Y55D02*
X815Y55D01*
X879Y55D02*
X884Y55D01*
X888Y55D02*
X893Y55D01*
X926Y55D02*
X931Y55D01*
X938Y55D02*
X943Y55D01*
X994Y55D02*
X1001Y55D01*
X0Y54D02*
X7Y54D01*
X60Y54D02*
X65Y54D01*
X83Y54D02*
X88Y54D01*
X104Y54D02*
X105Y54D01*
X126Y54D02*
X131Y54D01*
X145Y54D02*
X151Y54D01*
X200Y54D02*
X205Y54D01*
X231Y54D02*
X237Y54D01*
X275Y54D02*
X276Y54D01*
X296Y54D02*
X302Y54D01*
X318Y54D02*
X319Y54D01*
X339Y54D02*
X344Y54D01*
X402Y54D02*
X407Y54D01*
X424Y54D02*
X429Y54D01*
X445Y54D02*
X451Y54D01*
X466Y54D02*
X472Y54D01*
X490Y54D02*
X497Y54D01*
X505Y54D02*
X512Y54D01*
X573Y54D02*
X577Y54D01*
X595Y54D02*
X601Y54D01*
X615Y54D02*
X620Y54D01*
X639Y54D02*
X644Y54D01*
X670Y54D02*
X675Y54D01*
X701Y54D02*
X707Y54D01*
X755Y54D02*
X760Y54D01*
X787Y54D02*
X793Y54D01*
X805Y54D02*
X815Y54D01*
X879Y54D02*
X885Y54D01*
X887Y54D02*
X893Y54D01*
X926Y54D02*
X931Y54D01*
X938Y54D02*
X943Y54D01*
X994Y54D02*
X1001Y54D01*
X0Y53D02*
X7Y53D01*
X60Y53D02*
X65Y53D01*
X82Y53D02*
X88Y53D01*
X103Y53D02*
X107Y53D01*
X125Y53D02*
X131Y53D01*
X146Y53D02*
X153Y53D01*
X200Y53D02*
X205Y53D01*
X231Y53D02*
X238Y53D01*
X274Y53D02*
X278Y53D01*
X296Y53D02*
X302Y53D01*
X317Y53D02*
X321Y53D01*
X339Y53D02*
X344Y53D01*
X402Y53D02*
X407Y53D01*
X422Y53D02*
X429Y53D01*
X445Y53D02*
X452Y53D01*
X465Y53D02*
X472Y53D01*
X489Y53D02*
X496Y53D01*
X506Y53D02*
X513Y53D01*
X573Y53D02*
X578Y53D01*
X596Y53D02*
X601Y53D01*
X615Y53D02*
X620Y53D01*
X639Y53D02*
X644Y53D01*
X670Y53D02*
X675Y53D01*
X701Y53D02*
X708Y53D01*
X755Y53D02*
X760Y53D01*
X787Y53D02*
X794Y53D01*
X804Y53D02*
X815Y53D01*
X880Y53D02*
X885Y53D01*
X887Y53D02*
X892Y53D01*
X926Y53D02*
X931Y53D01*
X938Y53D02*
X943Y53D01*
X994Y53D02*
X1001Y53D01*
X0Y52D02*
X7Y52D01*
X60Y52D02*
X67Y52D01*
X81Y52D02*
X88Y52D01*
X102Y52D02*
X109Y52D01*
X124Y52D02*
X130Y52D01*
X146Y52D02*
X154Y52D01*
X199Y52D02*
X205Y52D01*
X232Y52D02*
X240Y52D01*
X273Y52D02*
X280Y52D01*
X295Y52D02*
X301Y52D01*
X316Y52D02*
X323Y52D01*
X337Y52D02*
X344Y52D01*
X402Y52D02*
X407Y52D01*
X420Y52D02*
X429Y52D01*
X446Y52D02*
X453Y52D01*
X464Y52D02*
X472Y52D01*
X489Y52D02*
X496Y52D01*
X507Y52D02*
X514Y52D01*
X573Y52D02*
X579Y52D01*
X596Y52D02*
X601Y52D01*
X615Y52D02*
X620Y52D01*
X639Y52D02*
X644Y52D01*
X670Y52D02*
X675Y52D01*
X702Y52D02*
X710Y52D01*
X755Y52D02*
X760Y52D01*
X787Y52D02*
X795Y52D01*
X803Y52D02*
X815Y52D01*
X880Y52D02*
X892Y52D01*
X926Y52D02*
X931Y52D01*
X938Y52D02*
X943Y52D01*
X994Y52D02*
X1001Y52D01*
X0Y51D02*
X7Y51D01*
X60Y51D02*
X87Y51D01*
X102Y51D02*
X130Y51D01*
X147Y51D02*
X173Y51D01*
X192Y51D02*
X212Y51D01*
X232Y51D02*
X258Y51D01*
X273Y51D02*
X301Y51D01*
X316Y51D02*
X344Y51D01*
X402Y51D02*
X428Y51D01*
X446Y51D02*
X471Y51D01*
X488Y51D02*
X495Y51D01*
X508Y51D02*
X515Y51D01*
X573Y51D02*
X601Y51D01*
X615Y51D02*
X620Y51D01*
X639Y51D02*
X644Y51D01*
X662Y51D02*
X683Y51D01*
X703Y51D02*
X728Y51D01*
X747Y51D02*
X768Y51D01*
X788Y51D02*
X815Y51D01*
X880Y51D02*
X892Y51D01*
X916Y51D02*
X943Y51D01*
X994Y51D02*
X1001Y51D01*
X0Y50D02*
X7Y50D01*
X61Y50D02*
X87Y50D01*
X103Y50D02*
X129Y50D01*
X148Y50D02*
X173Y50D01*
X191Y50D02*
X213Y50D01*
X233Y50D02*
X259Y50D01*
X274Y50D02*
X300Y50D01*
X316Y50D02*
X343Y50D01*
X402Y50D02*
X427Y50D01*
X447Y50D02*
X470Y50D01*
X487Y50D02*
X494Y50D01*
X509Y50D02*
X515Y50D01*
X574Y50D02*
X600Y50D01*
X615Y50D02*
X620Y50D01*
X639Y50D02*
X644Y50D01*
X661Y50D02*
X683Y50D01*
X704Y50D02*
X729Y50D01*
X747Y50D02*
X769Y50D01*
X789Y50D02*
X815Y50D01*
X881Y50D02*
X891Y50D01*
X915Y50D02*
X943Y50D01*
X994Y50D02*
X1001Y50D01*
X0Y49D02*
X7Y49D01*
X62Y49D02*
X86Y49D01*
X103Y49D02*
X129Y49D01*
X149Y49D02*
X174Y49D01*
X191Y49D02*
X213Y49D01*
X235Y49D02*
X259Y49D01*
X274Y49D02*
X300Y49D01*
X317Y49D02*
X342Y49D01*
X402Y49D02*
X426Y49D01*
X448Y49D02*
X469Y49D01*
X487Y49D02*
X493Y49D01*
X510Y49D02*
X516Y49D01*
X574Y49D02*
X600Y49D01*
X615Y49D02*
X620Y49D01*
X639Y49D02*
X644Y49D01*
X661Y49D02*
X684Y49D01*
X705Y49D02*
X729Y49D01*
X746Y49D02*
X769Y49D01*
X790Y49D02*
X808Y49D01*
X810Y49D02*
X815Y49D01*
X881Y49D02*
X891Y49D01*
X915Y49D02*
X943Y49D01*
X994Y49D02*
X1001Y49D01*
X0Y48D02*
X7Y48D01*
X63Y48D02*
X85Y48D01*
X105Y48D02*
X128Y48D01*
X150Y48D02*
X173Y48D01*
X191Y48D02*
X213Y48D01*
X236Y48D02*
X259Y48D01*
X276Y48D02*
X299Y48D01*
X318Y48D02*
X341Y48D01*
X402Y48D02*
X425Y48D01*
X449Y48D02*
X468Y48D01*
X487Y48D02*
X492Y48D01*
X510Y48D02*
X515Y48D01*
X575Y48D02*
X599Y48D01*
X615Y48D02*
X620Y48D01*
X639Y48D02*
X644Y48D01*
X661Y48D02*
X683Y48D01*
X706Y48D02*
X729Y48D01*
X747Y48D02*
X769Y48D01*
X791Y48D02*
X807Y48D01*
X810Y48D02*
X815Y48D01*
X882Y48D02*
X890Y48D01*
X915Y48D02*
X943Y48D01*
X994Y48D02*
X1001Y48D01*
X0Y47D02*
X7Y47D01*
X64Y47D02*
X84Y47D01*
X106Y47D02*
X126Y47D01*
X152Y47D02*
X173Y47D01*
X191Y47D02*
X213Y47D01*
X237Y47D02*
X258Y47D01*
X277Y47D02*
X297Y47D01*
X320Y47D02*
X340Y47D01*
X402Y47D02*
X423Y47D01*
X451Y47D02*
X466Y47D01*
X488Y47D02*
X491Y47D01*
X511Y47D02*
X515Y47D01*
X576Y47D02*
X598Y47D01*
X616Y47D02*
X620Y47D01*
X640Y47D02*
X643Y47D01*
X662Y47D02*
X683Y47D01*
X707Y47D02*
X729Y47D01*
X747Y47D02*
X768Y47D01*
X793Y47D02*
X805Y47D01*
X811Y47D02*
X814Y47D01*
X882Y47D02*
X890Y47D01*
X915Y47D02*
X942Y47D01*
X994Y47D02*
X1001Y47D01*
X0Y46D02*
X7Y46D01*
X67Y46D02*
X81Y46D01*
X110Y46D02*
X123Y46D01*
X154Y46D02*
X171Y46D01*
X193Y46D02*
X211Y46D01*
X240Y46D02*
X257Y46D01*
X281Y46D02*
X294Y46D01*
X323Y46D02*
X337Y46D01*
X402Y46D02*
X420Y46D01*
X454Y46D02*
X464Y46D01*
X489Y46D02*
X490Y46D01*
X513Y46D02*
X513Y46D01*
X579Y46D02*
X596Y46D01*
X617Y46D02*
X618Y46D01*
X641Y46D02*
X642Y46D01*
X663Y46D02*
X681Y46D01*
X710Y46D02*
X727Y46D01*
X749Y46D02*
X767Y46D01*
X795Y46D02*
X802Y46D01*
X812Y46D02*
X813Y46D01*
X884Y46D02*
X888Y46D01*
X917Y46D02*
X941Y46D01*
X994Y46D02*
X1001Y46D01*
X0Y45D02*
X7Y45D01*
X994Y45D02*
X1001Y45D01*
X0Y44D02*
X7Y44D01*
X994Y44D02*
X1001Y44D01*
X0Y43D02*
X7Y43D01*
X994Y43D02*
X1001Y43D01*
X0Y42D02*
X7Y42D01*
X994Y42D02*
X1001Y42D01*
X0Y41D02*
X7Y41D01*
X994Y41D02*
X1001Y41D01*
X0Y40D02*
X7Y40D01*
X994Y40D02*
X1001Y40D01*
X0Y39D02*
X7Y39D01*
X994Y39D02*
X1001Y39D01*
X0Y38D02*
X7Y38D01*
X994Y38D02*
X1001Y38D01*
X0Y37D02*
X7Y37D01*
X994Y37D02*
X1001Y37D01*
X0Y36D02*
X7Y36D01*
X994Y36D02*
X1001Y36D01*
X0Y35D02*
X7Y35D01*
X994Y35D02*
X1001Y35D01*
X0Y34D02*
X7Y34D01*
X994Y34D02*
X1001Y34D01*
X0Y33D02*
X7Y33D01*
X994Y33D02*
X1001Y33D01*
X0Y32D02*
X7Y32D01*
X994Y32D02*
X1001Y32D01*
X0Y31D02*
X7Y31D01*
X994Y31D02*
X1001Y31D01*
X0Y30D02*
X7Y30D01*
X994Y30D02*
X1001Y30D01*
X0Y29D02*
X7Y29D01*
X994Y29D02*
X1001Y29D01*
X0Y28D02*
X7Y28D01*
X994Y28D02*
X1001Y28D01*
X0Y27D02*
X7Y27D01*
X994Y27D02*
X1001Y27D01*
X0Y26D02*
X7Y26D01*
X994Y26D02*
X1001Y26D01*
X0Y25D02*
X7Y25D01*
X994Y25D02*
X1001Y25D01*
X0Y24D02*
X7Y24D01*
X994Y24D02*
X1001Y24D01*
X0Y23D02*
X7Y23D01*
X994Y23D02*
X1001Y23D01*
X0Y22D02*
X7Y22D01*
X994Y22D02*
X1001Y22D01*
X0Y21D02*
X7Y21D01*
X994Y21D02*
X1001Y21D01*
X0Y20D02*
X7Y20D01*
X994Y20D02*
X1001Y20D01*
X0Y19D02*
X7Y19D01*
X994Y19D02*
X1001Y19D01*
X0Y18D02*
X7Y18D01*
X994Y18D02*
X1001Y18D01*
X0Y17D02*
X7Y17D01*
X994Y17D02*
X1001Y17D01*
X0Y16D02*
X7Y16D01*
X994Y16D02*
X1001Y16D01*
X0Y15D02*
X7Y15D01*
X994Y15D02*
X1001Y15D01*
X0Y14D02*
X7Y14D01*
X994Y14D02*
X1001Y14D01*
X0Y13D02*
X7Y13D01*
X994Y13D02*
X1001Y13D01*
X0Y12D02*
X7Y12D01*
X994Y12D02*
X1001Y12D01*
X0Y11D02*
X7Y11D01*
X994Y11D02*
X1001Y11D01*
X0Y10D02*
X7Y10D01*
X994Y10D02*
X1001Y10D01*
X0Y9D02*
X7Y9D01*
X994Y9D02*
X1001Y9D01*
X0Y8D02*
X1001Y8D01*
X0Y7D02*
X1001Y7D01*
X0Y6D02*
X1001Y6D01*
X0Y5D02*
X1001Y5D01*
X0Y4D02*
X1001Y4D01*
X0Y3D02*
X1001Y3D01*
X0Y2D02*
X1001Y2D01*
X0Y1D02*
X1001Y1D01*
D02*
G04 End of Silk1*
M02*