G04 MADE WITH FRITZING*
G04 WWW.FRITZING.ORG*
G04 DOUBLE SIDED*
G04 HOLES PLATED*
G04 CONTOUR ON CENTER OF CONTOUR VECTOR*
%ASAXBY*%
%FSLAX23Y23*%
%MOIN*%
%OFA0B0*%
%SFA1.0B1.0*%
%ADD10R,0.001000X0.001000*%
%LNSILK0*%
G90*
G70*
G54D10*
X0Y1196D02*
X1001Y1196D01*
X0Y1195D02*
X1001Y1195D01*
X0Y1194D02*
X1001Y1194D01*
X0Y1193D02*
X1001Y1193D01*
X0Y1192D02*
X1001Y1192D01*
X0Y1191D02*
X1001Y1191D01*
X0Y1190D02*
X1001Y1190D01*
X0Y1189D02*
X1001Y1189D01*
X0Y1188D02*
X7Y1188D01*
X994Y1188D02*
X1001Y1188D01*
X0Y1187D02*
X7Y1187D01*
X994Y1187D02*
X1001Y1187D01*
X0Y1186D02*
X7Y1186D01*
X994Y1186D02*
X1001Y1186D01*
X0Y1185D02*
X7Y1185D01*
X994Y1185D02*
X1001Y1185D01*
X0Y1184D02*
X7Y1184D01*
X994Y1184D02*
X1001Y1184D01*
X0Y1183D02*
X7Y1183D01*
X994Y1183D02*
X1001Y1183D01*
X0Y1182D02*
X7Y1182D01*
X994Y1182D02*
X1001Y1182D01*
X0Y1181D02*
X7Y1181D01*
X994Y1181D02*
X1001Y1181D01*
X0Y1180D02*
X7Y1180D01*
X994Y1180D02*
X1001Y1180D01*
X0Y1179D02*
X7Y1179D01*
X994Y1179D02*
X1001Y1179D01*
X0Y1178D02*
X7Y1178D01*
X994Y1178D02*
X1001Y1178D01*
X0Y1177D02*
X7Y1177D01*
X994Y1177D02*
X1001Y1177D01*
X0Y1176D02*
X7Y1176D01*
X994Y1176D02*
X1001Y1176D01*
X0Y1175D02*
X7Y1175D01*
X994Y1175D02*
X1001Y1175D01*
X0Y1174D02*
X7Y1174D01*
X994Y1174D02*
X1001Y1174D01*
X0Y1173D02*
X7Y1173D01*
X994Y1173D02*
X1001Y1173D01*
X0Y1172D02*
X7Y1172D01*
X994Y1172D02*
X1001Y1172D01*
X0Y1171D02*
X7Y1171D01*
X994Y1171D02*
X1001Y1171D01*
X0Y1170D02*
X7Y1170D01*
X994Y1170D02*
X1001Y1170D01*
X0Y1169D02*
X7Y1169D01*
X994Y1169D02*
X1001Y1169D01*
X0Y1168D02*
X7Y1168D01*
X994Y1168D02*
X1001Y1168D01*
X0Y1167D02*
X7Y1167D01*
X994Y1167D02*
X1001Y1167D01*
X0Y1166D02*
X7Y1166D01*
X994Y1166D02*
X1001Y1166D01*
X0Y1165D02*
X7Y1165D01*
X994Y1165D02*
X1001Y1165D01*
X0Y1164D02*
X7Y1164D01*
X994Y1164D02*
X1001Y1164D01*
X0Y1163D02*
X7Y1163D01*
X994Y1163D02*
X1001Y1163D01*
X0Y1162D02*
X7Y1162D01*
X994Y1162D02*
X1001Y1162D01*
X0Y1161D02*
X7Y1161D01*
X994Y1161D02*
X1001Y1161D01*
X0Y1160D02*
X7Y1160D01*
X994Y1160D02*
X1001Y1160D01*
X0Y1159D02*
X7Y1159D01*
X994Y1159D02*
X1001Y1159D01*
X0Y1158D02*
X7Y1158D01*
X994Y1158D02*
X1001Y1158D01*
X0Y1157D02*
X7Y1157D01*
X994Y1157D02*
X1001Y1157D01*
X0Y1156D02*
X7Y1156D01*
X994Y1156D02*
X1001Y1156D01*
X0Y1155D02*
X7Y1155D01*
X994Y1155D02*
X1001Y1155D01*
X0Y1154D02*
X7Y1154D01*
X994Y1154D02*
X1001Y1154D01*
X0Y1153D02*
X7Y1153D01*
X994Y1153D02*
X1001Y1153D01*
X0Y1152D02*
X7Y1152D01*
X994Y1152D02*
X1001Y1152D01*
X0Y1151D02*
X7Y1151D01*
X994Y1151D02*
X1001Y1151D01*
X0Y1150D02*
X7Y1150D01*
X994Y1150D02*
X1001Y1150D01*
X0Y1149D02*
X7Y1149D01*
X994Y1149D02*
X1001Y1149D01*
X0Y1148D02*
X7Y1148D01*
X994Y1148D02*
X1001Y1148D01*
X0Y1147D02*
X7Y1147D01*
X994Y1147D02*
X1001Y1147D01*
X0Y1146D02*
X7Y1146D01*
X994Y1146D02*
X1001Y1146D01*
X0Y1145D02*
X7Y1145D01*
X994Y1145D02*
X1001Y1145D01*
X0Y1144D02*
X7Y1144D01*
X994Y1144D02*
X1001Y1144D01*
X0Y1143D02*
X7Y1143D01*
X994Y1143D02*
X1001Y1143D01*
X0Y1142D02*
X7Y1142D01*
X994Y1142D02*
X1001Y1142D01*
X0Y1141D02*
X7Y1141D01*
X994Y1141D02*
X1001Y1141D01*
X0Y1140D02*
X7Y1140D01*
X994Y1140D02*
X1001Y1140D01*
X0Y1139D02*
X7Y1139D01*
X994Y1139D02*
X1001Y1139D01*
X0Y1138D02*
X7Y1138D01*
X994Y1138D02*
X1001Y1138D01*
X0Y1137D02*
X7Y1137D01*
X994Y1137D02*
X1001Y1137D01*
X0Y1136D02*
X7Y1136D01*
X994Y1136D02*
X1001Y1136D01*
X0Y1135D02*
X7Y1135D01*
X994Y1135D02*
X1001Y1135D01*
X0Y1134D02*
X7Y1134D01*
X994Y1134D02*
X1001Y1134D01*
X0Y1133D02*
X7Y1133D01*
X994Y1133D02*
X1001Y1133D01*
X0Y1132D02*
X7Y1132D01*
X994Y1132D02*
X1001Y1132D01*
X0Y1131D02*
X7Y1131D01*
X994Y1131D02*
X1001Y1131D01*
X0Y1130D02*
X7Y1130D01*
X994Y1130D02*
X1001Y1130D01*
X0Y1129D02*
X7Y1129D01*
X994Y1129D02*
X1001Y1129D01*
X0Y1128D02*
X7Y1128D01*
X994Y1128D02*
X1001Y1128D01*
X0Y1127D02*
X7Y1127D01*
X994Y1127D02*
X1001Y1127D01*
X0Y1126D02*
X7Y1126D01*
X994Y1126D02*
X1001Y1126D01*
X0Y1125D02*
X7Y1125D01*
X994Y1125D02*
X1001Y1125D01*
X0Y1124D02*
X7Y1124D01*
X994Y1124D02*
X1001Y1124D01*
X0Y1123D02*
X7Y1123D01*
X994Y1123D02*
X1001Y1123D01*
X0Y1122D02*
X7Y1122D01*
X994Y1122D02*
X1001Y1122D01*
X0Y1121D02*
X7Y1121D01*
X994Y1121D02*
X1001Y1121D01*
X0Y1120D02*
X7Y1120D01*
X994Y1120D02*
X1001Y1120D01*
X0Y1119D02*
X7Y1119D01*
X994Y1119D02*
X1001Y1119D01*
X0Y1118D02*
X7Y1118D01*
X994Y1118D02*
X1001Y1118D01*
X0Y1117D02*
X7Y1117D01*
X994Y1117D02*
X1001Y1117D01*
X0Y1116D02*
X7Y1116D01*
X994Y1116D02*
X1001Y1116D01*
X0Y1115D02*
X7Y1115D01*
X994Y1115D02*
X1001Y1115D01*
X0Y1114D02*
X7Y1114D01*
X994Y1114D02*
X1001Y1114D01*
X0Y1113D02*
X7Y1113D01*
X994Y1113D02*
X1001Y1113D01*
X0Y1112D02*
X7Y1112D01*
X994Y1112D02*
X1001Y1112D01*
X0Y1111D02*
X7Y1111D01*
X994Y1111D02*
X1001Y1111D01*
X0Y1110D02*
X7Y1110D01*
X994Y1110D02*
X1001Y1110D01*
X0Y1109D02*
X7Y1109D01*
X994Y1109D02*
X1001Y1109D01*
X0Y1108D02*
X7Y1108D01*
X994Y1108D02*
X1001Y1108D01*
X0Y1107D02*
X7Y1107D01*
X994Y1107D02*
X1001Y1107D01*
X0Y1106D02*
X7Y1106D01*
X994Y1106D02*
X1001Y1106D01*
X0Y1105D02*
X7Y1105D01*
X994Y1105D02*
X1001Y1105D01*
X0Y1104D02*
X7Y1104D01*
X994Y1104D02*
X1001Y1104D01*
X0Y1103D02*
X7Y1103D01*
X994Y1103D02*
X1001Y1103D01*
X0Y1102D02*
X7Y1102D01*
X994Y1102D02*
X1001Y1102D01*
X0Y1101D02*
X7Y1101D01*
X994Y1101D02*
X1001Y1101D01*
X0Y1100D02*
X7Y1100D01*
X994Y1100D02*
X1001Y1100D01*
X0Y1099D02*
X7Y1099D01*
X994Y1099D02*
X1001Y1099D01*
X0Y1098D02*
X7Y1098D01*
X994Y1098D02*
X1001Y1098D01*
X0Y1097D02*
X7Y1097D01*
X994Y1097D02*
X1001Y1097D01*
X0Y1096D02*
X7Y1096D01*
X994Y1096D02*
X1001Y1096D01*
X0Y1095D02*
X7Y1095D01*
X994Y1095D02*
X1001Y1095D01*
X0Y1094D02*
X7Y1094D01*
X994Y1094D02*
X1001Y1094D01*
X0Y1093D02*
X7Y1093D01*
X994Y1093D02*
X1001Y1093D01*
X0Y1092D02*
X7Y1092D01*
X994Y1092D02*
X1001Y1092D01*
X0Y1091D02*
X7Y1091D01*
X994Y1091D02*
X1001Y1091D01*
X0Y1090D02*
X7Y1090D01*
X994Y1090D02*
X1001Y1090D01*
X0Y1089D02*
X7Y1089D01*
X994Y1089D02*
X1001Y1089D01*
X0Y1088D02*
X7Y1088D01*
X994Y1088D02*
X1001Y1088D01*
X0Y1087D02*
X7Y1087D01*
X994Y1087D02*
X1001Y1087D01*
X0Y1086D02*
X7Y1086D01*
X994Y1086D02*
X1001Y1086D01*
X0Y1085D02*
X7Y1085D01*
X994Y1085D02*
X1001Y1085D01*
X0Y1084D02*
X7Y1084D01*
X994Y1084D02*
X1001Y1084D01*
X0Y1083D02*
X7Y1083D01*
X994Y1083D02*
X1001Y1083D01*
X0Y1082D02*
X7Y1082D01*
X994Y1082D02*
X1001Y1082D01*
X0Y1081D02*
X7Y1081D01*
X994Y1081D02*
X1001Y1081D01*
X0Y1080D02*
X7Y1080D01*
X994Y1080D02*
X1001Y1080D01*
X0Y1079D02*
X7Y1079D01*
X994Y1079D02*
X1001Y1079D01*
X0Y1078D02*
X7Y1078D01*
X994Y1078D02*
X1001Y1078D01*
X0Y1077D02*
X7Y1077D01*
X994Y1077D02*
X1001Y1077D01*
X0Y1076D02*
X7Y1076D01*
X994Y1076D02*
X1001Y1076D01*
X0Y1075D02*
X7Y1075D01*
X994Y1075D02*
X1001Y1075D01*
X0Y1074D02*
X7Y1074D01*
X994Y1074D02*
X1001Y1074D01*
X0Y1073D02*
X7Y1073D01*
X994Y1073D02*
X1001Y1073D01*
X0Y1072D02*
X7Y1072D01*
X994Y1072D02*
X1001Y1072D01*
X0Y1071D02*
X7Y1071D01*
X994Y1071D02*
X1001Y1071D01*
X0Y1070D02*
X7Y1070D01*
X994Y1070D02*
X1001Y1070D01*
X0Y1069D02*
X7Y1069D01*
X994Y1069D02*
X1001Y1069D01*
X0Y1068D02*
X7Y1068D01*
X994Y1068D02*
X1001Y1068D01*
X0Y1067D02*
X7Y1067D01*
X994Y1067D02*
X1001Y1067D01*
X0Y1066D02*
X7Y1066D01*
X994Y1066D02*
X1001Y1066D01*
X0Y1065D02*
X7Y1065D01*
X994Y1065D02*
X1001Y1065D01*
X0Y1064D02*
X7Y1064D01*
X994Y1064D02*
X1001Y1064D01*
X0Y1063D02*
X7Y1063D01*
X994Y1063D02*
X1001Y1063D01*
X0Y1062D02*
X7Y1062D01*
X994Y1062D02*
X1001Y1062D01*
X0Y1061D02*
X7Y1061D01*
X994Y1061D02*
X1001Y1061D01*
X0Y1060D02*
X7Y1060D01*
X994Y1060D02*
X1001Y1060D01*
X0Y1059D02*
X7Y1059D01*
X994Y1059D02*
X1001Y1059D01*
X0Y1058D02*
X7Y1058D01*
X994Y1058D02*
X1001Y1058D01*
X0Y1057D02*
X7Y1057D01*
X994Y1057D02*
X1001Y1057D01*
X0Y1056D02*
X7Y1056D01*
X994Y1056D02*
X1001Y1056D01*
X0Y1055D02*
X7Y1055D01*
X994Y1055D02*
X1001Y1055D01*
X0Y1054D02*
X7Y1054D01*
X994Y1054D02*
X1001Y1054D01*
X0Y1053D02*
X7Y1053D01*
X994Y1053D02*
X1001Y1053D01*
X0Y1052D02*
X7Y1052D01*
X994Y1052D02*
X1001Y1052D01*
X0Y1051D02*
X7Y1051D01*
X994Y1051D02*
X1001Y1051D01*
X0Y1050D02*
X7Y1050D01*
X994Y1050D02*
X1001Y1050D01*
X0Y1049D02*
X7Y1049D01*
X994Y1049D02*
X1001Y1049D01*
X0Y1048D02*
X7Y1048D01*
X994Y1048D02*
X1001Y1048D01*
X0Y1047D02*
X7Y1047D01*
X994Y1047D02*
X1001Y1047D01*
X0Y1046D02*
X7Y1046D01*
X994Y1046D02*
X1001Y1046D01*
X0Y1045D02*
X7Y1045D01*
X994Y1045D02*
X1001Y1045D01*
X0Y1044D02*
X7Y1044D01*
X994Y1044D02*
X1001Y1044D01*
X0Y1043D02*
X7Y1043D01*
X994Y1043D02*
X1001Y1043D01*
X0Y1042D02*
X7Y1042D01*
X994Y1042D02*
X1001Y1042D01*
X0Y1041D02*
X7Y1041D01*
X994Y1041D02*
X1001Y1041D01*
X0Y1040D02*
X7Y1040D01*
X994Y1040D02*
X1001Y1040D01*
X0Y1039D02*
X7Y1039D01*
X994Y1039D02*
X1001Y1039D01*
X0Y1038D02*
X7Y1038D01*
X994Y1038D02*
X1001Y1038D01*
X0Y1037D02*
X7Y1037D01*
X994Y1037D02*
X1001Y1037D01*
X0Y1036D02*
X7Y1036D01*
X994Y1036D02*
X1001Y1036D01*
X0Y1035D02*
X7Y1035D01*
X994Y1035D02*
X1001Y1035D01*
X0Y1034D02*
X7Y1034D01*
X994Y1034D02*
X1001Y1034D01*
X0Y1033D02*
X7Y1033D01*
X994Y1033D02*
X1001Y1033D01*
X0Y1032D02*
X7Y1032D01*
X994Y1032D02*
X1001Y1032D01*
X0Y1031D02*
X7Y1031D01*
X994Y1031D02*
X1001Y1031D01*
X0Y1030D02*
X7Y1030D01*
X994Y1030D02*
X1001Y1030D01*
X0Y1029D02*
X7Y1029D01*
X994Y1029D02*
X1001Y1029D01*
X0Y1028D02*
X7Y1028D01*
X994Y1028D02*
X1001Y1028D01*
X0Y1027D02*
X7Y1027D01*
X994Y1027D02*
X1001Y1027D01*
X0Y1026D02*
X7Y1026D01*
X994Y1026D02*
X1001Y1026D01*
X0Y1025D02*
X7Y1025D01*
X994Y1025D02*
X1001Y1025D01*
X0Y1024D02*
X7Y1024D01*
X994Y1024D02*
X1001Y1024D01*
X0Y1023D02*
X7Y1023D01*
X994Y1023D02*
X1001Y1023D01*
X0Y1022D02*
X7Y1022D01*
X994Y1022D02*
X1001Y1022D01*
X0Y1021D02*
X7Y1021D01*
X994Y1021D02*
X1001Y1021D01*
X0Y1020D02*
X7Y1020D01*
X994Y1020D02*
X1001Y1020D01*
X0Y1019D02*
X7Y1019D01*
X994Y1019D02*
X1001Y1019D01*
X0Y1018D02*
X7Y1018D01*
X994Y1018D02*
X1001Y1018D01*
X0Y1017D02*
X7Y1017D01*
X994Y1017D02*
X1001Y1017D01*
X0Y1016D02*
X7Y1016D01*
X994Y1016D02*
X1001Y1016D01*
X0Y1015D02*
X7Y1015D01*
X994Y1015D02*
X1001Y1015D01*
X0Y1014D02*
X6Y1014D01*
X994Y1014D02*
X1001Y1014D01*
X0Y1013D02*
X6Y1013D01*
X994Y1013D02*
X1001Y1013D01*
X0Y1012D02*
X6Y1012D01*
X994Y1012D02*
X1001Y1012D01*
X0Y1011D02*
X6Y1011D01*
X994Y1011D02*
X1001Y1011D01*
X0Y1010D02*
X6Y1010D01*
X994Y1010D02*
X1001Y1010D01*
X0Y1009D02*
X6Y1009D01*
X994Y1009D02*
X1001Y1009D01*
X0Y1008D02*
X6Y1008D01*
X994Y1008D02*
X1001Y1008D01*
X0Y1007D02*
X6Y1007D01*
X994Y1007D02*
X1001Y1007D01*
X0Y1006D02*
X5Y1006D01*
X994Y1006D02*
X1001Y1006D01*
X0Y1005D02*
X5Y1005D01*
X994Y1005D02*
X1001Y1005D01*
X0Y1004D02*
X5Y1004D01*
X994Y1004D02*
X1001Y1004D01*
X0Y1003D02*
X5Y1003D01*
X994Y1003D02*
X1001Y1003D01*
X0Y1002D02*
X6Y1002D01*
X994Y1002D02*
X1001Y1002D01*
X0Y1001D02*
X6Y1001D01*
X994Y1001D02*
X1001Y1001D01*
X0Y1000D02*
X6Y1000D01*
X994Y1000D02*
X1001Y1000D01*
X0Y999D02*
X6Y999D01*
X994Y999D02*
X1001Y999D01*
X0Y998D02*
X6Y998D01*
X994Y998D02*
X1001Y998D01*
X0Y997D02*
X6Y997D01*
X994Y997D02*
X1001Y997D01*
X0Y996D02*
X6Y996D01*
X994Y996D02*
X1001Y996D01*
X0Y995D02*
X7Y995D01*
X994Y995D02*
X1001Y995D01*
X0Y994D02*
X7Y994D01*
X994Y994D02*
X1001Y994D01*
X0Y993D02*
X7Y993D01*
X994Y993D02*
X1001Y993D01*
X0Y992D02*
X7Y992D01*
X994Y992D02*
X1001Y992D01*
X0Y991D02*
X7Y991D01*
X994Y991D02*
X1001Y991D01*
X0Y990D02*
X7Y990D01*
X994Y990D02*
X1001Y990D01*
X0Y989D02*
X7Y989D01*
X994Y989D02*
X1001Y989D01*
X0Y988D02*
X7Y988D01*
X994Y988D02*
X1001Y988D01*
X0Y987D02*
X7Y987D01*
X994Y987D02*
X1001Y987D01*
X0Y986D02*
X7Y986D01*
X994Y986D02*
X1001Y986D01*
X0Y985D02*
X7Y985D01*
X994Y985D02*
X1001Y985D01*
X0Y984D02*
X7Y984D01*
X994Y984D02*
X1001Y984D01*
X0Y983D02*
X7Y983D01*
X994Y983D02*
X1001Y983D01*
X0Y982D02*
X7Y982D01*
X994Y982D02*
X1001Y982D01*
X0Y981D02*
X7Y981D01*
X994Y981D02*
X1001Y981D01*
X0Y980D02*
X7Y980D01*
X994Y980D02*
X1001Y980D01*
X0Y979D02*
X7Y979D01*
X994Y979D02*
X1001Y979D01*
X0Y978D02*
X7Y978D01*
X994Y978D02*
X1001Y978D01*
X0Y977D02*
X7Y977D01*
X994Y977D02*
X1001Y977D01*
X0Y976D02*
X7Y976D01*
X994Y976D02*
X1001Y976D01*
X0Y975D02*
X7Y975D01*
X994Y975D02*
X1001Y975D01*
X0Y974D02*
X7Y974D01*
X994Y974D02*
X1001Y974D01*
X0Y973D02*
X7Y973D01*
X994Y973D02*
X1001Y973D01*
X0Y972D02*
X7Y972D01*
X994Y972D02*
X1001Y972D01*
X0Y971D02*
X7Y971D01*
X994Y971D02*
X1001Y971D01*
X0Y970D02*
X7Y970D01*
X994Y970D02*
X1001Y970D01*
X0Y969D02*
X7Y969D01*
X994Y969D02*
X1001Y969D01*
X0Y968D02*
X7Y968D01*
X994Y968D02*
X1001Y968D01*
X0Y967D02*
X7Y967D01*
X994Y967D02*
X1001Y967D01*
X0Y966D02*
X7Y966D01*
X994Y966D02*
X1001Y966D01*
X0Y965D02*
X7Y965D01*
X994Y965D02*
X1001Y965D01*
X0Y964D02*
X7Y964D01*
X994Y964D02*
X1001Y964D01*
X0Y963D02*
X7Y963D01*
X994Y963D02*
X1001Y963D01*
X0Y962D02*
X7Y962D01*
X994Y962D02*
X1001Y962D01*
X0Y961D02*
X7Y961D01*
X994Y961D02*
X1001Y961D01*
X0Y960D02*
X7Y960D01*
X994Y960D02*
X1001Y960D01*
X0Y959D02*
X7Y959D01*
X994Y959D02*
X1001Y959D01*
X0Y958D02*
X7Y958D01*
X994Y958D02*
X1001Y958D01*
X0Y957D02*
X7Y957D01*
X994Y957D02*
X1001Y957D01*
X0Y956D02*
X7Y956D01*
X994Y956D02*
X1001Y956D01*
X0Y955D02*
X7Y955D01*
X994Y955D02*
X1001Y955D01*
X0Y954D02*
X7Y954D01*
X994Y954D02*
X1001Y954D01*
X0Y953D02*
X7Y953D01*
X994Y953D02*
X1001Y953D01*
X0Y952D02*
X7Y952D01*
X994Y952D02*
X1001Y952D01*
X0Y951D02*
X7Y951D01*
X994Y951D02*
X1001Y951D01*
X0Y950D02*
X7Y950D01*
X994Y950D02*
X1001Y950D01*
X0Y949D02*
X7Y949D01*
X994Y949D02*
X1001Y949D01*
X0Y948D02*
X7Y948D01*
X994Y948D02*
X1001Y948D01*
X0Y947D02*
X7Y947D01*
X994Y947D02*
X1001Y947D01*
X0Y946D02*
X7Y946D01*
X994Y946D02*
X1001Y946D01*
X0Y945D02*
X7Y945D01*
X994Y945D02*
X1001Y945D01*
X0Y944D02*
X7Y944D01*
X994Y944D02*
X1001Y944D01*
X0Y943D02*
X7Y943D01*
X994Y943D02*
X1001Y943D01*
X0Y942D02*
X7Y942D01*
X994Y942D02*
X1001Y942D01*
X0Y941D02*
X7Y941D01*
X994Y941D02*
X1001Y941D01*
X0Y940D02*
X7Y940D01*
X994Y940D02*
X1001Y940D01*
X0Y939D02*
X7Y939D01*
X994Y939D02*
X1001Y939D01*
X0Y938D02*
X7Y938D01*
X994Y938D02*
X1001Y938D01*
X0Y937D02*
X7Y937D01*
X994Y937D02*
X1001Y937D01*
X0Y936D02*
X7Y936D01*
X994Y936D02*
X1001Y936D01*
X0Y935D02*
X7Y935D01*
X994Y935D02*
X1001Y935D01*
X0Y934D02*
X7Y934D01*
X994Y934D02*
X1001Y934D01*
X0Y933D02*
X7Y933D01*
X994Y933D02*
X1001Y933D01*
X0Y932D02*
X7Y932D01*
X994Y932D02*
X1001Y932D01*
X0Y931D02*
X7Y931D01*
X994Y931D02*
X1001Y931D01*
X0Y930D02*
X7Y930D01*
X994Y930D02*
X1001Y930D01*
X0Y929D02*
X7Y929D01*
X994Y929D02*
X1001Y929D01*
X0Y928D02*
X7Y928D01*
X994Y928D02*
X1001Y928D01*
X0Y927D02*
X7Y927D01*
X994Y927D02*
X1001Y927D01*
X0Y926D02*
X7Y926D01*
X994Y926D02*
X1001Y926D01*
X0Y925D02*
X7Y925D01*
X994Y925D02*
X1001Y925D01*
X0Y924D02*
X7Y924D01*
X994Y924D02*
X1001Y924D01*
X0Y923D02*
X7Y923D01*
X994Y923D02*
X1001Y923D01*
X0Y922D02*
X7Y922D01*
X994Y922D02*
X1001Y922D01*
X0Y921D02*
X7Y921D01*
X994Y921D02*
X1001Y921D01*
X0Y920D02*
X7Y920D01*
X994Y920D02*
X1001Y920D01*
X0Y919D02*
X7Y919D01*
X994Y919D02*
X1001Y919D01*
X0Y918D02*
X7Y918D01*
X994Y918D02*
X1001Y918D01*
X0Y917D02*
X7Y917D01*
X994Y917D02*
X1001Y917D01*
X0Y916D02*
X7Y916D01*
X994Y916D02*
X1001Y916D01*
X0Y915D02*
X7Y915D01*
X994Y915D02*
X1001Y915D01*
X0Y914D02*
X6Y914D01*
X994Y914D02*
X1001Y914D01*
X0Y913D02*
X6Y913D01*
X994Y913D02*
X1001Y913D01*
X0Y912D02*
X6Y912D01*
X994Y912D02*
X1001Y912D01*
X0Y911D02*
X6Y911D01*
X994Y911D02*
X1001Y911D01*
X0Y910D02*
X6Y910D01*
X994Y910D02*
X1001Y910D01*
X0Y909D02*
X6Y909D01*
X994Y909D02*
X1001Y909D01*
X0Y908D02*
X6Y908D01*
X994Y908D02*
X1001Y908D01*
X0Y907D02*
X6Y907D01*
X994Y907D02*
X1001Y907D01*
X0Y906D02*
X5Y906D01*
X994Y906D02*
X1001Y906D01*
X0Y905D02*
X5Y905D01*
X994Y905D02*
X1001Y905D01*
X0Y904D02*
X5Y904D01*
X994Y904D02*
X1001Y904D01*
X0Y903D02*
X5Y903D01*
X994Y903D02*
X1001Y903D01*
X0Y902D02*
X6Y902D01*
X994Y902D02*
X1001Y902D01*
X0Y901D02*
X6Y901D01*
X994Y901D02*
X1001Y901D01*
X0Y900D02*
X6Y900D01*
X994Y900D02*
X1001Y900D01*
X0Y899D02*
X6Y899D01*
X994Y899D02*
X1001Y899D01*
X0Y898D02*
X6Y898D01*
X994Y898D02*
X1001Y898D01*
X0Y897D02*
X6Y897D01*
X994Y897D02*
X1001Y897D01*
X0Y896D02*
X6Y896D01*
X994Y896D02*
X1001Y896D01*
X0Y895D02*
X7Y895D01*
X994Y895D02*
X1001Y895D01*
X0Y894D02*
X7Y894D01*
X994Y894D02*
X1001Y894D01*
X0Y893D02*
X7Y893D01*
X994Y893D02*
X1001Y893D01*
X0Y892D02*
X7Y892D01*
X994Y892D02*
X1001Y892D01*
X0Y891D02*
X7Y891D01*
X994Y891D02*
X1001Y891D01*
X0Y890D02*
X7Y890D01*
X994Y890D02*
X1001Y890D01*
X0Y889D02*
X7Y889D01*
X994Y889D02*
X1001Y889D01*
X0Y888D02*
X7Y888D01*
X994Y888D02*
X1001Y888D01*
X0Y887D02*
X7Y887D01*
X994Y887D02*
X1001Y887D01*
X0Y886D02*
X7Y886D01*
X994Y886D02*
X1001Y886D01*
X0Y885D02*
X7Y885D01*
X994Y885D02*
X1001Y885D01*
X0Y884D02*
X7Y884D01*
X994Y884D02*
X1001Y884D01*
X0Y883D02*
X7Y883D01*
X994Y883D02*
X1001Y883D01*
X0Y882D02*
X7Y882D01*
X994Y882D02*
X1001Y882D01*
X0Y881D02*
X7Y881D01*
X994Y881D02*
X1001Y881D01*
X0Y880D02*
X7Y880D01*
X994Y880D02*
X1001Y880D01*
X0Y879D02*
X7Y879D01*
X994Y879D02*
X1001Y879D01*
X0Y878D02*
X7Y878D01*
X994Y878D02*
X1001Y878D01*
X0Y877D02*
X7Y877D01*
X994Y877D02*
X1001Y877D01*
X0Y876D02*
X7Y876D01*
X994Y876D02*
X1001Y876D01*
X0Y875D02*
X7Y875D01*
X994Y875D02*
X1001Y875D01*
X0Y874D02*
X7Y874D01*
X994Y874D02*
X1001Y874D01*
X0Y873D02*
X7Y873D01*
X994Y873D02*
X1001Y873D01*
X0Y872D02*
X7Y872D01*
X994Y872D02*
X1001Y872D01*
X0Y871D02*
X7Y871D01*
X994Y871D02*
X1001Y871D01*
X0Y870D02*
X7Y870D01*
X994Y870D02*
X1001Y870D01*
X0Y869D02*
X7Y869D01*
X994Y869D02*
X1001Y869D01*
X0Y868D02*
X7Y868D01*
X994Y868D02*
X1001Y868D01*
X0Y867D02*
X7Y867D01*
X994Y867D02*
X1001Y867D01*
X0Y866D02*
X7Y866D01*
X994Y866D02*
X1001Y866D01*
X0Y865D02*
X7Y865D01*
X994Y865D02*
X1001Y865D01*
X0Y864D02*
X7Y864D01*
X994Y864D02*
X1001Y864D01*
X0Y863D02*
X7Y863D01*
X994Y863D02*
X1001Y863D01*
X0Y862D02*
X7Y862D01*
X994Y862D02*
X1001Y862D01*
X0Y861D02*
X7Y861D01*
X994Y861D02*
X1001Y861D01*
X0Y860D02*
X7Y860D01*
X994Y860D02*
X1001Y860D01*
X0Y859D02*
X7Y859D01*
X994Y859D02*
X1001Y859D01*
X0Y858D02*
X7Y858D01*
X994Y858D02*
X1001Y858D01*
X0Y857D02*
X7Y857D01*
X994Y857D02*
X1001Y857D01*
X0Y856D02*
X7Y856D01*
X994Y856D02*
X1001Y856D01*
X0Y855D02*
X7Y855D01*
X994Y855D02*
X1001Y855D01*
X0Y854D02*
X7Y854D01*
X994Y854D02*
X1001Y854D01*
X0Y853D02*
X7Y853D01*
X994Y853D02*
X1001Y853D01*
X0Y852D02*
X7Y852D01*
X994Y852D02*
X1001Y852D01*
X0Y851D02*
X7Y851D01*
X994Y851D02*
X1001Y851D01*
X0Y850D02*
X7Y850D01*
X994Y850D02*
X1001Y850D01*
X0Y849D02*
X7Y849D01*
X994Y849D02*
X1001Y849D01*
X0Y848D02*
X7Y848D01*
X994Y848D02*
X1001Y848D01*
X0Y847D02*
X7Y847D01*
X994Y847D02*
X1001Y847D01*
X0Y846D02*
X7Y846D01*
X994Y846D02*
X1001Y846D01*
X0Y845D02*
X7Y845D01*
X994Y845D02*
X1001Y845D01*
X0Y844D02*
X7Y844D01*
X994Y844D02*
X1001Y844D01*
X0Y843D02*
X7Y843D01*
X994Y843D02*
X1001Y843D01*
X0Y842D02*
X7Y842D01*
X994Y842D02*
X1001Y842D01*
X0Y841D02*
X7Y841D01*
X994Y841D02*
X1001Y841D01*
X0Y840D02*
X7Y840D01*
X994Y840D02*
X1001Y840D01*
X0Y839D02*
X7Y839D01*
X994Y839D02*
X1001Y839D01*
X0Y838D02*
X7Y838D01*
X994Y838D02*
X1001Y838D01*
X0Y837D02*
X7Y837D01*
X994Y837D02*
X1001Y837D01*
X0Y836D02*
X7Y836D01*
X994Y836D02*
X1001Y836D01*
X0Y835D02*
X7Y835D01*
X994Y835D02*
X1001Y835D01*
X0Y834D02*
X7Y834D01*
X994Y834D02*
X1001Y834D01*
X0Y833D02*
X7Y833D01*
X994Y833D02*
X1001Y833D01*
X0Y832D02*
X7Y832D01*
X994Y832D02*
X1001Y832D01*
X0Y831D02*
X7Y831D01*
X994Y831D02*
X1001Y831D01*
X0Y830D02*
X7Y830D01*
X994Y830D02*
X1001Y830D01*
X0Y829D02*
X7Y829D01*
X994Y829D02*
X1001Y829D01*
X0Y828D02*
X7Y828D01*
X994Y828D02*
X1001Y828D01*
X0Y827D02*
X7Y827D01*
X994Y827D02*
X1001Y827D01*
X0Y826D02*
X7Y826D01*
X994Y826D02*
X1001Y826D01*
X0Y825D02*
X7Y825D01*
X994Y825D02*
X1001Y825D01*
X0Y824D02*
X7Y824D01*
X994Y824D02*
X1001Y824D01*
X0Y823D02*
X7Y823D01*
X994Y823D02*
X1001Y823D01*
X0Y822D02*
X7Y822D01*
X994Y822D02*
X1001Y822D01*
X0Y821D02*
X7Y821D01*
X994Y821D02*
X1001Y821D01*
X0Y820D02*
X7Y820D01*
X994Y820D02*
X1001Y820D01*
X0Y819D02*
X7Y819D01*
X994Y819D02*
X1001Y819D01*
X0Y818D02*
X7Y818D01*
X994Y818D02*
X1001Y818D01*
X0Y817D02*
X7Y817D01*
X994Y817D02*
X1001Y817D01*
X0Y816D02*
X7Y816D01*
X994Y816D02*
X1001Y816D01*
X0Y815D02*
X7Y815D01*
X994Y815D02*
X1001Y815D01*
X0Y814D02*
X6Y814D01*
X994Y814D02*
X1001Y814D01*
X0Y813D02*
X6Y813D01*
X994Y813D02*
X1001Y813D01*
X0Y812D02*
X6Y812D01*
X994Y812D02*
X1001Y812D01*
X0Y811D02*
X6Y811D01*
X994Y811D02*
X1001Y811D01*
X0Y810D02*
X6Y810D01*
X994Y810D02*
X1001Y810D01*
X0Y809D02*
X6Y809D01*
X994Y809D02*
X1001Y809D01*
X0Y808D02*
X6Y808D01*
X994Y808D02*
X1001Y808D01*
X0Y807D02*
X6Y807D01*
X994Y807D02*
X1001Y807D01*
X0Y806D02*
X5Y806D01*
X994Y806D02*
X1001Y806D01*
X0Y805D02*
X5Y805D01*
X994Y805D02*
X1001Y805D01*
X0Y804D02*
X5Y804D01*
X994Y804D02*
X1001Y804D01*
X0Y803D02*
X5Y803D01*
X994Y803D02*
X1001Y803D01*
X0Y802D02*
X6Y802D01*
X994Y802D02*
X1001Y802D01*
X0Y801D02*
X6Y801D01*
X994Y801D02*
X1001Y801D01*
X0Y800D02*
X6Y800D01*
X994Y800D02*
X1001Y800D01*
X0Y799D02*
X6Y799D01*
X994Y799D02*
X1001Y799D01*
X0Y798D02*
X6Y798D01*
X994Y798D02*
X1001Y798D01*
X0Y797D02*
X6Y797D01*
X994Y797D02*
X1001Y797D01*
X0Y796D02*
X6Y796D01*
X994Y796D02*
X1001Y796D01*
X0Y795D02*
X7Y795D01*
X994Y795D02*
X1001Y795D01*
X0Y794D02*
X7Y794D01*
X994Y794D02*
X1001Y794D01*
X0Y793D02*
X7Y793D01*
X994Y793D02*
X1001Y793D01*
X0Y792D02*
X7Y792D01*
X994Y792D02*
X1001Y792D01*
X0Y791D02*
X7Y791D01*
X994Y791D02*
X1001Y791D01*
X0Y790D02*
X7Y790D01*
X994Y790D02*
X1001Y790D01*
X0Y789D02*
X7Y789D01*
X994Y789D02*
X1001Y789D01*
X0Y788D02*
X7Y788D01*
X994Y788D02*
X1001Y788D01*
X0Y787D02*
X7Y787D01*
X994Y787D02*
X1001Y787D01*
X0Y786D02*
X7Y786D01*
X994Y786D02*
X1001Y786D01*
X0Y785D02*
X7Y785D01*
X994Y785D02*
X1001Y785D01*
X0Y784D02*
X7Y784D01*
X994Y784D02*
X1001Y784D01*
X0Y783D02*
X7Y783D01*
X994Y783D02*
X1001Y783D01*
X0Y782D02*
X7Y782D01*
X994Y782D02*
X1001Y782D01*
X0Y781D02*
X7Y781D01*
X994Y781D02*
X1001Y781D01*
X0Y780D02*
X7Y780D01*
X994Y780D02*
X1001Y780D01*
X0Y779D02*
X7Y779D01*
X994Y779D02*
X1001Y779D01*
X0Y778D02*
X7Y778D01*
X994Y778D02*
X1001Y778D01*
X0Y777D02*
X7Y777D01*
X994Y777D02*
X1001Y777D01*
X0Y776D02*
X7Y776D01*
X994Y776D02*
X1001Y776D01*
X0Y775D02*
X7Y775D01*
X994Y775D02*
X1001Y775D01*
X0Y774D02*
X7Y774D01*
X994Y774D02*
X1001Y774D01*
X0Y773D02*
X7Y773D01*
X994Y773D02*
X1001Y773D01*
X0Y772D02*
X7Y772D01*
X994Y772D02*
X1001Y772D01*
X0Y771D02*
X7Y771D01*
X994Y771D02*
X1001Y771D01*
X0Y770D02*
X7Y770D01*
X994Y770D02*
X1001Y770D01*
X0Y769D02*
X7Y769D01*
X994Y769D02*
X1001Y769D01*
X0Y768D02*
X7Y768D01*
X994Y768D02*
X1001Y768D01*
X0Y767D02*
X7Y767D01*
X994Y767D02*
X1001Y767D01*
X0Y766D02*
X7Y766D01*
X994Y766D02*
X1001Y766D01*
X0Y765D02*
X7Y765D01*
X994Y765D02*
X1001Y765D01*
X0Y764D02*
X7Y764D01*
X994Y764D02*
X1001Y764D01*
X0Y763D02*
X7Y763D01*
X994Y763D02*
X1001Y763D01*
X0Y762D02*
X7Y762D01*
X994Y762D02*
X1001Y762D01*
X0Y761D02*
X7Y761D01*
X994Y761D02*
X1001Y761D01*
X0Y760D02*
X7Y760D01*
X994Y760D02*
X1001Y760D01*
X0Y759D02*
X7Y759D01*
X994Y759D02*
X1001Y759D01*
X0Y758D02*
X7Y758D01*
X994Y758D02*
X1001Y758D01*
X0Y757D02*
X7Y757D01*
X994Y757D02*
X1001Y757D01*
X0Y756D02*
X7Y756D01*
X994Y756D02*
X1001Y756D01*
X0Y755D02*
X7Y755D01*
X994Y755D02*
X1001Y755D01*
X0Y754D02*
X7Y754D01*
X994Y754D02*
X1001Y754D01*
X0Y753D02*
X7Y753D01*
X994Y753D02*
X1001Y753D01*
X0Y752D02*
X7Y752D01*
X994Y752D02*
X1001Y752D01*
X0Y751D02*
X7Y751D01*
X994Y751D02*
X1001Y751D01*
X0Y750D02*
X7Y750D01*
X994Y750D02*
X1001Y750D01*
X0Y749D02*
X7Y749D01*
X994Y749D02*
X1001Y749D01*
X0Y748D02*
X7Y748D01*
X994Y748D02*
X1001Y748D01*
X0Y747D02*
X7Y747D01*
X994Y747D02*
X1001Y747D01*
X0Y746D02*
X7Y746D01*
X994Y746D02*
X1001Y746D01*
X0Y745D02*
X7Y745D01*
X994Y745D02*
X1001Y745D01*
X0Y744D02*
X7Y744D01*
X994Y744D02*
X1001Y744D01*
X0Y743D02*
X7Y743D01*
X994Y743D02*
X1001Y743D01*
X0Y742D02*
X7Y742D01*
X994Y742D02*
X1001Y742D01*
X0Y741D02*
X7Y741D01*
X994Y741D02*
X1001Y741D01*
X0Y740D02*
X7Y740D01*
X994Y740D02*
X1001Y740D01*
X0Y739D02*
X7Y739D01*
X994Y739D02*
X1001Y739D01*
X0Y738D02*
X7Y738D01*
X994Y738D02*
X1001Y738D01*
X0Y737D02*
X7Y737D01*
X994Y737D02*
X1001Y737D01*
X0Y736D02*
X7Y736D01*
X994Y736D02*
X1001Y736D01*
X0Y735D02*
X7Y735D01*
X994Y735D02*
X1001Y735D01*
X0Y734D02*
X7Y734D01*
X994Y734D02*
X1001Y734D01*
X0Y733D02*
X7Y733D01*
X994Y733D02*
X1001Y733D01*
X0Y732D02*
X7Y732D01*
X994Y732D02*
X1001Y732D01*
X0Y731D02*
X7Y731D01*
X994Y731D02*
X1001Y731D01*
X0Y730D02*
X7Y730D01*
X994Y730D02*
X1001Y730D01*
X0Y729D02*
X7Y729D01*
X994Y729D02*
X1001Y729D01*
X0Y728D02*
X7Y728D01*
X994Y728D02*
X1001Y728D01*
X0Y727D02*
X7Y727D01*
X994Y727D02*
X1001Y727D01*
X0Y726D02*
X7Y726D01*
X994Y726D02*
X1001Y726D01*
X0Y725D02*
X7Y725D01*
X994Y725D02*
X1001Y725D01*
X0Y724D02*
X7Y724D01*
X994Y724D02*
X1001Y724D01*
X0Y723D02*
X7Y723D01*
X994Y723D02*
X1001Y723D01*
X0Y722D02*
X7Y722D01*
X994Y722D02*
X1001Y722D01*
X0Y721D02*
X7Y721D01*
X994Y721D02*
X1001Y721D01*
X0Y720D02*
X7Y720D01*
X994Y720D02*
X1001Y720D01*
X0Y719D02*
X7Y719D01*
X994Y719D02*
X1001Y719D01*
X0Y718D02*
X7Y718D01*
X994Y718D02*
X1001Y718D01*
X0Y717D02*
X7Y717D01*
X994Y717D02*
X1001Y717D01*
X0Y716D02*
X7Y716D01*
X994Y716D02*
X1001Y716D01*
X0Y715D02*
X7Y715D01*
X994Y715D02*
X1001Y715D01*
X0Y714D02*
X6Y714D01*
X994Y714D02*
X1001Y714D01*
X0Y713D02*
X6Y713D01*
X994Y713D02*
X1001Y713D01*
X0Y712D02*
X6Y712D01*
X994Y712D02*
X1001Y712D01*
X0Y711D02*
X6Y711D01*
X994Y711D02*
X1001Y711D01*
X0Y710D02*
X6Y710D01*
X994Y710D02*
X1001Y710D01*
X0Y709D02*
X6Y709D01*
X994Y709D02*
X1001Y709D01*
X0Y708D02*
X6Y708D01*
X994Y708D02*
X1001Y708D01*
X0Y707D02*
X6Y707D01*
X994Y707D02*
X1001Y707D01*
X0Y706D02*
X5Y706D01*
X994Y706D02*
X1001Y706D01*
X0Y705D02*
X5Y705D01*
X994Y705D02*
X1001Y705D01*
X0Y704D02*
X5Y704D01*
X994Y704D02*
X1001Y704D01*
X0Y703D02*
X5Y703D01*
X994Y703D02*
X1001Y703D01*
X0Y702D02*
X6Y702D01*
X994Y702D02*
X1001Y702D01*
X0Y701D02*
X6Y701D01*
X994Y701D02*
X1001Y701D01*
X0Y700D02*
X6Y700D01*
X994Y700D02*
X1001Y700D01*
X0Y699D02*
X6Y699D01*
X994Y699D02*
X1001Y699D01*
X0Y698D02*
X6Y698D01*
X994Y698D02*
X1001Y698D01*
X0Y697D02*
X6Y697D01*
X994Y697D02*
X1001Y697D01*
X0Y696D02*
X6Y696D01*
X994Y696D02*
X1001Y696D01*
X0Y695D02*
X7Y695D01*
X994Y695D02*
X1001Y695D01*
X0Y694D02*
X7Y694D01*
X994Y694D02*
X1001Y694D01*
X0Y693D02*
X7Y693D01*
X994Y693D02*
X1001Y693D01*
X0Y692D02*
X7Y692D01*
X994Y692D02*
X1001Y692D01*
X0Y691D02*
X7Y691D01*
X994Y691D02*
X1001Y691D01*
X0Y690D02*
X7Y690D01*
X994Y690D02*
X1001Y690D01*
X0Y689D02*
X7Y689D01*
X994Y689D02*
X1001Y689D01*
X0Y688D02*
X7Y688D01*
X994Y688D02*
X1001Y688D01*
X0Y687D02*
X7Y687D01*
X994Y687D02*
X1001Y687D01*
X0Y686D02*
X7Y686D01*
X994Y686D02*
X1001Y686D01*
X0Y685D02*
X7Y685D01*
X994Y685D02*
X1001Y685D01*
X0Y684D02*
X7Y684D01*
X994Y684D02*
X1001Y684D01*
X0Y683D02*
X7Y683D01*
X994Y683D02*
X1001Y683D01*
X0Y682D02*
X7Y682D01*
X994Y682D02*
X1001Y682D01*
X0Y681D02*
X7Y681D01*
X994Y681D02*
X1001Y681D01*
X0Y680D02*
X7Y680D01*
X994Y680D02*
X1001Y680D01*
X0Y679D02*
X7Y679D01*
X994Y679D02*
X1001Y679D01*
X0Y678D02*
X7Y678D01*
X994Y678D02*
X1001Y678D01*
X0Y677D02*
X7Y677D01*
X994Y677D02*
X1001Y677D01*
X0Y676D02*
X7Y676D01*
X994Y676D02*
X1001Y676D01*
X0Y675D02*
X7Y675D01*
X994Y675D02*
X1001Y675D01*
X0Y674D02*
X7Y674D01*
X994Y674D02*
X1001Y674D01*
X0Y673D02*
X7Y673D01*
X994Y673D02*
X1001Y673D01*
X0Y672D02*
X7Y672D01*
X994Y672D02*
X1001Y672D01*
X0Y671D02*
X7Y671D01*
X994Y671D02*
X1001Y671D01*
X0Y670D02*
X7Y670D01*
X994Y670D02*
X1001Y670D01*
X0Y669D02*
X7Y669D01*
X994Y669D02*
X1001Y669D01*
X0Y668D02*
X7Y668D01*
X994Y668D02*
X1001Y668D01*
X0Y667D02*
X7Y667D01*
X994Y667D02*
X1001Y667D01*
X0Y666D02*
X7Y666D01*
X994Y666D02*
X1001Y666D01*
X0Y665D02*
X7Y665D01*
X994Y665D02*
X1001Y665D01*
X0Y664D02*
X7Y664D01*
X994Y664D02*
X1001Y664D01*
X0Y663D02*
X7Y663D01*
X994Y663D02*
X1001Y663D01*
X0Y662D02*
X7Y662D01*
X994Y662D02*
X1001Y662D01*
X0Y661D02*
X7Y661D01*
X994Y661D02*
X1001Y661D01*
X0Y660D02*
X7Y660D01*
X994Y660D02*
X1001Y660D01*
X0Y659D02*
X7Y659D01*
X994Y659D02*
X1001Y659D01*
X0Y658D02*
X7Y658D01*
X994Y658D02*
X1001Y658D01*
X0Y657D02*
X7Y657D01*
X994Y657D02*
X1001Y657D01*
X0Y656D02*
X7Y656D01*
X994Y656D02*
X1001Y656D01*
X0Y655D02*
X7Y655D01*
X994Y655D02*
X1001Y655D01*
X0Y654D02*
X7Y654D01*
X994Y654D02*
X1001Y654D01*
X0Y653D02*
X7Y653D01*
X994Y653D02*
X1001Y653D01*
X0Y652D02*
X7Y652D01*
X994Y652D02*
X1001Y652D01*
X0Y651D02*
X7Y651D01*
X994Y651D02*
X1001Y651D01*
X0Y650D02*
X7Y650D01*
X994Y650D02*
X1001Y650D01*
X0Y649D02*
X7Y649D01*
X994Y649D02*
X1001Y649D01*
X0Y648D02*
X7Y648D01*
X994Y648D02*
X1001Y648D01*
X0Y647D02*
X7Y647D01*
X994Y647D02*
X1001Y647D01*
X0Y646D02*
X7Y646D01*
X994Y646D02*
X1001Y646D01*
X0Y645D02*
X7Y645D01*
X994Y645D02*
X1001Y645D01*
X0Y644D02*
X7Y644D01*
X994Y644D02*
X1001Y644D01*
X0Y643D02*
X7Y643D01*
X994Y643D02*
X1001Y643D01*
X0Y642D02*
X7Y642D01*
X994Y642D02*
X1001Y642D01*
X0Y641D02*
X7Y641D01*
X994Y641D02*
X1001Y641D01*
X0Y640D02*
X7Y640D01*
X994Y640D02*
X1001Y640D01*
X0Y639D02*
X7Y639D01*
X994Y639D02*
X1001Y639D01*
X0Y638D02*
X7Y638D01*
X994Y638D02*
X1001Y638D01*
X0Y637D02*
X7Y637D01*
X994Y637D02*
X1001Y637D01*
X0Y636D02*
X7Y636D01*
X994Y636D02*
X1001Y636D01*
X0Y635D02*
X7Y635D01*
X994Y635D02*
X1001Y635D01*
X0Y634D02*
X7Y634D01*
X994Y634D02*
X1001Y634D01*
X0Y633D02*
X7Y633D01*
X994Y633D02*
X1001Y633D01*
X0Y632D02*
X7Y632D01*
X994Y632D02*
X1001Y632D01*
X0Y631D02*
X7Y631D01*
X994Y631D02*
X1001Y631D01*
X0Y630D02*
X7Y630D01*
X994Y630D02*
X1001Y630D01*
X0Y629D02*
X7Y629D01*
X994Y629D02*
X1001Y629D01*
X0Y628D02*
X7Y628D01*
X994Y628D02*
X1001Y628D01*
X0Y627D02*
X7Y627D01*
X994Y627D02*
X1001Y627D01*
X0Y626D02*
X7Y626D01*
X994Y626D02*
X1001Y626D01*
X0Y625D02*
X7Y625D01*
X994Y625D02*
X1001Y625D01*
X0Y624D02*
X7Y624D01*
X994Y624D02*
X1001Y624D01*
X0Y623D02*
X7Y623D01*
X994Y623D02*
X1001Y623D01*
X0Y622D02*
X7Y622D01*
X994Y622D02*
X1001Y622D01*
X0Y621D02*
X7Y621D01*
X994Y621D02*
X1001Y621D01*
X0Y620D02*
X7Y620D01*
X994Y620D02*
X1001Y620D01*
X0Y619D02*
X7Y619D01*
X994Y619D02*
X1001Y619D01*
X0Y618D02*
X7Y618D01*
X994Y618D02*
X1001Y618D01*
X0Y617D02*
X7Y617D01*
X994Y617D02*
X1001Y617D01*
X0Y616D02*
X7Y616D01*
X994Y616D02*
X1001Y616D01*
X0Y615D02*
X7Y615D01*
X994Y615D02*
X1001Y615D01*
X0Y614D02*
X6Y614D01*
X994Y614D02*
X1001Y614D01*
X0Y613D02*
X6Y613D01*
X994Y613D02*
X1001Y613D01*
X0Y612D02*
X6Y612D01*
X994Y612D02*
X1001Y612D01*
X0Y611D02*
X6Y611D01*
X994Y611D02*
X1001Y611D01*
X0Y610D02*
X6Y610D01*
X994Y610D02*
X1001Y610D01*
X0Y609D02*
X6Y609D01*
X994Y609D02*
X1001Y609D01*
X0Y608D02*
X6Y608D01*
X994Y608D02*
X1001Y608D01*
X0Y607D02*
X6Y607D01*
X994Y607D02*
X1001Y607D01*
X0Y606D02*
X5Y606D01*
X994Y606D02*
X1001Y606D01*
X0Y605D02*
X5Y605D01*
X994Y605D02*
X1001Y605D01*
X0Y604D02*
X5Y604D01*
X994Y604D02*
X1001Y604D01*
X0Y603D02*
X6Y603D01*
X994Y603D02*
X1001Y603D01*
X0Y602D02*
X6Y602D01*
X994Y602D02*
X1001Y602D01*
X0Y601D02*
X6Y601D01*
X994Y601D02*
X1001Y601D01*
X0Y600D02*
X6Y600D01*
X994Y600D02*
X1001Y600D01*
X0Y599D02*
X6Y599D01*
X994Y599D02*
X1001Y599D01*
X0Y598D02*
X6Y598D01*
X994Y598D02*
X1001Y598D01*
X0Y597D02*
X6Y597D01*
X994Y597D02*
X1001Y597D01*
X0Y596D02*
X6Y596D01*
X994Y596D02*
X1001Y596D01*
X0Y595D02*
X7Y595D01*
X994Y595D02*
X1001Y595D01*
X0Y594D02*
X7Y594D01*
X994Y594D02*
X1001Y594D01*
X0Y593D02*
X7Y593D01*
X994Y593D02*
X1001Y593D01*
X0Y592D02*
X7Y592D01*
X994Y592D02*
X1001Y592D01*
X0Y591D02*
X7Y591D01*
X994Y591D02*
X1001Y591D01*
X0Y590D02*
X7Y590D01*
X994Y590D02*
X1001Y590D01*
X0Y589D02*
X7Y589D01*
X994Y589D02*
X1001Y589D01*
X0Y588D02*
X7Y588D01*
X994Y588D02*
X1001Y588D01*
X0Y587D02*
X7Y587D01*
X994Y587D02*
X1001Y587D01*
X0Y586D02*
X7Y586D01*
X994Y586D02*
X1001Y586D01*
X0Y585D02*
X7Y585D01*
X994Y585D02*
X1001Y585D01*
X0Y584D02*
X7Y584D01*
X994Y584D02*
X1001Y584D01*
X0Y583D02*
X7Y583D01*
X994Y583D02*
X1001Y583D01*
X0Y582D02*
X7Y582D01*
X994Y582D02*
X1001Y582D01*
X0Y581D02*
X7Y581D01*
X994Y581D02*
X1001Y581D01*
X0Y580D02*
X7Y580D01*
X994Y580D02*
X1001Y580D01*
X0Y579D02*
X7Y579D01*
X994Y579D02*
X1001Y579D01*
X0Y578D02*
X7Y578D01*
X994Y578D02*
X1001Y578D01*
X0Y577D02*
X7Y577D01*
X994Y577D02*
X1001Y577D01*
X0Y576D02*
X7Y576D01*
X994Y576D02*
X1001Y576D01*
X0Y575D02*
X7Y575D01*
X994Y575D02*
X1001Y575D01*
X0Y574D02*
X7Y574D01*
X994Y574D02*
X1001Y574D01*
X0Y573D02*
X7Y573D01*
X994Y573D02*
X1001Y573D01*
X0Y572D02*
X7Y572D01*
X994Y572D02*
X1001Y572D01*
X0Y571D02*
X7Y571D01*
X994Y571D02*
X1001Y571D01*
X0Y570D02*
X7Y570D01*
X994Y570D02*
X1001Y570D01*
X0Y569D02*
X7Y569D01*
X994Y569D02*
X1001Y569D01*
X0Y568D02*
X7Y568D01*
X994Y568D02*
X1001Y568D01*
X0Y567D02*
X7Y567D01*
X994Y567D02*
X1001Y567D01*
X0Y566D02*
X7Y566D01*
X994Y566D02*
X1001Y566D01*
X0Y565D02*
X7Y565D01*
X994Y565D02*
X1001Y565D01*
X0Y564D02*
X7Y564D01*
X994Y564D02*
X1001Y564D01*
X0Y563D02*
X7Y563D01*
X994Y563D02*
X1001Y563D01*
X0Y562D02*
X7Y562D01*
X994Y562D02*
X1001Y562D01*
X0Y561D02*
X7Y561D01*
X994Y561D02*
X1001Y561D01*
X0Y560D02*
X7Y560D01*
X994Y560D02*
X1001Y560D01*
X0Y559D02*
X7Y559D01*
X994Y559D02*
X1001Y559D01*
X0Y558D02*
X7Y558D01*
X994Y558D02*
X1001Y558D01*
X0Y557D02*
X7Y557D01*
X994Y557D02*
X1001Y557D01*
X0Y556D02*
X7Y556D01*
X994Y556D02*
X1001Y556D01*
X0Y555D02*
X7Y555D01*
X994Y555D02*
X1001Y555D01*
X0Y554D02*
X7Y554D01*
X994Y554D02*
X1001Y554D01*
X0Y553D02*
X7Y553D01*
X994Y553D02*
X1001Y553D01*
X0Y552D02*
X7Y552D01*
X994Y552D02*
X1001Y552D01*
X0Y551D02*
X7Y551D01*
X994Y551D02*
X1001Y551D01*
X0Y550D02*
X7Y550D01*
X994Y550D02*
X1001Y550D01*
X0Y549D02*
X7Y549D01*
X994Y549D02*
X1001Y549D01*
X0Y548D02*
X7Y548D01*
X994Y548D02*
X1001Y548D01*
X0Y547D02*
X7Y547D01*
X994Y547D02*
X1001Y547D01*
X0Y546D02*
X7Y546D01*
X994Y546D02*
X1001Y546D01*
X0Y545D02*
X7Y545D01*
X994Y545D02*
X1001Y545D01*
X0Y544D02*
X7Y544D01*
X994Y544D02*
X1001Y544D01*
X0Y543D02*
X7Y543D01*
X994Y543D02*
X1001Y543D01*
X0Y542D02*
X7Y542D01*
X994Y542D02*
X1001Y542D01*
X0Y541D02*
X7Y541D01*
X994Y541D02*
X1001Y541D01*
X0Y540D02*
X7Y540D01*
X994Y540D02*
X1001Y540D01*
X0Y539D02*
X7Y539D01*
X994Y539D02*
X1001Y539D01*
X0Y538D02*
X7Y538D01*
X994Y538D02*
X1001Y538D01*
X0Y537D02*
X7Y537D01*
X994Y537D02*
X1001Y537D01*
X0Y536D02*
X7Y536D01*
X994Y536D02*
X1001Y536D01*
X0Y535D02*
X7Y535D01*
X994Y535D02*
X1001Y535D01*
X0Y534D02*
X7Y534D01*
X994Y534D02*
X1001Y534D01*
X0Y533D02*
X7Y533D01*
X994Y533D02*
X1001Y533D01*
X0Y532D02*
X7Y532D01*
X994Y532D02*
X1001Y532D01*
X0Y531D02*
X7Y531D01*
X994Y531D02*
X1001Y531D01*
X0Y530D02*
X7Y530D01*
X994Y530D02*
X1001Y530D01*
X0Y529D02*
X7Y529D01*
X994Y529D02*
X1001Y529D01*
X0Y528D02*
X7Y528D01*
X994Y528D02*
X1001Y528D01*
X0Y527D02*
X7Y527D01*
X994Y527D02*
X1001Y527D01*
X0Y526D02*
X7Y526D01*
X994Y526D02*
X1001Y526D01*
X0Y525D02*
X7Y525D01*
X994Y525D02*
X1001Y525D01*
X0Y524D02*
X7Y524D01*
X994Y524D02*
X1001Y524D01*
X0Y523D02*
X7Y523D01*
X994Y523D02*
X1001Y523D01*
X0Y522D02*
X7Y522D01*
X994Y522D02*
X1001Y522D01*
X0Y521D02*
X7Y521D01*
X994Y521D02*
X1001Y521D01*
X0Y520D02*
X7Y520D01*
X994Y520D02*
X1001Y520D01*
X0Y519D02*
X7Y519D01*
X994Y519D02*
X1001Y519D01*
X0Y518D02*
X7Y518D01*
X994Y518D02*
X1001Y518D01*
X0Y517D02*
X7Y517D01*
X994Y517D02*
X1001Y517D01*
X0Y516D02*
X7Y516D01*
X994Y516D02*
X1001Y516D01*
X0Y515D02*
X7Y515D01*
X994Y515D02*
X1001Y515D01*
X0Y514D02*
X6Y514D01*
X994Y514D02*
X1001Y514D01*
X0Y513D02*
X6Y513D01*
X994Y513D02*
X1001Y513D01*
X0Y512D02*
X6Y512D01*
X994Y512D02*
X1001Y512D01*
X0Y511D02*
X6Y511D01*
X994Y511D02*
X1001Y511D01*
X0Y510D02*
X6Y510D01*
X994Y510D02*
X1001Y510D01*
X0Y509D02*
X6Y509D01*
X994Y509D02*
X1001Y509D01*
X0Y508D02*
X6Y508D01*
X994Y508D02*
X1001Y508D01*
X0Y507D02*
X6Y507D01*
X994Y507D02*
X1001Y507D01*
X0Y506D02*
X5Y506D01*
X994Y506D02*
X1001Y506D01*
X0Y505D02*
X5Y505D01*
X994Y505D02*
X1001Y505D01*
X0Y504D02*
X5Y504D01*
X994Y504D02*
X1001Y504D01*
X0Y503D02*
X6Y503D01*
X994Y503D02*
X1001Y503D01*
X0Y502D02*
X6Y502D01*
X994Y502D02*
X1001Y502D01*
X0Y501D02*
X6Y501D01*
X994Y501D02*
X1001Y501D01*
X0Y500D02*
X6Y500D01*
X994Y500D02*
X1001Y500D01*
X0Y499D02*
X6Y499D01*
X994Y499D02*
X1001Y499D01*
X0Y498D02*
X6Y498D01*
X994Y498D02*
X1001Y498D01*
X0Y497D02*
X6Y497D01*
X994Y497D02*
X1001Y497D01*
X0Y496D02*
X6Y496D01*
X994Y496D02*
X1001Y496D01*
X0Y495D02*
X7Y495D01*
X994Y495D02*
X1001Y495D01*
X0Y494D02*
X7Y494D01*
X994Y494D02*
X1001Y494D01*
X0Y493D02*
X7Y493D01*
X994Y493D02*
X1001Y493D01*
X0Y492D02*
X7Y492D01*
X994Y492D02*
X1001Y492D01*
X0Y491D02*
X7Y491D01*
X994Y491D02*
X1001Y491D01*
X0Y490D02*
X7Y490D01*
X994Y490D02*
X1001Y490D01*
X0Y489D02*
X7Y489D01*
X994Y489D02*
X1001Y489D01*
X0Y488D02*
X7Y488D01*
X994Y488D02*
X1001Y488D01*
X0Y487D02*
X7Y487D01*
X994Y487D02*
X1001Y487D01*
X0Y486D02*
X7Y486D01*
X994Y486D02*
X1001Y486D01*
X0Y485D02*
X7Y485D01*
X994Y485D02*
X1001Y485D01*
X0Y484D02*
X7Y484D01*
X994Y484D02*
X1001Y484D01*
X0Y483D02*
X7Y483D01*
X994Y483D02*
X1001Y483D01*
X0Y482D02*
X7Y482D01*
X994Y482D02*
X1001Y482D01*
X0Y481D02*
X7Y481D01*
X994Y481D02*
X1001Y481D01*
X0Y480D02*
X7Y480D01*
X994Y480D02*
X1001Y480D01*
X0Y479D02*
X7Y479D01*
X994Y479D02*
X1001Y479D01*
X0Y478D02*
X7Y478D01*
X994Y478D02*
X1001Y478D01*
X0Y477D02*
X7Y477D01*
X994Y477D02*
X1001Y477D01*
X0Y476D02*
X7Y476D01*
X994Y476D02*
X1001Y476D01*
X0Y475D02*
X7Y475D01*
X994Y475D02*
X1001Y475D01*
X0Y474D02*
X7Y474D01*
X994Y474D02*
X1001Y474D01*
X0Y473D02*
X7Y473D01*
X994Y473D02*
X1001Y473D01*
X0Y472D02*
X7Y472D01*
X994Y472D02*
X1001Y472D01*
X0Y471D02*
X7Y471D01*
X994Y471D02*
X1001Y471D01*
X0Y470D02*
X7Y470D01*
X994Y470D02*
X1001Y470D01*
X0Y469D02*
X7Y469D01*
X994Y469D02*
X1001Y469D01*
X0Y468D02*
X7Y468D01*
X994Y468D02*
X1001Y468D01*
X0Y467D02*
X7Y467D01*
X994Y467D02*
X1001Y467D01*
X0Y466D02*
X7Y466D01*
X994Y466D02*
X1001Y466D01*
X0Y465D02*
X7Y465D01*
X994Y465D02*
X1001Y465D01*
X0Y464D02*
X7Y464D01*
X994Y464D02*
X1001Y464D01*
X0Y463D02*
X7Y463D01*
X994Y463D02*
X1001Y463D01*
X0Y462D02*
X7Y462D01*
X994Y462D02*
X1001Y462D01*
X0Y461D02*
X7Y461D01*
X994Y461D02*
X1001Y461D01*
X0Y460D02*
X7Y460D01*
X994Y460D02*
X1001Y460D01*
X0Y459D02*
X7Y459D01*
X994Y459D02*
X1001Y459D01*
X0Y458D02*
X7Y458D01*
X994Y458D02*
X1001Y458D01*
X0Y457D02*
X7Y457D01*
X994Y457D02*
X1001Y457D01*
X0Y456D02*
X7Y456D01*
X994Y456D02*
X1001Y456D01*
X0Y455D02*
X7Y455D01*
X994Y455D02*
X1001Y455D01*
X0Y454D02*
X7Y454D01*
X994Y454D02*
X1001Y454D01*
X0Y453D02*
X7Y453D01*
X994Y453D02*
X1001Y453D01*
X0Y452D02*
X7Y452D01*
X994Y452D02*
X1001Y452D01*
X0Y451D02*
X7Y451D01*
X994Y451D02*
X1001Y451D01*
X0Y450D02*
X7Y450D01*
X994Y450D02*
X1001Y450D01*
X0Y449D02*
X7Y449D01*
X994Y449D02*
X1001Y449D01*
X0Y448D02*
X7Y448D01*
X994Y448D02*
X1001Y448D01*
X0Y447D02*
X7Y447D01*
X994Y447D02*
X1001Y447D01*
X0Y446D02*
X7Y446D01*
X994Y446D02*
X1001Y446D01*
X0Y445D02*
X7Y445D01*
X994Y445D02*
X1001Y445D01*
X0Y444D02*
X7Y444D01*
X994Y444D02*
X1001Y444D01*
X0Y443D02*
X7Y443D01*
X994Y443D02*
X1001Y443D01*
X0Y442D02*
X7Y442D01*
X994Y442D02*
X1001Y442D01*
X0Y441D02*
X7Y441D01*
X994Y441D02*
X1001Y441D01*
X0Y440D02*
X7Y440D01*
X994Y440D02*
X1001Y440D01*
X0Y439D02*
X7Y439D01*
X994Y439D02*
X1001Y439D01*
X0Y438D02*
X7Y438D01*
X994Y438D02*
X1001Y438D01*
X0Y437D02*
X7Y437D01*
X994Y437D02*
X1001Y437D01*
X0Y436D02*
X7Y436D01*
X994Y436D02*
X1001Y436D01*
X0Y435D02*
X7Y435D01*
X994Y435D02*
X1001Y435D01*
X0Y434D02*
X7Y434D01*
X994Y434D02*
X1001Y434D01*
X0Y433D02*
X7Y433D01*
X994Y433D02*
X1001Y433D01*
X0Y432D02*
X7Y432D01*
X994Y432D02*
X1001Y432D01*
X0Y431D02*
X7Y431D01*
X994Y431D02*
X1001Y431D01*
X0Y430D02*
X7Y430D01*
X994Y430D02*
X1001Y430D01*
X0Y429D02*
X7Y429D01*
X994Y429D02*
X1001Y429D01*
X0Y428D02*
X7Y428D01*
X994Y428D02*
X1001Y428D01*
X0Y427D02*
X7Y427D01*
X994Y427D02*
X1001Y427D01*
X0Y426D02*
X7Y426D01*
X994Y426D02*
X1001Y426D01*
X0Y425D02*
X7Y425D01*
X994Y425D02*
X1001Y425D01*
X0Y424D02*
X7Y424D01*
X994Y424D02*
X1001Y424D01*
X0Y423D02*
X7Y423D01*
X994Y423D02*
X1001Y423D01*
X0Y422D02*
X7Y422D01*
X994Y422D02*
X1001Y422D01*
X0Y421D02*
X7Y421D01*
X994Y421D02*
X1001Y421D01*
X0Y420D02*
X7Y420D01*
X994Y420D02*
X1001Y420D01*
X0Y419D02*
X7Y419D01*
X994Y419D02*
X1001Y419D01*
X0Y418D02*
X7Y418D01*
X994Y418D02*
X1001Y418D01*
X0Y417D02*
X7Y417D01*
X994Y417D02*
X1001Y417D01*
X0Y416D02*
X7Y416D01*
X994Y416D02*
X1001Y416D01*
X0Y415D02*
X7Y415D01*
X994Y415D02*
X1001Y415D01*
X0Y414D02*
X6Y414D01*
X994Y414D02*
X1001Y414D01*
X0Y413D02*
X6Y413D01*
X994Y413D02*
X1001Y413D01*
X0Y412D02*
X6Y412D01*
X994Y412D02*
X1001Y412D01*
X0Y411D02*
X6Y411D01*
X994Y411D02*
X1001Y411D01*
X0Y410D02*
X6Y410D01*
X994Y410D02*
X1001Y410D01*
X0Y409D02*
X6Y409D01*
X994Y409D02*
X1001Y409D01*
X0Y408D02*
X6Y408D01*
X994Y408D02*
X1001Y408D01*
X0Y407D02*
X6Y407D01*
X994Y407D02*
X1001Y407D01*
X0Y406D02*
X5Y406D01*
X994Y406D02*
X1001Y406D01*
X0Y405D02*
X5Y405D01*
X994Y405D02*
X1001Y405D01*
X0Y404D02*
X5Y404D01*
X994Y404D02*
X1001Y404D01*
X0Y403D02*
X6Y403D01*
X994Y403D02*
X1001Y403D01*
X0Y402D02*
X6Y402D01*
X994Y402D02*
X1001Y402D01*
X0Y401D02*
X6Y401D01*
X994Y401D02*
X1001Y401D01*
X0Y400D02*
X6Y400D01*
X994Y400D02*
X1001Y400D01*
X0Y399D02*
X6Y399D01*
X994Y399D02*
X1001Y399D01*
X0Y398D02*
X6Y398D01*
X994Y398D02*
X1001Y398D01*
X0Y397D02*
X6Y397D01*
X994Y397D02*
X1001Y397D01*
X0Y396D02*
X6Y396D01*
X994Y396D02*
X1001Y396D01*
X0Y395D02*
X7Y395D01*
X994Y395D02*
X1001Y395D01*
X0Y394D02*
X7Y394D01*
X994Y394D02*
X1001Y394D01*
X0Y393D02*
X7Y393D01*
X994Y393D02*
X1001Y393D01*
X0Y392D02*
X7Y392D01*
X994Y392D02*
X1001Y392D01*
X0Y391D02*
X7Y391D01*
X994Y391D02*
X1001Y391D01*
X0Y390D02*
X7Y390D01*
X994Y390D02*
X1001Y390D01*
X0Y389D02*
X7Y389D01*
X994Y389D02*
X1001Y389D01*
X0Y388D02*
X7Y388D01*
X994Y388D02*
X1001Y388D01*
X0Y387D02*
X7Y387D01*
X994Y387D02*
X1001Y387D01*
X0Y386D02*
X7Y386D01*
X994Y386D02*
X1001Y386D01*
X0Y385D02*
X7Y385D01*
X994Y385D02*
X1001Y385D01*
X0Y384D02*
X7Y384D01*
X994Y384D02*
X1001Y384D01*
X0Y383D02*
X7Y383D01*
X994Y383D02*
X1001Y383D01*
X0Y382D02*
X7Y382D01*
X994Y382D02*
X1001Y382D01*
X0Y381D02*
X7Y381D01*
X994Y381D02*
X1001Y381D01*
X0Y380D02*
X7Y380D01*
X994Y380D02*
X1001Y380D01*
X0Y379D02*
X7Y379D01*
X994Y379D02*
X1001Y379D01*
X0Y378D02*
X7Y378D01*
X994Y378D02*
X1001Y378D01*
X0Y377D02*
X7Y377D01*
X994Y377D02*
X1001Y377D01*
X0Y376D02*
X7Y376D01*
X994Y376D02*
X1001Y376D01*
X0Y375D02*
X7Y375D01*
X994Y375D02*
X1001Y375D01*
X0Y374D02*
X7Y374D01*
X994Y374D02*
X1001Y374D01*
X0Y373D02*
X7Y373D01*
X994Y373D02*
X1001Y373D01*
X0Y372D02*
X7Y372D01*
X994Y372D02*
X1001Y372D01*
X0Y371D02*
X7Y371D01*
X994Y371D02*
X1001Y371D01*
X0Y370D02*
X7Y370D01*
X994Y370D02*
X1001Y370D01*
X0Y369D02*
X7Y369D01*
X994Y369D02*
X1001Y369D01*
X0Y368D02*
X7Y368D01*
X994Y368D02*
X1001Y368D01*
X0Y367D02*
X7Y367D01*
X994Y367D02*
X1001Y367D01*
X0Y366D02*
X7Y366D01*
X994Y366D02*
X1001Y366D01*
X0Y365D02*
X7Y365D01*
X994Y365D02*
X1001Y365D01*
X0Y364D02*
X7Y364D01*
X994Y364D02*
X1001Y364D01*
X0Y363D02*
X7Y363D01*
X994Y363D02*
X1001Y363D01*
X0Y362D02*
X7Y362D01*
X994Y362D02*
X1001Y362D01*
X0Y361D02*
X7Y361D01*
X994Y361D02*
X1001Y361D01*
X0Y360D02*
X7Y360D01*
X994Y360D02*
X1001Y360D01*
X0Y359D02*
X7Y359D01*
X994Y359D02*
X1001Y359D01*
X0Y358D02*
X7Y358D01*
X994Y358D02*
X1001Y358D01*
X0Y357D02*
X7Y357D01*
X994Y357D02*
X1001Y357D01*
X0Y356D02*
X7Y356D01*
X994Y356D02*
X1001Y356D01*
X0Y355D02*
X7Y355D01*
X994Y355D02*
X1001Y355D01*
X0Y354D02*
X7Y354D01*
X994Y354D02*
X1001Y354D01*
X0Y353D02*
X7Y353D01*
X994Y353D02*
X1001Y353D01*
X0Y352D02*
X7Y352D01*
X994Y352D02*
X1001Y352D01*
X0Y351D02*
X7Y351D01*
X994Y351D02*
X1001Y351D01*
X0Y350D02*
X7Y350D01*
X994Y350D02*
X1001Y350D01*
X0Y349D02*
X7Y349D01*
X994Y349D02*
X1001Y349D01*
X0Y348D02*
X7Y348D01*
X994Y348D02*
X1001Y348D01*
X0Y347D02*
X7Y347D01*
X994Y347D02*
X1001Y347D01*
X0Y346D02*
X7Y346D01*
X994Y346D02*
X1001Y346D01*
X0Y345D02*
X7Y345D01*
X994Y345D02*
X1001Y345D01*
X0Y344D02*
X7Y344D01*
X994Y344D02*
X1001Y344D01*
X0Y343D02*
X7Y343D01*
X994Y343D02*
X1001Y343D01*
X0Y342D02*
X7Y342D01*
X994Y342D02*
X1001Y342D01*
X0Y341D02*
X7Y341D01*
X994Y341D02*
X1001Y341D01*
X0Y340D02*
X7Y340D01*
X994Y340D02*
X1001Y340D01*
X0Y339D02*
X7Y339D01*
X994Y339D02*
X1001Y339D01*
X0Y338D02*
X7Y338D01*
X994Y338D02*
X1001Y338D01*
X0Y337D02*
X7Y337D01*
X994Y337D02*
X1001Y337D01*
X0Y336D02*
X7Y336D01*
X994Y336D02*
X1001Y336D01*
X0Y335D02*
X7Y335D01*
X994Y335D02*
X1001Y335D01*
X0Y334D02*
X7Y334D01*
X994Y334D02*
X1001Y334D01*
X0Y333D02*
X7Y333D01*
X994Y333D02*
X1001Y333D01*
X0Y332D02*
X7Y332D01*
X994Y332D02*
X1001Y332D01*
X0Y331D02*
X7Y331D01*
X994Y331D02*
X1001Y331D01*
X0Y330D02*
X7Y330D01*
X994Y330D02*
X1001Y330D01*
X0Y329D02*
X7Y329D01*
X994Y329D02*
X1001Y329D01*
X0Y328D02*
X7Y328D01*
X994Y328D02*
X1001Y328D01*
X0Y327D02*
X7Y327D01*
X994Y327D02*
X1001Y327D01*
X0Y326D02*
X7Y326D01*
X994Y326D02*
X1001Y326D01*
X0Y325D02*
X7Y325D01*
X994Y325D02*
X1001Y325D01*
X0Y324D02*
X7Y324D01*
X994Y324D02*
X1001Y324D01*
X0Y323D02*
X7Y323D01*
X994Y323D02*
X1001Y323D01*
X0Y322D02*
X7Y322D01*
X994Y322D02*
X1001Y322D01*
X0Y321D02*
X7Y321D01*
X994Y321D02*
X1001Y321D01*
X0Y320D02*
X7Y320D01*
X994Y320D02*
X1001Y320D01*
X0Y319D02*
X7Y319D01*
X994Y319D02*
X1001Y319D01*
X0Y318D02*
X7Y318D01*
X994Y318D02*
X1001Y318D01*
X0Y317D02*
X7Y317D01*
X994Y317D02*
X1001Y317D01*
X0Y316D02*
X7Y316D01*
X994Y316D02*
X1001Y316D01*
X0Y315D02*
X7Y315D01*
X994Y315D02*
X1001Y315D01*
X0Y314D02*
X6Y314D01*
X994Y314D02*
X1001Y314D01*
X0Y313D02*
X6Y313D01*
X994Y313D02*
X1001Y313D01*
X0Y312D02*
X6Y312D01*
X994Y312D02*
X1001Y312D01*
X0Y311D02*
X6Y311D01*
X994Y311D02*
X1001Y311D01*
X0Y310D02*
X6Y310D01*
X994Y310D02*
X1001Y310D01*
X0Y309D02*
X6Y309D01*
X994Y309D02*
X1001Y309D01*
X0Y308D02*
X6Y308D01*
X994Y308D02*
X1001Y308D01*
X0Y307D02*
X6Y307D01*
X994Y307D02*
X1001Y307D01*
X0Y306D02*
X5Y306D01*
X994Y306D02*
X1001Y306D01*
X0Y305D02*
X5Y305D01*
X994Y305D02*
X1001Y305D01*
X0Y304D02*
X5Y304D01*
X994Y304D02*
X1001Y304D01*
X0Y303D02*
X6Y303D01*
X994Y303D02*
X1001Y303D01*
X0Y302D02*
X6Y302D01*
X994Y302D02*
X1001Y302D01*
X0Y301D02*
X6Y301D01*
X994Y301D02*
X1001Y301D01*
X0Y300D02*
X6Y300D01*
X994Y300D02*
X1001Y300D01*
X0Y299D02*
X6Y299D01*
X994Y299D02*
X1001Y299D01*
X0Y298D02*
X6Y298D01*
X994Y298D02*
X1001Y298D01*
X0Y297D02*
X6Y297D01*
X994Y297D02*
X1001Y297D01*
X0Y296D02*
X6Y296D01*
X994Y296D02*
X1001Y296D01*
X0Y295D02*
X7Y295D01*
X994Y295D02*
X1001Y295D01*
X0Y294D02*
X7Y294D01*
X994Y294D02*
X1001Y294D01*
X0Y293D02*
X7Y293D01*
X994Y293D02*
X1001Y293D01*
X0Y292D02*
X7Y292D01*
X994Y292D02*
X1001Y292D01*
X0Y291D02*
X7Y291D01*
X994Y291D02*
X1001Y291D01*
X0Y290D02*
X7Y290D01*
X994Y290D02*
X1001Y290D01*
X0Y289D02*
X7Y289D01*
X994Y289D02*
X1001Y289D01*
X0Y288D02*
X7Y288D01*
X994Y288D02*
X1001Y288D01*
X0Y287D02*
X7Y287D01*
X994Y287D02*
X1001Y287D01*
X0Y286D02*
X7Y286D01*
X994Y286D02*
X1001Y286D01*
X0Y285D02*
X7Y285D01*
X994Y285D02*
X1001Y285D01*
X0Y284D02*
X7Y284D01*
X994Y284D02*
X1001Y284D01*
X0Y283D02*
X7Y283D01*
X994Y283D02*
X1001Y283D01*
X0Y282D02*
X7Y282D01*
X994Y282D02*
X1001Y282D01*
X0Y281D02*
X7Y281D01*
X994Y281D02*
X1001Y281D01*
X0Y280D02*
X7Y280D01*
X994Y280D02*
X1001Y280D01*
X0Y279D02*
X7Y279D01*
X994Y279D02*
X1001Y279D01*
X0Y278D02*
X7Y278D01*
X994Y278D02*
X1001Y278D01*
X0Y277D02*
X7Y277D01*
X994Y277D02*
X1001Y277D01*
X0Y276D02*
X7Y276D01*
X994Y276D02*
X1001Y276D01*
X0Y275D02*
X7Y275D01*
X994Y275D02*
X1001Y275D01*
X0Y274D02*
X7Y274D01*
X994Y274D02*
X1001Y274D01*
X0Y273D02*
X7Y273D01*
X994Y273D02*
X1001Y273D01*
X0Y272D02*
X7Y272D01*
X994Y272D02*
X1001Y272D01*
X0Y271D02*
X7Y271D01*
X994Y271D02*
X1001Y271D01*
X0Y270D02*
X7Y270D01*
X994Y270D02*
X1001Y270D01*
X0Y269D02*
X7Y269D01*
X994Y269D02*
X1001Y269D01*
X0Y268D02*
X7Y268D01*
X994Y268D02*
X1001Y268D01*
X0Y267D02*
X7Y267D01*
X994Y267D02*
X1001Y267D01*
X0Y266D02*
X7Y266D01*
X994Y266D02*
X1001Y266D01*
X0Y265D02*
X7Y265D01*
X994Y265D02*
X1001Y265D01*
X0Y264D02*
X7Y264D01*
X994Y264D02*
X1001Y264D01*
X0Y263D02*
X7Y263D01*
X994Y263D02*
X1001Y263D01*
X0Y262D02*
X7Y262D01*
X994Y262D02*
X1001Y262D01*
X0Y261D02*
X7Y261D01*
X994Y261D02*
X1001Y261D01*
X0Y260D02*
X7Y260D01*
X994Y260D02*
X1001Y260D01*
X0Y259D02*
X7Y259D01*
X994Y259D02*
X1001Y259D01*
X0Y258D02*
X7Y258D01*
X994Y258D02*
X1001Y258D01*
X0Y257D02*
X7Y257D01*
X994Y257D02*
X1001Y257D01*
X0Y256D02*
X7Y256D01*
X994Y256D02*
X1001Y256D01*
X0Y255D02*
X7Y255D01*
X994Y255D02*
X1001Y255D01*
X0Y254D02*
X7Y254D01*
X994Y254D02*
X1001Y254D01*
X0Y253D02*
X7Y253D01*
X994Y253D02*
X1001Y253D01*
X0Y252D02*
X7Y252D01*
X994Y252D02*
X1001Y252D01*
X0Y251D02*
X7Y251D01*
X994Y251D02*
X1001Y251D01*
X0Y250D02*
X7Y250D01*
X994Y250D02*
X1001Y250D01*
X0Y249D02*
X7Y249D01*
X994Y249D02*
X1001Y249D01*
X0Y248D02*
X7Y248D01*
X994Y248D02*
X1001Y248D01*
X0Y247D02*
X7Y247D01*
X994Y247D02*
X1001Y247D01*
X0Y246D02*
X7Y246D01*
X994Y246D02*
X1001Y246D01*
X0Y245D02*
X7Y245D01*
X994Y245D02*
X1001Y245D01*
X0Y244D02*
X7Y244D01*
X994Y244D02*
X1001Y244D01*
X0Y243D02*
X7Y243D01*
X994Y243D02*
X1001Y243D01*
X0Y242D02*
X7Y242D01*
X994Y242D02*
X1001Y242D01*
X0Y241D02*
X7Y241D01*
X994Y241D02*
X1001Y241D01*
X0Y240D02*
X7Y240D01*
X994Y240D02*
X1001Y240D01*
X0Y239D02*
X7Y239D01*
X994Y239D02*
X1001Y239D01*
X0Y238D02*
X7Y238D01*
X994Y238D02*
X1001Y238D01*
X0Y237D02*
X7Y237D01*
X994Y237D02*
X1001Y237D01*
X0Y236D02*
X7Y236D01*
X994Y236D02*
X1001Y236D01*
X0Y235D02*
X7Y235D01*
X994Y235D02*
X1001Y235D01*
X0Y234D02*
X7Y234D01*
X994Y234D02*
X1001Y234D01*
X0Y233D02*
X7Y233D01*
X994Y233D02*
X1001Y233D01*
X0Y232D02*
X7Y232D01*
X994Y232D02*
X1001Y232D01*
X0Y231D02*
X7Y231D01*
X994Y231D02*
X1001Y231D01*
X0Y230D02*
X7Y230D01*
X994Y230D02*
X1001Y230D01*
X0Y229D02*
X7Y229D01*
X994Y229D02*
X1001Y229D01*
X0Y228D02*
X7Y228D01*
X994Y228D02*
X1001Y228D01*
X0Y227D02*
X7Y227D01*
X994Y227D02*
X1001Y227D01*
X0Y226D02*
X7Y226D01*
X994Y226D02*
X1001Y226D01*
X0Y225D02*
X7Y225D01*
X994Y225D02*
X1001Y225D01*
X0Y224D02*
X7Y224D01*
X994Y224D02*
X1001Y224D01*
X0Y223D02*
X7Y223D01*
X994Y223D02*
X1001Y223D01*
X0Y222D02*
X7Y222D01*
X994Y222D02*
X1001Y222D01*
X0Y221D02*
X7Y221D01*
X994Y221D02*
X1001Y221D01*
X0Y220D02*
X7Y220D01*
X994Y220D02*
X1001Y220D01*
X0Y219D02*
X7Y219D01*
X994Y219D02*
X1001Y219D01*
X0Y218D02*
X7Y218D01*
X994Y218D02*
X1001Y218D01*
X0Y217D02*
X7Y217D01*
X994Y217D02*
X1001Y217D01*
X0Y216D02*
X7Y216D01*
X994Y216D02*
X1001Y216D01*
X0Y215D02*
X7Y215D01*
X994Y215D02*
X1001Y215D01*
X0Y214D02*
X7Y214D01*
X994Y214D02*
X1001Y214D01*
X0Y213D02*
X7Y213D01*
X994Y213D02*
X1001Y213D01*
X0Y212D02*
X7Y212D01*
X994Y212D02*
X1001Y212D01*
X0Y211D02*
X7Y211D01*
X994Y211D02*
X1001Y211D01*
X0Y210D02*
X7Y210D01*
X994Y210D02*
X1001Y210D01*
X0Y209D02*
X7Y209D01*
X994Y209D02*
X1001Y209D01*
X0Y208D02*
X7Y208D01*
X994Y208D02*
X1001Y208D01*
X0Y207D02*
X7Y207D01*
X994Y207D02*
X1001Y207D01*
X0Y206D02*
X7Y206D01*
X994Y206D02*
X1001Y206D01*
X0Y205D02*
X7Y205D01*
X994Y205D02*
X1001Y205D01*
X0Y204D02*
X7Y204D01*
X994Y204D02*
X1001Y204D01*
X0Y203D02*
X7Y203D01*
X994Y203D02*
X1001Y203D01*
X0Y202D02*
X7Y202D01*
X994Y202D02*
X1001Y202D01*
X0Y201D02*
X7Y201D01*
X994Y201D02*
X1001Y201D01*
X0Y200D02*
X7Y200D01*
X994Y200D02*
X1001Y200D01*
X0Y199D02*
X7Y199D01*
X994Y199D02*
X1001Y199D01*
X0Y198D02*
X7Y198D01*
X994Y198D02*
X1001Y198D01*
X0Y197D02*
X7Y197D01*
X994Y197D02*
X1001Y197D01*
X0Y196D02*
X7Y196D01*
X994Y196D02*
X1001Y196D01*
X0Y195D02*
X7Y195D01*
X994Y195D02*
X1001Y195D01*
X0Y194D02*
X7Y194D01*
X994Y194D02*
X1001Y194D01*
X0Y193D02*
X7Y193D01*
X994Y193D02*
X1001Y193D01*
X0Y192D02*
X7Y192D01*
X994Y192D02*
X1001Y192D01*
X0Y191D02*
X7Y191D01*
X994Y191D02*
X1001Y191D01*
X0Y190D02*
X7Y190D01*
X994Y190D02*
X1001Y190D01*
X0Y189D02*
X7Y189D01*
X994Y189D02*
X1001Y189D01*
X0Y188D02*
X7Y188D01*
X994Y188D02*
X1001Y188D01*
X0Y187D02*
X7Y187D01*
X994Y187D02*
X1001Y187D01*
X0Y186D02*
X7Y186D01*
X994Y186D02*
X1001Y186D01*
X0Y185D02*
X7Y185D01*
X994Y185D02*
X1001Y185D01*
X0Y184D02*
X7Y184D01*
X994Y184D02*
X1001Y184D01*
X0Y183D02*
X7Y183D01*
X994Y183D02*
X1001Y183D01*
X0Y182D02*
X7Y182D01*
X994Y182D02*
X1001Y182D01*
X0Y181D02*
X7Y181D01*
X994Y181D02*
X1001Y181D01*
X0Y180D02*
X7Y180D01*
X994Y180D02*
X1001Y180D01*
X0Y179D02*
X7Y179D01*
X994Y179D02*
X1001Y179D01*
X0Y178D02*
X7Y178D01*
X994Y178D02*
X1001Y178D01*
X0Y177D02*
X7Y177D01*
X994Y177D02*
X1001Y177D01*
X0Y176D02*
X7Y176D01*
X994Y176D02*
X1001Y176D01*
X0Y175D02*
X7Y175D01*
X994Y175D02*
X1001Y175D01*
X0Y174D02*
X7Y174D01*
X994Y174D02*
X1001Y174D01*
X0Y173D02*
X7Y173D01*
X994Y173D02*
X1001Y173D01*
X0Y172D02*
X7Y172D01*
X994Y172D02*
X1001Y172D01*
X0Y171D02*
X7Y171D01*
X994Y171D02*
X1001Y171D01*
X0Y170D02*
X7Y170D01*
X994Y170D02*
X1001Y170D01*
X0Y169D02*
X7Y169D01*
X994Y169D02*
X1001Y169D01*
X0Y168D02*
X7Y168D01*
X994Y168D02*
X1001Y168D01*
X0Y167D02*
X7Y167D01*
X994Y167D02*
X1001Y167D01*
X0Y166D02*
X7Y166D01*
X994Y166D02*
X1001Y166D01*
X0Y165D02*
X7Y165D01*
X994Y165D02*
X1001Y165D01*
X0Y164D02*
X7Y164D01*
X994Y164D02*
X1001Y164D01*
X0Y163D02*
X7Y163D01*
X994Y163D02*
X1001Y163D01*
X0Y162D02*
X7Y162D01*
X994Y162D02*
X1001Y162D01*
X0Y161D02*
X7Y161D01*
X994Y161D02*
X1001Y161D01*
X0Y160D02*
X7Y160D01*
X994Y160D02*
X1001Y160D01*
X0Y159D02*
X7Y159D01*
X994Y159D02*
X1001Y159D01*
X0Y158D02*
X7Y158D01*
X994Y158D02*
X1001Y158D01*
X0Y157D02*
X7Y157D01*
X994Y157D02*
X1001Y157D01*
X0Y156D02*
X7Y156D01*
X994Y156D02*
X1001Y156D01*
X0Y155D02*
X7Y155D01*
X994Y155D02*
X1001Y155D01*
X0Y154D02*
X7Y154D01*
X994Y154D02*
X1001Y154D01*
X0Y153D02*
X7Y153D01*
X994Y153D02*
X1001Y153D01*
X0Y152D02*
X7Y152D01*
X994Y152D02*
X1001Y152D01*
X0Y151D02*
X7Y151D01*
X994Y151D02*
X1001Y151D01*
X0Y150D02*
X7Y150D01*
X994Y150D02*
X1001Y150D01*
X0Y149D02*
X7Y149D01*
X994Y149D02*
X1001Y149D01*
X0Y148D02*
X7Y148D01*
X994Y148D02*
X1001Y148D01*
X0Y147D02*
X7Y147D01*
X994Y147D02*
X1001Y147D01*
X0Y146D02*
X7Y146D01*
X994Y146D02*
X1001Y146D01*
X0Y145D02*
X7Y145D01*
X994Y145D02*
X1001Y145D01*
X0Y144D02*
X7Y144D01*
X994Y144D02*
X1001Y144D01*
X0Y143D02*
X7Y143D01*
X994Y143D02*
X1001Y143D01*
X0Y142D02*
X7Y142D01*
X994Y142D02*
X1001Y142D01*
X0Y141D02*
X7Y141D01*
X994Y141D02*
X1001Y141D01*
X0Y140D02*
X7Y140D01*
X994Y140D02*
X1001Y140D01*
X0Y139D02*
X7Y139D01*
X994Y139D02*
X1001Y139D01*
X0Y138D02*
X7Y138D01*
X994Y138D02*
X1001Y138D01*
X0Y137D02*
X7Y137D01*
X994Y137D02*
X1001Y137D01*
X0Y136D02*
X7Y136D01*
X994Y136D02*
X1001Y136D01*
X0Y135D02*
X7Y135D01*
X994Y135D02*
X1001Y135D01*
X0Y134D02*
X7Y134D01*
X994Y134D02*
X1001Y134D01*
X0Y133D02*
X7Y133D01*
X994Y133D02*
X1001Y133D01*
X0Y132D02*
X7Y132D01*
X994Y132D02*
X1001Y132D01*
X0Y131D02*
X7Y131D01*
X994Y131D02*
X1001Y131D01*
X0Y130D02*
X7Y130D01*
X994Y130D02*
X1001Y130D01*
X0Y129D02*
X7Y129D01*
X994Y129D02*
X1001Y129D01*
X0Y128D02*
X7Y128D01*
X994Y128D02*
X1001Y128D01*
X0Y127D02*
X7Y127D01*
X994Y127D02*
X1001Y127D01*
X0Y126D02*
X7Y126D01*
X994Y126D02*
X1001Y126D01*
X0Y125D02*
X7Y125D01*
X994Y125D02*
X1001Y125D01*
X0Y124D02*
X7Y124D01*
X994Y124D02*
X1001Y124D01*
X0Y123D02*
X7Y123D01*
X994Y123D02*
X1001Y123D01*
X0Y122D02*
X7Y122D01*
X994Y122D02*
X1001Y122D01*
X0Y121D02*
X7Y121D01*
X994Y121D02*
X1001Y121D01*
X0Y120D02*
X7Y120D01*
X994Y120D02*
X1001Y120D01*
X0Y119D02*
X7Y119D01*
X994Y119D02*
X1001Y119D01*
X0Y118D02*
X7Y118D01*
X994Y118D02*
X1001Y118D01*
X0Y117D02*
X7Y117D01*
X994Y117D02*
X1001Y117D01*
X0Y116D02*
X7Y116D01*
X994Y116D02*
X1001Y116D01*
X0Y115D02*
X7Y115D01*
X994Y115D02*
X1001Y115D01*
X0Y114D02*
X7Y114D01*
X994Y114D02*
X1001Y114D01*
X0Y113D02*
X7Y113D01*
X994Y113D02*
X1001Y113D01*
X0Y112D02*
X7Y112D01*
X994Y112D02*
X1001Y112D01*
X0Y111D02*
X7Y111D01*
X994Y111D02*
X1001Y111D01*
X0Y110D02*
X7Y110D01*
X994Y110D02*
X1001Y110D01*
X0Y109D02*
X7Y109D01*
X994Y109D02*
X1001Y109D01*
X0Y108D02*
X7Y108D01*
X994Y108D02*
X1001Y108D01*
X0Y107D02*
X7Y107D01*
X994Y107D02*
X1001Y107D01*
X0Y106D02*
X7Y106D01*
X994Y106D02*
X1001Y106D01*
X0Y105D02*
X7Y105D01*
X994Y105D02*
X1001Y105D01*
X0Y104D02*
X7Y104D01*
X994Y104D02*
X1001Y104D01*
X0Y103D02*
X7Y103D01*
X994Y103D02*
X1001Y103D01*
X0Y102D02*
X7Y102D01*
X994Y102D02*
X1001Y102D01*
X0Y101D02*
X7Y101D01*
X994Y101D02*
X1001Y101D01*
X0Y100D02*
X7Y100D01*
X994Y100D02*
X1001Y100D01*
X0Y99D02*
X7Y99D01*
X994Y99D02*
X1001Y99D01*
X0Y98D02*
X7Y98D01*
X994Y98D02*
X1001Y98D01*
X0Y97D02*
X7Y97D01*
X994Y97D02*
X1001Y97D01*
X0Y96D02*
X7Y96D01*
X994Y96D02*
X1001Y96D01*
X0Y95D02*
X7Y95D01*
X994Y95D02*
X1001Y95D01*
X0Y94D02*
X7Y94D01*
X994Y94D02*
X1001Y94D01*
X0Y93D02*
X7Y93D01*
X994Y93D02*
X1001Y93D01*
X0Y92D02*
X7Y92D01*
X994Y92D02*
X1001Y92D01*
X0Y91D02*
X7Y91D01*
X994Y91D02*
X1001Y91D01*
X0Y90D02*
X7Y90D01*
X994Y90D02*
X1001Y90D01*
X0Y89D02*
X7Y89D01*
X994Y89D02*
X1001Y89D01*
X0Y88D02*
X7Y88D01*
X994Y88D02*
X1001Y88D01*
X0Y87D02*
X7Y87D01*
X994Y87D02*
X1001Y87D01*
X0Y86D02*
X7Y86D01*
X994Y86D02*
X1001Y86D01*
X0Y85D02*
X7Y85D01*
X994Y85D02*
X1001Y85D01*
X0Y84D02*
X7Y84D01*
X994Y84D02*
X1001Y84D01*
X0Y83D02*
X7Y83D01*
X994Y83D02*
X1001Y83D01*
X0Y82D02*
X7Y82D01*
X994Y82D02*
X1001Y82D01*
X0Y81D02*
X7Y81D01*
X994Y81D02*
X1001Y81D01*
X0Y80D02*
X7Y80D01*
X994Y80D02*
X1001Y80D01*
X0Y79D02*
X7Y79D01*
X994Y79D02*
X1001Y79D01*
X0Y78D02*
X7Y78D01*
X994Y78D02*
X1001Y78D01*
X0Y77D02*
X7Y77D01*
X994Y77D02*
X1001Y77D01*
X0Y76D02*
X7Y76D01*
X994Y76D02*
X1001Y76D01*
X0Y75D02*
X7Y75D01*
X994Y75D02*
X1001Y75D01*
X0Y74D02*
X7Y74D01*
X994Y74D02*
X1001Y74D01*
X0Y73D02*
X7Y73D01*
X994Y73D02*
X1001Y73D01*
X0Y72D02*
X7Y72D01*
X994Y72D02*
X1001Y72D01*
X0Y71D02*
X7Y71D01*
X994Y71D02*
X1001Y71D01*
X0Y70D02*
X7Y70D01*
X994Y70D02*
X1001Y70D01*
X0Y69D02*
X7Y69D01*
X994Y69D02*
X1001Y69D01*
X0Y68D02*
X7Y68D01*
X994Y68D02*
X1001Y68D01*
X0Y67D02*
X7Y67D01*
X994Y67D02*
X1001Y67D01*
X0Y66D02*
X7Y66D01*
X994Y66D02*
X1001Y66D01*
X0Y65D02*
X7Y65D01*
X994Y65D02*
X1001Y65D01*
X0Y64D02*
X7Y64D01*
X994Y64D02*
X1001Y64D01*
X0Y63D02*
X7Y63D01*
X994Y63D02*
X1001Y63D01*
X0Y62D02*
X7Y62D01*
X994Y62D02*
X1001Y62D01*
X0Y61D02*
X7Y61D01*
X994Y61D02*
X1001Y61D01*
X0Y60D02*
X7Y60D01*
X994Y60D02*
X1001Y60D01*
X0Y59D02*
X7Y59D01*
X994Y59D02*
X1001Y59D01*
X0Y58D02*
X7Y58D01*
X994Y58D02*
X1001Y58D01*
X0Y57D02*
X7Y57D01*
X994Y57D02*
X1001Y57D01*
X0Y56D02*
X7Y56D01*
X994Y56D02*
X1001Y56D01*
X0Y55D02*
X7Y55D01*
X994Y55D02*
X1001Y55D01*
X0Y54D02*
X7Y54D01*
X994Y54D02*
X1001Y54D01*
X0Y53D02*
X7Y53D01*
X994Y53D02*
X1001Y53D01*
X0Y52D02*
X7Y52D01*
X994Y52D02*
X1001Y52D01*
X0Y51D02*
X7Y51D01*
X994Y51D02*
X1001Y51D01*
X0Y50D02*
X7Y50D01*
X994Y50D02*
X1001Y50D01*
X0Y49D02*
X7Y49D01*
X994Y49D02*
X1001Y49D01*
X0Y48D02*
X7Y48D01*
X994Y48D02*
X1001Y48D01*
X0Y47D02*
X7Y47D01*
X994Y47D02*
X1001Y47D01*
X0Y46D02*
X7Y46D01*
X994Y46D02*
X1001Y46D01*
X0Y45D02*
X7Y45D01*
X994Y45D02*
X1001Y45D01*
X0Y44D02*
X7Y44D01*
X994Y44D02*
X1001Y44D01*
X0Y43D02*
X7Y43D01*
X994Y43D02*
X1001Y43D01*
X0Y42D02*
X7Y42D01*
X994Y42D02*
X1001Y42D01*
X0Y41D02*
X7Y41D01*
X994Y41D02*
X1001Y41D01*
X0Y40D02*
X7Y40D01*
X994Y40D02*
X1001Y40D01*
X0Y39D02*
X7Y39D01*
X994Y39D02*
X1001Y39D01*
X0Y38D02*
X7Y38D01*
X994Y38D02*
X1001Y38D01*
X0Y37D02*
X7Y37D01*
X994Y37D02*
X1001Y37D01*
X0Y36D02*
X7Y36D01*
X994Y36D02*
X1001Y36D01*
X0Y35D02*
X7Y35D01*
X994Y35D02*
X1001Y35D01*
X0Y34D02*
X7Y34D01*
X994Y34D02*
X1001Y34D01*
X0Y33D02*
X7Y33D01*
X994Y33D02*
X1001Y33D01*
X0Y32D02*
X7Y32D01*
X994Y32D02*
X1001Y32D01*
X0Y31D02*
X7Y31D01*
X994Y31D02*
X1001Y31D01*
X0Y30D02*
X7Y30D01*
X994Y30D02*
X1001Y30D01*
X0Y29D02*
X7Y29D01*
X994Y29D02*
X1001Y29D01*
X0Y28D02*
X7Y28D01*
X994Y28D02*
X1001Y28D01*
X0Y27D02*
X7Y27D01*
X994Y27D02*
X1001Y27D01*
X0Y26D02*
X7Y26D01*
X994Y26D02*
X1001Y26D01*
X0Y25D02*
X7Y25D01*
X994Y25D02*
X1001Y25D01*
X0Y24D02*
X7Y24D01*
X994Y24D02*
X1001Y24D01*
X0Y23D02*
X7Y23D01*
X994Y23D02*
X1001Y23D01*
X0Y22D02*
X7Y22D01*
X994Y22D02*
X1001Y22D01*
X0Y21D02*
X7Y21D01*
X994Y21D02*
X1001Y21D01*
X0Y20D02*
X7Y20D01*
X994Y20D02*
X1001Y20D01*
X0Y19D02*
X7Y19D01*
X994Y19D02*
X1001Y19D01*
X0Y18D02*
X7Y18D01*
X994Y18D02*
X1001Y18D01*
X0Y17D02*
X7Y17D01*
X994Y17D02*
X1001Y17D01*
X0Y16D02*
X7Y16D01*
X994Y16D02*
X1001Y16D01*
X0Y15D02*
X7Y15D01*
X994Y15D02*
X1001Y15D01*
X0Y14D02*
X7Y14D01*
X994Y14D02*
X1001Y14D01*
X0Y13D02*
X7Y13D01*
X994Y13D02*
X1001Y13D01*
X0Y12D02*
X7Y12D01*
X994Y12D02*
X1001Y12D01*
X0Y11D02*
X7Y11D01*
X994Y11D02*
X1001Y11D01*
X0Y10D02*
X7Y10D01*
X994Y10D02*
X1001Y10D01*
X0Y9D02*
X7Y9D01*
X994Y9D02*
X1001Y9D01*
X0Y8D02*
X1001Y8D01*
X0Y7D02*
X1001Y7D01*
X0Y6D02*
X1001Y6D01*
X0Y5D02*
X1001Y5D01*
X0Y4D02*
X1001Y4D01*
X0Y3D02*
X1001Y3D01*
X0Y2D02*
X1001Y2D01*
X0Y1D02*
X1001Y1D01*
D02*
G04 End of Silk0*
M02*