<?xml version="1.0" encoding="UTF-8" standalone="no"?>
<!-- Generator: Adobe Illustrator 19.2.1, SVG Export Plug-In . SVG Version: 6.00 Build 0)  -->

<svg
   version="1.1"
   id="layer"
   x="0px"
   y="0px"
   viewBox="0 0 264.72336 371.60791"
   xml:space="preserve"
   sodipodi:docname="sanhua-aweco-none.svg"
   inkscape:version="1.2.2 (b0a8486541, 2022-12-01)"
   width="264.72336"
   height="371.60791"
   inkscape:export-filename="sanhua-aweco.png"
   inkscape:export-xdpi="96"
   inkscape:export-ydpi="96"
   xmlns:inkscape="http://www.inkscape.org/namespaces/inkscape"
   xmlns:sodipodi="http://sodipodi.sourceforge.net/DTD/sodipodi-0.dtd"
   xmlns="http://www.w3.org/2000/svg"
   xmlns:svg="http://www.w3.org/2000/svg"><defs
   id="defs240" /><sodipodi:namedview
   id="namedview238"
   pagecolor="#ffffff"
   bordercolor="#000000"
   borderopacity="0.25"
   inkscape:showpageshadow="2"
   inkscape:pageopacity="0.0"
   inkscape:pagecheckerboard="true"
   inkscape:deskcolor="#d1d1d1"
   showgrid="false"
   inkscape:zoom="1.6605612"
   inkscape:cx="119.2368"
   inkscape:cy="228.5372"
   inkscape:window-width="1920"
   inkscape:window-height="1018"
   inkscape:window-x="0"
   inkscape:window-y="0"
   inkscape:window-maximized="1"
   inkscape:current-layer="layer4"
   showguides="false" />
<style
   type="text/css"
   id="style217">
	.st0{fill:#007297;}
</style>









<g
   inkscape:groupmode="layer"
   id="layer4"
   inkscape:label="rectangle"
   transform="translate(-17.173494,-160.39526)"
   style="display:inline"><path
     id="rect758"
     style="display:inline;opacity:0.900648;fill:#000080;stroke-width:1.75587"
     d="M -7.9108513 291.24738 C -16.733325 291.24738 -23.835711 298.34954 -23.835711 307.17202 L -23.835711 418.70901 C -23.835711 427.53149 -16.733325 434.63365 -7.9108513 434.63365 L 127.66292 434.63365 C 136.48539 434.63365 143.58778 427.53149 143.58778 418.70901 L 143.58778 307.17202 C 143.58778 298.34954 136.48539 291.24738 127.66292 291.24738 L -7.9108513 291.24738 z M 59.394286 307.13605 C 63.250873 307.13605 66.540413 308.47418 69.262709 311.05453 C 71.871573 313.5393 73.233019 316.50257 73.34645 319.94304 C 74.02703 319.7519 74.707749 319.56044 75.38832 319.46487 C 76.522612 319.27373 77.769767 319.17818 79.017488 319.17818 C 82.987506 319.17818 86.503523 320.22892 89.339248 322.427 C 92.174973 324.62508 93.650275 327.30097 93.650275 330.35917 C 93.650275 333.51293 92.174973 336.09326 89.339248 338.29134 C 87.410955 339.82044 85.029693 340.77669 82.534249 341.25453 C 85.029693 343.64374 86.390916 346.41519 86.504346 349.47339 C 86.617777 352.81829 85.369164 355.68565 82.7603 357.88373 C 80.151434 360.08181 76.862907 361.03734 72.779469 361.03734 C 68.922882 360.84621 65.405842 359.41216 62.570117 356.92739 C 62.116397 356.54511 61.662804 356.06767 61.322513 355.68541 C 60.755373 356.44994 60.074654 357.21475 59.280643 357.88373 C 56.444928 360.36851 53.042534 361.70628 49.072526 361.89742 L 48.164617 361.89742 C 44.648322 361.89742 41.585898 360.84632 39.090461 358.74381 C 36.368165 356.45016 35.120577 353.58316 35.234006 350.23825 C 35.347435 347.56234 36.367688 345.07719 38.182551 342.97468 L 38.182551 342.59278 C 35.460255 342.11494 33.079365 341.06346 30.924214 339.53438 C 27.861632 337.3363 26.385901 334.6597 26.385901 331.50594 C 26.385901 328.35217 27.975061 325.67664 30.924214 323.47856 C 33.986797 321.28048 37.616082 320.13346 41.812954 320.13346 C 43.060673 320.13346 44.307833 320.22902 45.442123 320.42016 C 45.442123 316.78855 46.803568 313.63487 49.525864 311.05453 C 52.248158 308.47418 55.537709 307.13605 59.394286 307.13605 z M 59.621572 312.67947 C 56.332137 312.67947 53.49641 313.63502 51.114397 315.54639 C 50.320395 316.21537 49.639668 316.98017 49.072526 317.74472 C 48.845667 318.31813 48.505333 318.79554 48.391903 319.27339 C 48.165042 320.13351 48.277876 321.08905 48.731597 322.14031 L 50.773467 324.33863 L 57.805753 331.98411 C 58.259474 332.46195 58.146853 333.22678 57.579702 333.60905 C 57.352851 333.80019 57.125726 333.89574 56.785435 333.89574 C 56.331725 333.89574 55.878334 333.70428 55.651475 333.41757 L 48.619189 325.7721 L 47.37035 324.43385 C 45.782348 323.57373 44.081583 323.09666 42.493578 323.09666 C 41.472717 323.09666 40.338608 323.28776 39.317747 323.67004 C 38.183457 324.14788 37.162777 324.81712 36.141916 325.58167 C 33.759907 327.58861 32.511512 329.97749 32.511512 332.74898 C 32.511512 335.52046 33.646051 337.9097 35.914629 339.82107 C 36.822063 340.58562 37.956598 341.06339 39.317747 341.25453 L 39.43139 341.25453 L 40.791402 341.25453 L 43.854825 340.29924 L 54.857208 336.57119 C 55.537789 336.38005 56.331512 336.66743 56.671792 337.24084 C 56.898653 337.81425 56.558097 338.57837 55.877526 338.76951 L 44.875142 342.49651 L 40.678994 343.83476 L 40.565351 343.92997 C 39.884777 344.59895 39.43096 345.45966 39.204104 346.31978 L 39.090461 346.60647 L 39.090461 346.79689 C 39.090461 347.17917 38.976817 347.56244 38.976817 347.94472 C 38.86339 350.81177 40.111569 353.10544 42.493578 355.01681 C 44.875588 356.83261 47.938008 357.78818 51.567734 357.59704 C 53.382597 357.50147 55.197433 357.11889 56.785435 356.54548 C 57.919728 356.06764 58.827571 355.30284 59.621572 354.34716 L 59.621572 354.25194 C 59.848433 353.96524 59.961479 353.67857 60.07491 353.39187 L 60.07491 353.2956 L 60.07491 341.54122 C 60.07491 340.96781 60.642154 340.39445 61.436157 340.39445 C 62.230158 340.39445 62.797403 340.87224 62.797403 341.54122 L 62.797403 352.627 C 62.910834 352.91371 63.02388 353.29559 63.250741 353.58229 L 63.364384 353.67856 C 63.704674 354.06083 64.044623 354.44305 64.498345 354.82533 C 66.540067 356.16329 68.923001 356.83252 71.531865 357.02365 C 74.821312 357.21479 77.656823 356.35479 79.925398 354.44343 C 82.193982 352.62762 83.214659 350.23839 83.101229 347.37133 C 83.101229 346.70235 82.987373 346.03311 82.873943 345.4597 C 82.647082 344.69515 82.193277 344.02556 81.512696 343.35659 C 81.285845 343.16545 80.946312 342.87913 80.606021 342.68799 L 75.841657 341.34974 L 66.881144 338.76951 C 66.087143 338.57837 65.746374 337.90946 65.973235 337.33605 C 66.200094 336.66707 66.993604 336.38005 67.674176 336.57119 L 76.635924 339.15141 L 80.606021 340.29924 C 82.307465 340.20367 83.781521 339.82111 84.915813 338.96099 C 87.184388 337.04962 88.318931 334.66039 88.318931 331.8889 C 88.318931 329.02184 87.184175 326.63227 84.80217 324.62533 C 82.760446 322.90509 80.264893 321.85433 77.542598 321.66319 L 77.202904 321.66319 C 76.182042 321.66319 75.160556 321.8543 74.253124 322.23658 L 74.027073 322.33179 C 73.913643 322.42736 73.68593 322.52291 73.572501 322.61848 L 71.531865 325.29498 L 66.086878 332.46228 C 65.860017 332.84456 65.406638 333.03567 64.952917 333.03567 C 64.612636 333.03567 64.385511 332.93976 64.15865 332.84419 C 63.478079 332.46191 63.250357 331.79266 63.704078 331.21925 L 69.149066 324.05194 L 70.851242 321.75841 C 70.964672 321.37613 71.077293 320.99391 71.077293 320.61164 L 71.077293 320.51643 C 71.077293 319.94301 70.964672 319.36968 70.851242 318.79627 C 70.170671 317.64945 69.26304 316.50208 68.128748 315.54639 C 65.746733 313.63502 62.911019 312.67947 59.621572 312.67947 z M 89.683883 362.5036 C 92.093727 362.51823 94.486633 363.13407 96.826106 364.38244 C 99.888695 366.00711 102.04369 368.39563 103.29141 371.35826 C 105.10628 369.7336 107.26128 368.58694 109.75672 367.91796 C 113.49988 366.96227 116.90246 367.24894 120.07848 368.77803 C 123.25449 370.30713 125.29644 372.69636 126.09044 375.85012 C 126.88445 379.00389 126.31759 382.0627 124.27586 385.02533 C 123.59529 385.98102 122.91435 386.84031 122.12035 387.50929 C 121.66663 387.98713 121.21383 388.37005 120.64669 388.75233 C 124.04956 390.56813 126.43126 393.05256 127.67898 396.20632 C 129.04013 399.45566 128.69936 402.61004 126.77107 405.38153 C 124.84278 408.15302 121.78058 409.96822 117.81056 410.6372 C 113.84053 411.30618 109.87071 410.73285 106.12755 408.91705 C 105.78726 409.87273 105.33324 410.73307 104.65266 411.68876 C 102.49751 414.84252 99.547714 416.94473 95.804553 417.99598 C 91.947962 419.04724 88.432762 418.76022 85.256743 417.23112 C 81.967303 415.70202 80.038777 413.21794 79.244774 409.9686 C 78.677623 407.67496 78.904322 405.38128 79.811755 403.1832 C 79.698325 403.08764 79.584256 403.08729 79.470825 402.99172 C 76.294806 403.18286 73.346041 402.70544 70.510313 401.46305 C 66.994012 399.83839 64.724941 397.44916 63.704078 394.39096 C 62.796645 391.5239 63.138052 388.75245 64.952917 386.1721 C 65.066347 385.98096 65.292824 385.69358 65.406254 385.50245 C 67.56141 382.73096 70.737675 380.91541 74.707696 380.0553 C 75.84199 379.86416 76.976308 379.76896 77.997171 379.67339 C 77.77031 379.19555 77.543621 378.71707 77.43019 378.14366 C 76.295897 374.79876 76.63543 371.64545 78.336865 368.68282 C 80.0383 365.72019 82.760973 363.8084 86.390703 362.85271 C 87.489547 362.61379 88.5885 362.49695 89.683883 362.5036 z M 29.939719 362.65171 C 31.048394 362.64634 32.171488 362.7754 33.305779 363.04419 C 36.935509 363.80874 39.543731 365.72019 41.472025 368.68282 C 43.286891 371.54988 43.514225 374.79876 42.379935 378.14366 C 42.266505 378.71707 42.039812 379.19555 41.812954 379.67339 C 42.833816 379.67339 43.968137 379.86416 45.102429 380.0553 C 49.072452 380.91541 52.248715 382.73096 54.403871 385.50245 C 54.517301 385.69358 54.743778 385.98096 54.857208 386.1721 C 56.558643 388.75245 57.012245 391.5239 56.104812 394.39096 C 55.083949 397.54472 52.814877 399.83839 49.298577 401.46305 C 46.57628 402.80101 43.514293 403.27843 40.451708 402.99172 C 40.338279 403.08729 40.225443 403.1832 40.112013 403.1832 C 40.906017 405.47685 41.132496 407.77017 40.565351 410.06382 C 39.771347 413.31315 37.729398 415.79829 34.553383 417.32739 C 31.263939 418.95206 27.747497 419.14246 24.004336 418.0912 C 20.261177 416.94438 17.31262 414.84216 15.157467 411.78397 C 14.590321 410.92385 14.022864 409.96794 13.682577 409.01226 C 9.939416 410.82806 5.9695882 411.40139 1.9995699 410.73241 C -2.0838778 410.06343 -5.0338838 408.3438 -6.9621783 405.47674 C -9.0039021 402.70525 -9.2302154 399.55087 -7.9824959 396.30154 C -6.8482046 393.14777 -4.3530829 390.66334 -0.95021022 388.84754 C -1.4039265 388.46527 -1.971384 388.0834 -2.4251003 387.60556 C -3.2191035 386.84101 -3.8988036 386.07623 -4.5793785 385.12054 C -6.6211014 382.15792 -7.187966 379.0991 -6.3939627 375.94534 C -5.5999594 372.79157 -3.5592449 370.4034 -0.38322987 368.8743 C 2.7927852 367.3452 6.3100348 367.05748 9.9397652 368.01317 C 12.548635 368.77772 14.703635 369.92508 16.405071 371.54974 C 17.539362 368.58712 19.80779 366.19753 22.870376 364.57286 C 25.131868 363.3245 27.500633 362.66351 29.939719 362.65171 z M 91.603464 366.46757 C 90.486895 366.41773 89.353758 366.52032 88.205287 366.77119 C 85.142709 367.53574 82.873627 369.16017 81.399053 371.64495 C 80.26476 373.55633 79.811158 375.65889 80.151449 377.85697 C 80.264879 378.33481 80.492814 378.81259 80.719665 379.29043 L 80.832072 379.3867 C 81.058933 379.67341 81.286058 379.96007 81.626339 380.24678 L 93.083295 385.78914 C 93.763867 386.07584 93.990515 386.84068 92.969652 387.12739 C 92.51594 387.60523 91.721996 387.796 91.041424 387.50929 L 79.017488 381.68024 C 78.563777 381.58467 78.223818 381.58397 77.883528 381.58397 L 77.769884 381.58397 C 76.40874 381.58397 75.161356 381.9669 74.027073 382.54031 C 72.665919 383.40043 71.417532 384.54745 70.396669 385.88541 C 68.354953 388.37019 67.78786 391.04609 68.468442 393.81758 C 69.262444 396.58907 71.077915 398.59536 74.027073 399.93332 C 74.480784 400.12446 74.820965 400.31593 75.274677 400.41149 C 75.388107 400.50706 75.387298 400.50671 75.500728 400.50671 L 75.841657 400.60298 C 76.86251 400.88968 77.996625 400.88897 79.017488 400.7934 L 79.244774 400.7934 L 82.7603 398.40465 L 92.061742 392.19263 C 92.628884 391.81036 93.536248 391.90627 93.989969 392.38411 C 94.443681 392.86196 94.33107 393.62572 93.763918 394.008 L 84.462476 400.22001 L 81.853625 401.94017 C 81.626765 402.22687 81.400075 402.51424 81.286645 402.89651 L 81.286645 402.99172 C 80.832924 404.13855 80.719068 405.19035 81.059359 406.24161 C 81.966791 408.91753 83.782261 410.92418 86.617989 412.26214 C 89.453718 413.69567 92.516136 413.98198 95.692146 413.21743 C 96.939869 412.93072 98.186808 412.45259 99.207671 411.87918 C 100.1151 411.30577 100.79604 410.63688 101.36318 409.87234 C 102.27062 408.62994 102.61058 407.19662 102.49714 405.57195 L 101.70288 404.04328 L 97.393087 395.05956 C 97.279656 394.67728 97.279869 394.2947 97.50673 394.008 C 97.62016 393.81686 97.847072 393.62645 98.187353 393.53088 C 98.867935 393.33975 99.661656 393.62607 100.00194 394.19948 L 104.31296 403.1832 L 105.56057 405.76343 C 106.468 406.52798 107.37461 407.10167 108.39547 407.38838 C 109.07605 407.48394 109.64313 407.5788 110.3237 407.5788 C 111.34456 407.5788 112.47888 407.4836 113.61317 407.19689 C 116.78918 406.43235 119.17131 404.80755 120.87274 402.41834 C 122.57418 400.02912 122.91435 397.44878 122.12035 394.77286 C 121.66663 393.33933 120.98591 392.19233 120.07848 391.14108 C 119.62476 390.7588 119.17176 390.37623 118.49118 390.08952 L 118.37754 389.99431 C 118.03724 389.89874 117.58364 389.70797 117.12993 389.6124 L 113.9541 389.70762 L 103.85839 390.08952 C 103.06439 390.08952 102.3835 389.61173 102.3835 388.94275 C 102.3835 388.65605 102.49736 388.46529 102.61079 388.27416 C 102.83764 387.98745 103.29104 387.70077 103.74475 387.70077 L 113.84046 387.31887 L 117.58327 387.2226 C 117.81013 387.2226 118.03682 387.12774 118.15025 387.03218 L 118.37754 386.93591 C 119.17154 386.45806 119.96569 385.88509 120.41941 385.12054 C 120.41941 385.12054 120.53305 385.02463 120.53305 384.92906 C 121.78077 382.82655 122.00768 380.53288 121.21367 378.14366 C 120.30624 375.46774 118.49055 373.36517 115.5414 371.93165 C 112.70567 370.59369 109.7569 370.21217 106.58089 370.88115 C 105.10631 371.35899 103.97156 372.12271 103.06413 373.36511 L 102.27109 376.80647 L 100.34287 384.64237 C 100.22944 385.31135 99.548336 385.69428 98.754333 385.59871 C 98.073761 385.50315 97.620586 384.92945 97.734016 384.26047 L 99.662243 376.42351 L 100.68256 372.31461 C 100.56913 371.93233 100.4563 371.54976 100.34287 371.26305 L 100.34287 371.16784 C 100.00258 370.40329 99.548549 369.73441 98.867977 369.16099 C 98.300825 368.77872 97.733964 368.39544 97.053392 368.01317 C 95.281062 367.05748 93.464411 366.55063 91.603464 366.46757 z M 27.349397 366.84947 C 25.482912 366.93253 23.621152 367.44044 21.848823 368.39613 C 21.168248 368.68283 20.601384 369.16062 20.034239 369.5429 C 19.353665 370.02074 18.899636 370.68962 18.559349 371.54974 C 18.332491 371.93202 18.333084 372.21903 18.219655 372.6013 L 19.239972 376.7102 L 21.1682 384.54716 C 21.395057 385.12057 20.941885 385.78984 20.147882 385.88541 C 19.467307 386.07654 18.672778 385.69431 18.559349 385.02533 L 16.631121 377.18837 L 15.83809 373.74807 C 14.930657 372.50568 13.795908 371.74089 12.32133 371.26305 C 9.258744 370.59407 6.1965439 370.97665 3.3608168 372.31461 C 0.41165939 373.74814 -1.5174539 375.75513 -2.3114571 378.52662 C -2.9920321 380.91584 -2.7651249 383.11394 -1.6308337 385.31202 C -1.6308337 385.40759 -1.5171906 385.40688 -1.5171906 385.50245 C -1.0634743 386.26699 -0.38275277 386.84102 0.52467983 387.31887 L 0.75196607 387.41408 C 0.97882373 387.50965 1.0920878 387.50999 1.3189464 387.60556 L 5.0617578 387.70077 L 15.157467 388.08267 C 15.611183 388.08267 16.064569 388.36935 16.291427 388.65606 C 16.518285 388.8472 16.518714 389.13458 16.518714 389.32571 C 16.405284 389.99469 15.837828 390.47248 15.043824 390.47248 L 4.9481147 390.08952 L 1.7722836 389.99431 C 1.4319957 390.08988 0.97839613 390.18507 0.52467983 390.37621 L 0.41103671 390.37621 C -0.15610792 390.66292 -0.72254491 391.04549 -1.1762612 391.42777 C -2.0836948 392.38345 -2.7644153 393.62638 -3.2181316 394.96434 C -4.0121359 397.64027 -3.5585353 400.22061 -1.9705278 402.60982 C -0.26909093 405.0946 2.113029 406.62383 5.2890441 407.38838 C 6.4233343 407.67508 7.5576564 407.77028 8.5785183 407.77028 C 9.2590932 407.77028 9.9395999 407.67437 10.506746 407.5788 C 11.527607 407.29209 12.434214 406.81503 13.341647 405.95491 L 14.589251 403.37363 L 18.900278 394.39096 C 19.240566 393.72198 20.034287 393.4346 20.714862 393.72131 C 21.055149 393.81687 21.282057 394.00834 21.395486 394.19948 C 21.622344 394.58175 21.622558 394.86876 21.509129 395.25104 L 17.198102 404.2337 L 16.518714 405.76343 C 16.405284 407.3881 16.745028 408.82142 17.539031 410.06382 C 18.106177 410.82836 18.787112 411.49725 19.694545 412.07066 C 20.715407 412.64407 21.962349 413.1222 23.21007 413.40891 C 26.386085 414.17346 29.448498 413.79158 32.284226 412.45362 C 35.119953 411.11566 37.048853 409.01238 37.842857 406.43203 C 38.183144 405.38077 38.069287 404.23446 37.615571 403.1832 L 37.615571 403.08694 C 37.502141 402.80023 37.275449 402.41835 37.04859 402.13165 L 34.553383 400.41149 L 25.25194 394.19948 C 24.684795 393.81721 24.572173 393.05238 25.025889 392.57454 C 25.479606 392.09669 26.386972 392.00184 26.954117 392.38411 L 36.254324 398.59613 L 39.771084 400.98488 L 39.99837 400.98488 C 41.132662 401.17602 42.153339 401.0801 43.174201 400.7934 L 43.513895 400.69819 C 43.627325 400.69819 43.627752 400.60298 43.741182 400.60298 C 44.194898 400.41184 44.535069 400.31594 44.988786 400.1248 C 47.937945 398.78684 49.866844 396.68392 50.547416 394.008 C 51.341419 391.23651 50.659892 388.65618 48.731597 386.07583 C 47.597304 384.73787 46.463361 383.59085 44.988786 382.73074 C 43.854495 382.15732 42.607123 381.87102 41.245974 381.77545 L 41.132331 381.77545 C 40.792044 381.77545 40.452087 381.77509 39.99837 381.87066 L 27.974434 387.70077 C 27.29386 388.08305 26.386495 387.89228 26.046207 387.31887 C 25.592491 386.74546 25.932778 386.07653 26.046207 386.1721 L 37.38952 380.62868 C 37.729807 380.34197 37.955692 380.05531 38.182551 379.7686 L 38.296194 379.67339 C 38.523052 379.19555 38.749745 378.71777 38.863174 378.23993 C 39.203461 376.13742 38.749862 374.03486 37.615571 372.02792 C 36.027563 369.44756 33.759514 367.82207 30.696928 367.15309 C 29.590994 366.90222 28.469288 366.79963 27.349397 366.84947 z "
     transform="matrix(1.581156,0,0,1.8462204,54.861471,-377.31159)" /><g
     id="g1149"
     style="display:inline" /></g><g
   inkscape:groupmode="layer"
   id="layer2"
   inkscape:label="flowers"
   style="display:none"
   transform="translate(-17.173494,-160.39526)"><g
     id="g1154"><path
       class="st0"
       d="m 147.44632,67.010019 v 0 l -11.6371,-6.57432 c -0.34565,-0.340051 -0.57609,-0.680102 -0.80653,-1.020153 l -0.11522,-0.11335 v 0 c -0.23043,-0.566752 -0.46087,-1.133504 -0.57609,-1.700255 -0.34566,-2.607058 0.11522,-5.100766 1.26741,-7.367772 1.49784,-2.947109 3.80222,-4.874065 6.91312,-5.780868 3.11091,-0.793452 6.1066,-0.340051 8.98707,1.473555 0.69131,0.453401 1.2674,0.906802 1.8435,1.360204 0.69131,0.680102 1.15218,1.473554 1.49784,2.380357 v 0.11335 c 0.11522,0.340051 0.23044,0.793453 0.34566,1.246854 l -1.03697,4.874064 -1.95872,9.294728 c -0.11522,0.793453 0.34566,1.473555 1.03697,1.586905 0.80653,0.11335 1.49784,-0.340051 1.61306,-1.133503 l 1.95872,-9.294728 c 0,0 0,0 0,0 l 0.80653,-4.080612 c 0.92175,-1.473555 2.07394,-2.380357 3.57178,-2.947109 3.22613,-0.793453 6.22182,-0.340051 9.10229,1.246854 2.99568,1.700255 4.83918,4.193962 5.76093,7.367772 0.80654,2.833758 0.5761,5.554166 -0.69131,8.047874 0,0.11335 -0.11522,0.2267 -0.11522,0.2267 -0.46087,0.906803 -1.2674,1.586905 -2.07393,2.153657 l -0.23044,0.11335 c -0.11522,0.11335 -0.34566,0.226701 -0.5761,0.226701 l -3.80222,0.11335 v 0 l -10.25447,0.453401 c -0.46087,0 -0.92175,0.340051 -1.15218,0.680102 -0.11522,0.226701 -0.23044,0.453402 -0.23044,0.793453 0,0.793452 0.69131,1.360204 1.49784,1.360204 l 10.25447,-0.453401 3.22613,-0.113351 c 0.46087,0.113351 0.92175,0.340051 1.26741,0.453402 l 0.11521,0.11335 c 0.69132,0.340051 1.15219,0.793452 1.61307,1.246854 0.92175,1.246853 1.61306,2.607057 2.07394,4.307312 0.80653,3.17381 0.46087,6.234269 -1.26741,9.068028 -1.72828,2.833758 -4.14788,4.760714 -7.374,5.667516 -1.15219,0.340051 -2.30438,0.453402 -3.34135,0.453402 -0.69131,0 -1.2674,-0.113351 -1.95872,-0.226701 -1.03697,-0.340051 -1.95872,-1.020153 -2.88047,-1.926956 l -1.2674,-3.060459 -4.37832,-10.654932 c -0.34565,-0.680102 -1.15218,-1.020153 -1.8435,-0.793452 -0.34565,0.11335 -0.57609,0.340051 -0.69131,0.566752 -0.23044,0.340051 -0.23044,0.793452 -0.11522,1.246853 l 4.37832,10.654932 0.80653,1.813606 c 0.11522,1.926955 -0.23044,3.627211 -1.15219,5.100765 -0.57609,0.906803 -1.26741,1.700255 -2.18916,2.380357 -1.03697,0.680102 -2.30437,1.246854 -3.57178,1.586905 -3.22612,0.906804 -6.33703,0.566754 -9.2175,-1.133504 -2.88047,-1.586904 -4.72397,-3.967261 -5.64572,-7.141071 -0.34566,-1.246854 -0.23044,-2.493707 0.23044,-3.853911 v -0.113351 c 0.11522,-0.453401 0.34565,-0.793452 0.57609,-1.133503 l 2.65003,-2.040306 9.44794,-7.367772 c 0.5761,-0.453402 0.69131,-1.360204 0.23044,-1.926956 -0.46088,-0.566752 -1.38263,-0.680102 -1.95872,-0.226701 l -9.44794,7.367772 c 0,0 0,0 0,0 l -3.57178,2.833759 c -0.11522,0 -0.11522,0 -0.23044,0 -1.03697,0.11335 -2.18916,0.11335 -3.22612,-0.226701 l -0.34566,-0.11335 c -0.11522,0 -0.11522,0 -0.23044,-0.113351 -0.46087,-0.11335 -0.80653,-0.340051 -1.2674,-0.566751 -2.99569,-1.586905 -4.83919,-3.967262 -5.64572,-7.254422 -0.69132,-3.28716 -0.11522,-6.460969 1.95871,-9.408078 1.03697,-1.586905 2.30438,-2.947109 3.68701,-3.967262 1.15218,-0.680102 2.41959,-1.133503 3.80221,-1.133503 h 0.11522 c 0.34566,0 0.69132,0 1.15219,0.11335 0,0 0,0 0,0 l 12.21319,6.914371 c 0.69131,0.340051 1.49785,0.11335 1.95872,-0.453402 1.03697,-0.340051 0.80653,-1.246853 0.11522,-1.586904 M 132.46788,46.720308 c -1.72828,3.513861 -2.07394,7.254422 -0.92175,11.221684 0.11522,0.680102 0.34565,1.246853 0.57609,1.813605 -1.03697,0.11335 -2.18915,0.226701 -3.34134,0.453401 -4.03266,1.020153 -7.25878,3.17381 -9.44794,6.46097 -0.11522,0.2267 -0.34566,0.566751 -0.46088,0.793452 -1.8435,3.060459 -2.18915,6.347619 -1.2674,9.748129 1.03697,3.627211 3.34134,6.460969 6.91312,8.387925 2.88047,1.473555 5.87616,2.040306 9.10229,1.813606 0.11522,0.11335 0.23043,0.11335 0.34565,0.2267 -0.92175,2.607058 -1.15219,5.327466 -0.57609,8.047874 0.80653,3.853912 2.76525,6.801016 6.10659,8.614626 3.22613,1.81361 6.79791,2.15366 10.71535,0.9068 3.80222,-1.24685 6.79791,-3.74056 8.98706,-7.48112 0.69132,-1.133503 1.15219,-2.153656 1.49785,-3.287159 3.80222,2.153656 7.83487,2.833758 11.86753,2.040306 4.03266,-0.793453 7.14357,-2.947109 9.10228,-6.234269 1.95872,-3.28716 2.30438,-7.027721 0.92175,-10.881632 -1.2674,-3.740562 -3.687,-6.68767 -7.14356,-8.841327 0.57609,-0.453401 1.03697,-0.906803 1.49785,-1.473554 0.80653,-0.793453 1.49784,-1.813606 2.18915,-2.947109 2.07394,-3.513861 2.65003,-7.141071 1.8435,-10.881633 -0.80653,-3.740561 -2.88047,-6.574319 -6.10659,-8.387925 -3.22613,-1.813605 -6.68269,-2.153656 -10.48491,-1.020153 -2.53481,0.793453 -4.72397,2.153657 -6.56747,4.080613 -1.26741,-3.513861 -3.45656,-6.347619 -6.56747,-8.274575 -3.45656,-2.153657 -7.02835,-2.720408 -10.60013,-1.813606 -3.687,1.133504 -6.45225,3.400511 -8.18053,6.914371"
       id="path577"
       style="display:inline;fill:#ffffff;stroke-width:1.14281"
       transform="matrix(1.5565977,0,0,1.5565977,-27.474616,230.6331)" /><path
       class="st0"
       d="m 79.352024,68.823624 v 0 c 0.345657,0.680102 1.267407,0.906803 1.958719,0.453401 l 12.21319,-6.91437 c 0,0 0,0 0,0 0.460875,-0.113351 0.806532,-0.113351 1.152188,-0.113351 h 0.115219 c 1.382625,0.113351 2.650032,0.453402 3.802219,1.133504 1.497841,1.020153 2.650031,2.380357 3.802221,3.967262 1.95872,3.060459 2.65003,6.120918 1.8435,9.408078 -0.69131,3.173809 -2.65003,5.667517 -5.645721,7.254421 -0.460875,0.226701 -0.806531,0.340051 -1.267406,0.566752 -0.115219,0 -0.115219,0.11335 -0.230438,0.11335 l -0.345656,0.113351 c -1.036969,0.340051 -2.073938,0.453401 -3.226126,0.2267 -0.115218,0 -0.115218,0 -0.230437,0 l -3.571782,-2.833758 -9.44794,-7.367772 c -0.576093,-0.453401 -1.497844,-0.340051 -1.958719,0.226701 -0.460875,0.566751 -0.345656,1.473554 0.230438,1.926955 l 9.447939,7.367772 v 0 l 2.534813,2.040307 c 0.230438,0.340051 0.460875,0.793452 0.576094,1.133503 v 0.11335 c 0.460875,1.246854 0.576094,2.607058 0.230438,3.853912 -0.806532,3.060459 -2.765251,5.554166 -5.64572,7.141071 -2.88047,1.586907 -5.991376,2.040307 -9.217502,1.133503 -1.267407,-0.340051 -2.534813,-0.906802 -3.571782,-1.586904 -0.92175,-0.680102 -1.613063,-1.473555 -2.189157,-2.380357 -0.806531,-1.473555 -1.152188,-3.17381 -1.036969,-5.100766 l 0.691313,-1.813605 4.378313,-10.654932 c 0.115219,-0.453401 0.115219,-0.793452 -0.115219,-1.246854 -0.115218,-0.2267 -0.345656,-0.453401 -0.691312,-0.566751 -0.691313,-0.340051 -1.497844,0 -1.843501,0.793452 l -4.378313,10.654932 -1.267406,3.060459 c -0.921751,1.020153 -1.843501,1.586905 -2.88047,1.926956 -0.576094,0.11335 -1.267406,0.226701 -1.958719,0.226701 -1.036969,0 -2.189157,-0.113351 -3.341344,-0.453402 -3.226126,-0.906803 -5.64572,-2.720408 -7.374002,-5.667517 -1.613063,-2.833758 -2.073938,-5.894217 -1.267406,-9.068027 0.460875,-1.586905 1.152187,-3.060459 2.073938,-4.193962 0.460875,-0.453402 1.036969,-0.906803 1.613062,-1.246854 H 53.4278 c 0.460875,-0.226701 0.92175,-0.340051 1.267407,-0.453401 l 3.226125,0.11335 10.254471,0.453401 c 0.806532,0 1.382625,-0.566751 1.497844,-1.360204 0,-0.226701 0,-0.566752 -0.230437,-0.793452 -0.230438,-0.340051 -0.691313,-0.680102 -1.152188,-0.680102 L 58.036551,69.277025 v 0 l -3.802219,-0.11335 c -0.230438,-0.11335 -0.345657,-0.11335 -0.576094,-0.226701 L 53.4278,68.823624 v 0 c -0.92175,-0.566752 -1.613063,-1.246854 -2.073938,-2.153656 0,-0.113351 -0.115218,-0.113351 -0.115218,-0.226701 -1.152188,-2.607058 -1.382626,-5.214116 -0.691313,-8.047874 0.806531,-3.28716 2.76525,-5.667517 5.760939,-7.367772 2.880469,-1.586905 5.991376,-2.040306 9.102283,-1.246854 1.497844,0.566752 2.650031,1.473555 3.571782,2.947109 l 0.806531,4.080612 1.958719,9.294728 c 0.115219,0.793452 0.92175,1.246854 1.613063,1.020153 0.806531,-0.11335 1.267406,-0.906803 1.036969,-1.586905 l -1.958719,-9.294728 -1.036969,-4.874064 c 0.115219,-0.453401 0.115219,-0.793452 0.345656,-1.246854 v 0 c 0.345656,-1.020153 0.806532,-1.813605 1.497844,-2.380357 0.576094,-0.453401 1.152188,-1.020153 1.843501,-1.360204 2.880469,-1.813605 5.991376,-2.267007 8.987064,-1.473554 3.110907,0.793452 5.415282,2.720408 7.028345,5.780867 1.152188,2.380357 1.613063,4.874064 1.267407,7.367772 -0.115219,0.566752 -0.345657,1.133503 -0.576094,1.700255 v 0 l -0.115219,0.11335 c -0.230438,0.340051 -0.460875,0.680102 -0.806531,1.020153 l -11.521878,6.57432 c -0.115219,-0.11335 -0.460875,0.680102 0,1.360204 m 7.374002,-28.790986 c -3.687001,-1.020153 -7.258783,-0.340051 -10.600127,1.813605 -3.110907,1.926956 -5.415283,4.760715 -6.567471,8.274575 -1.728281,-1.926956 -3.917438,-3.28716 -6.56747,-4.193962 -3.687,-1.133504 -7.258782,-0.793453 -10.484908,1.020153 -3.226126,1.813605 -5.300064,4.647364 -6.106595,8.387925 -0.806531,3.740561 -0.230437,7.367772 1.8435,10.881632 0.691313,1.133504 1.382626,2.040306 2.189157,2.947109 0.460875,0.566752 1.036969,1.020153 1.497844,1.473554 -3.456563,2.153657 -5.991376,5.100766 -7.143564,8.841327 -1.267406,3.853911 -1.036969,7.594473 1.036969,10.881632 1.958719,3.400511 4.954407,5.440817 9.102283,6.234269 4.032657,0.793452 8.065314,0.11335 11.867534,-2.040306 0.345656,1.133503 0.92175,2.267007 1.497844,3.28716 2.189157,3.627209 5.184845,6.120919 8.987064,7.481119 3.80222,1.24686 7.374002,1.02016 10.715346,-0.9068 3.226126,-1.81361 5.300064,-4.760714 6.106595,-8.614625 0.576094,-2.720408 0.345656,-5.440817 -0.460875,-8.161225 0.115219,0 0.230438,-0.11335 0.345656,-0.2267 3.110907,0.340051 6.221812,-0.226701 8.987062,-1.813606 3.57178,-1.926956 5.87616,-4.647364 6.91313,-8.387925 0.92175,-3.40051 0.46087,-6.68767 -1.26741,-9.748129 -0.11522,-0.226701 -0.34565,-0.566752 -0.46087,-0.793452 -2.18916,-3.28716 -5.41528,-5.440817 -9.447942,-6.46097 -1.152188,-0.2267 -2.304375,-0.453401 -3.341344,-0.453401 0.230437,-0.566752 0.460875,-1.133503 0.576094,-1.813605 1.152187,-3.967262 0.92175,-7.821174 -0.921751,-11.221684 -1.958719,-3.51386 -4.608751,-5.780867 -8.295751,-6.68767"
       id="path579"
       style="display:inline;fill:#ffffff;stroke-width:1.14281"
       transform="matrix(1.5565977,0,0,1.5565977,-27.474616,230.6331)" /><path
       class="st0"
       d="m 115.30028,13.168608 v 0 c -0.80653,0 -1.38262,0.680102 -1.38262,1.360204 v 13.942092 c 0,0 0,0 0,0.11335 -0.11522,0.340051 -0.23044,0.680102 -0.46088,1.020153 v 0.11335 c -0.80653,1.133504 -1.72828,2.040306 -2.88047,2.607058 -1.61306,0.680102 -3.45656,1.133503 -5.30006,1.246854 -3.687,0.2267 -6.797909,-0.906803 -9.217504,-3.060459 -2.419594,-2.267007 -3.687,-4.987415 -3.571782,-8.387925 0,-0.453402 0.115219,-0.906803 0.115219,-1.360204 0,-0.113351 0,-0.113351 0,-0.226701 l 0.115219,-0.340051 c 0.230437,-1.020153 0.691313,-2.040306 1.382625,-2.833759 0,0 0.115219,-0.11335 0.115219,-0.11335 l 4.263095,-1.586905 11.176219,-4.420663 c 0.69131,-0.226701 1.03697,-1.133503 0.80653,-1.8136054 -0.34565,-0.680102 -1.15218,-1.020153 -1.8435,-0.7934523 L 97.441372,13.055257 v 0 l -3.110907,1.133504 c -0.460875,0 -0.92175,0 -1.382626,0 H 92.832621 C 91.449995,13.96206 90.297808,13.395308 89.376057,12.488506 87.071682,10.221499 85.919494,7.3877406 85.919494,4.1005807 c 0,-3.28715978 1.267407,-6.1209182 3.687001,-8.5012754 1.036969,-0.9068027 2.073938,-1.700255 3.226126,-2.2670067 1.036969,-0.4534014 2.189156,-0.6801021 3.226125,-0.6801021 1.613063,0 3.341345,0.5667517 4.954404,1.5869048 l 1.26741,1.5869047 7.14356,9.0680271 c 0.23044,0.340051 0.69132,0.5667517 1.15219,0.5667517 0.34566,0 0.5761,-0.1133503 0.80653,-0.340051 0.5761,-0.4534014 0.69132,-1.3602041 0.23044,-1.9269558 l -7.14356,-9.0680271 -2.07394,-2.6070577 c -0.46088,-1.2468538 -0.5761,-2.3803572 -0.34566,-3.4005102 0.11522,-0.566752 0.46088,-1.133503 0.69132,-1.813605 0.57609,-0.906803 1.2674,-1.813606 2.07393,-2.607058 2.4196,-2.267007 5.30007,-3.40051 8.64141,-3.40051 3.34135,0 6.22181,1.133503 8.64141,3.40051 1.15219,1.133503 2.07394,2.493707 2.76525,3.853911 0.11522,0.680102 0.23044,1.360204 0.23044,2.040306 v 0.113351 c 0,0.4534011 -0.11522,0.9068024 -0.23044,1.3602038 l -1.72828,2.7204081 -5.5305,8.5012754 c -0.46088,0.6801021 -0.23044,1.4735544 0.46087,1.9269558 0.23044,0.1133503 0.46088,0.2267007 0.80653,0.2267007 0.46088,0 0.92175,-0.2267007 1.15219,-0.6801021 l 5.5305,-8.5012754 2.07394,-3.1738095 c 0.11522,-0.1133503 0.34566,-0.2267006 0.46088,-0.340051 L 128.32,-8.3679565 v 0 c 0.92175,-0.4534014 1.95872,-0.680102 2.99569,-0.680102 0.11522,0 0.23044,0 0.34566,0 2.76525,0.2267006 5.30006,1.4735544 7.374,3.5138605 2.41959,2.3803571 3.57178,5.21411553 3.57178,8.6146257 0,3.2871598 -1.15219,6.1209183 -3.45656,8.3879253 -1.15219,1.020153 -2.65003,1.473554 -4.37832,1.586904 l -4.03265,-1.360204 v 0 l -9.10229,-3.0604587 c -0.69131,-0.2267007 -1.49784,0.1133503 -1.72828,0.9068027 -0.23044,0.680102 0.11522,1.473554 0.92175,1.700255 l 9.10229,3.060459 4.83918,1.586905 c 0.34566,0.226701 0.69132,0.566752 0.92175,0.793452 v 0 c 0.69132,0.793453 1.15219,1.586905 1.38263,2.493708 0.11522,0.680102 0.23044,1.473554 0.23044,2.267007 0.11522,3.40051 -0.92175,6.234268 -3.22613,8.387925 -2.30437,2.267006 -5.18484,3.287159 -8.52619,3.060459 -2.65003,-0.226701 -5.06962,-1.020153 -7.14356,-2.607058 -0.46088,-0.453401 -0.80653,-0.906803 -1.15219,-1.360204 v 0 l -0.11522,-0.11335 c -0.23044,-0.340051 -0.34565,-0.793453 -0.46087,-1.133504 V 14.528812 c 0,-0.793452 -0.5761,-1.360204 -1.38263,-1.360204 m 21.66113,20.743112 c 2.65003,-2.607058 3.91744,-6.007568 3.80222,-9.97483 -0.11522,-3.627211 -1.49784,-6.914371 -4.03266,-9.748129 2.53482,-0.566752 4.95441,-1.700255 6.91313,-3.513861 2.88047,-2.6070574 4.37831,-5.6675166 4.37831,-9.4080777 0,-3.6272109 -1.49784,-6.8010203 -4.37831,-9.4080781 -2.88047,-2.6070582 -6.45225,-3.8539112 -10.48491,-3.8539112 -1.26741,0 -2.53481,0.11335 -3.687,0.340051 -0.69131,0.11335 -1.38262,0.340051 -2.07394,0.566751 -0.11522,-4.080612 -1.49784,-7.594472 -4.14787,-10.541581 -2.76525,-3.060459 -6.1066,-4.647364 -10.02404,-4.647364 -3.91743,0 -7.25878,1.586905 -10.02403,4.647364 -2.76525,3.060459 -4.147876,6.80102 -4.147876,11.108333 -1.152187,-0.226701 -2.419594,-0.340051 -3.687,-0.340051 -4.263095,0 -7.950096,1.3602041 -11.061003,3.9672619 -2.995688,2.6070578 -4.60875,5.7808673 -4.60875,9.5214284 0,3.7405612 1.497844,6.9143707 4.60875,9.5214287 2.189157,1.813605 4.608751,3.060459 7.374002,3.627211 0,0.11335 0,0.2267 0,0.453401 -1.8435,2.493707 -2.880469,5.440816 -2.995688,8.614626 -0.115219,3.967262 1.152188,7.367772 3.917438,10.08818 2.534813,2.493707 5.64572,3.740561 9.217497,3.740561 0.34566,0 0.5761,0 0.92176,0 4.03265,-0.226701 7.48922,-1.813605 10.36968,-4.760714 0.80654,-0.793453 1.49785,-1.700255 2.07394,-2.607058 0.34566,0.453401 0.80653,1.020153 1.26741,1.473554 2.88047,2.947109 6.45225,4.647364 10.36969,4.874065 4.14787,0 7.48922,-1.133503 10.13925,-3.740561"
       id="path581"
       style="display:inline;fill:#ffffff;stroke-width:1.14281"
       transform="matrix(1.5565977,0,0,1.5565977,-27.474616,230.6331)" /></g></g><g
   inkscape:groupmode="layer"
   id="layer1"
   inkscape:label="TEXT"
   transform="matrix(1.581156,0,0,1.8462204,37.687977,-537.70685)"
   style="display:none"><text
     xml:space="preserve"
     style="font-style:normal;font-variant:normal;font-weight:normal;font-stretch:normal;font-size:31.1066px;line-height:0.9;font-family:'Noto Sans';-inkscape-font-specification:'Noto Sans';display:inline;opacity:0.900648;fill:#000080;fill-opacity:0.901961;stroke-width:5.16649"
     x="55.029667"
     y="500.72089"
     id="text3827"
     inkscape:label="text472"
     transform="matrix(1.0741078,0,0,0.93100526,1.8234915e-7,-2.1270891e-6)"><tspan
       style="font-style:normal;font-variant:normal;font-weight:bold;font-stretch:normal;font-size:31.1066px;font-family:'Noto Sans';-inkscape-font-specification:'Noto Sans';text-align:center;text-anchor:middle;fill:#000080;fill-opacity:0.901961;stroke-width:5.16649"
       sodipodi:role="line"
       id="tspan3821"
       x="55.029667"
       y="500.72089">SANHUA</tspan><tspan
       style="font-style:normal;font-variant:normal;font-weight:bold;font-stretch:normal;font-size:31.1066px;font-family:'Noto Sans';-inkscape-font-specification:'Noto Sans';text-align:center;text-anchor:middle;fill:#000080;fill-opacity:0.901961;stroke-width:5.16649"
       sodipodi:role="line"
       x="55.029667"
       y="528.7168"
       id="tspan3823">AWECO</tspan><tspan
       sodipodi:role="line"
       x="55.029667"
       y="556.71277"
       id="tspan3825"
       style="font-style:normal;font-variant:normal;font-weight:bold;font-stretch:normal;font-size:31.1066px;font-family:'Noto Sans';-inkscape-font-specification:'Noto Sans';text-align:center;text-anchor:middle;fill:#000080;fill-opacity:0.901961;stroke-width:5.16649" /></text></g><g
   inkscape:groupmode="layer"
   id="layer5"
   inkscape:label="TEXT path"><g
     aria-label="SANHUA AWECO "
     transform="matrix(1.698332,0,0,1.7188409,37.687977,-537.70685)"
     id="text472"
     style="font-size:31.1066px;line-height:0.9;font-family:'Noto Sans';-inkscape-font-specification:'Noto Sans';display:inline;opacity:0.900648;fill:#000080;fill-opacity:0.901961;stroke-width:5.16649"
     inkscape:label="text472"><path
       d="m 4.7458317,494.56178 q 0,2.95513 -2.1463554,4.7282 -2.11524877,1.74197 -6.0346804,1.74197 -3.5150457,0 -6.2835331,-1.33758 v -4.38603 q 1.5864366,0.68434 3.266193,1.27537 1.710863,0.55992 3.3906193,0.55992 1.7419696,0 2.45742143,-0.65324 0.7465584,-0.68435 0.7465584,-1.71086 0,-0.83988 -0.5910254,-1.43091 -0.55991883,-0.59102 -1.52422343,-1.08873 -0.9643046,-0.52881 -2.2085685,-1.11984 -0.777665,-0.37328 -1.6797564,-0.87098 -0.9020914,-0.52881 -1.7419696,-1.27537 -0.8087716,-0.77767 -1.3375838,-1.8664 -0.5288122,-1.08873 -0.5288122,-2.61295 0,-2.98624 2.021929,-4.63489 2.021929,-1.67975 5.5058681,-1.67975 1.74196963,0 3.2972996,0.40438 1.5864366,0.40439 3.2972996,1.15095 l -1.5242234,3.67058 q -1.5242234,-0.62214 -2.73738077,-0.96431 -1.2131574,-0.34217 -2.48852803,-0.34217 -1.3375838,0 -2.0530355,0.62213 -0.7154518,0.62213 -0.7154518,1.61754 0,1.18206 1.0576244,1.8664 1.0576243,0.68435 3.14176653,1.67976 1.71086297,0.80877 2.89291377,1.67975 1.2131574,0.87099 1.866396,2.05304 0.6532386,1.18205 0.6532386,2.92402 z"
       style="font-weight:bold;text-align:center;text-anchor:middle"
       id="path3833" /><path
       d="m 22.383293,500.72089 -1.617544,-5.28813 h -8.087716 l -1.617543,5.28813 H 5.9901144 l 7.8388636,-22.30344 h 5.754721 l 7.869969,22.30344 z m -4.354924,-14.40236 q -0.155533,-0.52881 -0.404386,-1.33758 -0.248853,-0.80877 -0.497706,-1.64865 -0.248853,-0.83988 -0.404386,-1.46201 -0.155533,0.62213 -0.435492,1.55533 -0.248853,0.90209 -0.497706,1.74197 -0.217746,0.80877 -0.342172,1.15094 l -1.586437,5.1637 h 5.785828 z"
       style="font-weight:bold;text-align:center;text-anchor:middle"
       id="path3835" /><path
       d="M 49.943756,500.72089 H 43.971289 L 34.297136,483.92332 H 34.17271 q 0.06221,1.58644 0.124426,3.17288 0.09332,1.58643 0.155533,3.17287 v 10.45182 h -4.199391 v -22.21012 h 5.941361 l 9.643046,16.64203 h 0.09332 q -0.03111,-1.55533 -0.09332,-3.07955 -0.06221,-1.52422 -0.124427,-3.04845 v -10.51403 h 4.230498 z"
       style="font-weight:bold;text-align:center;text-anchor:middle"
       id="path3837" /><path
       d="M 73.740297,500.72089 H 69.0432 v -9.58084 h -8.803168 v 9.58084 h -4.697096 v -22.21012 h 4.697096 v 8.70985 H 69.0432 v -8.70985 h 4.697097 z"
       style="font-weight:bold;text-align:center;text-anchor:middle"
       id="path3839" /><path
       d="m 97.412402,492.88202 q 0,2.30189 -1.026518,4.16829 -0.995411,1.83529 -3.048447,2.92402 -2.021929,1.05762 -5.132589,1.05762 -4.417137,0 -6.719025,-2.23967 -2.301889,-2.27078 -2.301889,-5.97247 v -14.30904 h 4.697097 v 13.59359 q 0,2.73738 1.119838,3.85722 1.119837,1.11983 3.328406,1.11983 2.301888,0 3.328406,-1.21315 1.057624,-1.21316 1.057624,-3.79501 v -13.56248 h 4.697097 z"
       style="font-weight:bold;text-align:center;text-anchor:middle"
       id="path3841" /><path
       d="m 116.13858,500.72089 -1.61754,-5.28813 h -8.08772 l -1.61754,5.28813 h -5.070378 l 7.838858,-22.30344 h 5.75473 l 7.86997,22.30344 z m -4.35492,-14.40236 q -0.15554,-0.52881 -0.40439,-1.33758 -0.24885,-0.80877 -0.49771,-1.64865 -0.24885,-0.83988 -0.40438,-1.46201 -0.15553,0.62213 -0.43549,1.55533 -0.24886,0.90209 -0.49771,1.74197 -0.21775,0.80877 -0.34217,1.15094 l -1.58644,5.1637 h 5.78583 z"
       style="font-weight:bold;text-align:center;text-anchor:middle"
       id="path3843" /><path
       d="M 15.586526,528.71683 13.968982,523.4287 H 5.8812665 l -1.6175432,5.28813 H -0.80665246 L 7.0322107,506.41339 h 5.7547213 l 7.869969,22.30344 z m -4.354924,-14.40236 q -0.155533,-0.52881 -0.404386,-1.33758 -0.248853,-0.80878 -0.497706,-1.64865 -0.248853,-0.83988 -0.4043855,-1.46201 -0.155533,0.62213 -0.4354924,1.55533 -0.2488528,0.90209 -0.4977056,1.74197 -0.2177462,0.80877 -0.3421726,1.15094 l -1.5864366,5.1637 h 5.7858277 z"
       style="font-weight:bold;text-align:center;text-anchor:middle"
       id="path3845" /><path
       d="m 49.492708,506.50671 -5.661401,22.21012 h -5.350335 l -3.017341,-11.66498 q -0.09332,-0.34217 -0.248852,-1.02652 -0.124427,-0.68434 -0.311066,-1.49311 -0.155533,-0.80878 -0.27996,-1.52423 -0.124426,-0.74656 -0.186639,-1.15094 -0.03111,0.40438 -0.18664,1.15094 -0.124426,0.71545 -0.279959,1.52423 -0.155533,0.77766 -0.311066,1.49311 -0.155533,0.68435 -0.248853,1.05763 l -2.986234,11.63387 h -5.350335 l -5.661401,-22.21012 h 4.634883 l 2.830701,12.13158 q 0.186639,0.71545 0.404386,1.80418 0.217746,1.08873 0.404385,2.17746 0.18664,1.08873 0.27996,1.83529 0.09332,-0.77766 0.279959,-1.83529 0.18664,-1.08873 0.373279,-2.08414 0.217747,-1.02652 0.37328,-1.58644 l 3.235086,-12.44264 h 4.448244 l 3.235086,12.44264 q 0.155533,0.52882 0.342173,1.55533 0.217746,1.02652 0.404386,2.11525 0.186639,1.08873 0.279959,1.83529 0.09332,-0.77766 0.279959,-1.83529 0.18664,-1.08873 0.404386,-2.17746 0.248853,-1.08873 0.404386,-1.80418 l 2.830701,-12.13158 z"
       style="font-weight:bold;text-align:center;text-anchor:middle"
       id="path3847" /><path
       d="M 65.077147,528.71683 H 52.292334 v -22.21012 h 12.784813 v 3.85722 h -8.087716 v 4.88374 h 7.527797 v 3.85722 h -7.527797 v 5.72361 h 8.087716 z"
       style="font-weight:bold;text-align:center;text-anchor:middle"
       id="path3849" /><path
       d="m 79.137312,510.11508 q -2.706274,0 -4.137178,2.02193 -1.430904,2.02193 -1.430904,5.53697 0,3.54615 1.306478,5.50587 1.337583,1.92861 4.261604,1.92861 1.36869,0 2.706274,-0.31107 1.36869,-0.31106 2.955127,-0.87098 v 3.95054 q -1.46201,0.59102 -2.892914,0.87098 -1.430904,0.27996 -3.20398,0.27996 -3.421726,0 -5.661401,-1.3998 -2.208568,-1.4309 -3.266193,-3.98164 -1.057624,-2.58185 -1.057624,-6.00357 0,-3.35952 1.213157,-5.94136 1.213158,-2.58185 3.515046,-4.04386 2.332995,-1.46201 5.692508,-1.46201 1.648649,0 3.297299,0.43549 1.679757,0.40439 3.20398,1.11984 l -1.524223,3.82611 q -1.244264,-0.59103 -2.519635,-1.02652 -1.244264,-0.43549 -2.457421,-0.43549 z"
       style="font-weight:bold;text-align:center;text-anchor:middle"
       id="path3851" /><path
       d="m 109.06182,517.58066 q 0,3.45284 -1.15094,6.03468 -1.11984,2.55074 -3.45283,3.98165 -2.333,1.4309 -5.972472,1.4309 -3.608365,0 -5.972467,-1.4309 -2.332995,-1.43091 -3.483939,-4.01275 -1.119837,-2.58185 -1.119837,-6.03468 0,-3.45284 1.119837,-6.00358 1.150944,-2.55074 3.483939,-3.95054 2.364102,-1.4309 6.003574,-1.4309 3.608365,0 5.941365,1.4309 2.33299,1.3998 3.45283,3.98165 1.15094,2.55074 1.15094,6.00357 z m -16.206536,0 q 0,3.48394 1.337584,5.50587 1.337583,1.99082 4.29271,1.99082 3.017342,0 4.323822,-1.99082 1.30647,-2.02193 1.30647,-5.50587 0,-3.51504 -1.30647,-5.50587 -1.30648,-1.99082 -4.292715,-1.99082 -2.986234,0 -4.323817,1.99082 -1.337584,1.99083 -1.337584,5.50587 z"
       style="font-weight:bold;text-align:center;text-anchor:middle"
       id="path3853" /></g></g></svg>
